{
  "header": {
    "PPQ": 192,
    "bpm": 145.00003625000906,
    "timeSignature": [
      4,
      4
    ],
    "name": "Kánon D-dur"
  },
  "tempo": [
    {
      "absoluteTime": 0,
      "seconds": 0,
      "bpm": 145.00003625000906
    },
    {
      "absoluteTime": 136704,
      "seconds": 294.62061600000004,
      "bpm": 142.0000710000355
    },
    {
      "absoluteTime": 136857,
      "seconds": 294.95035729687504,
      "bpm": 141.00030315065177
    },
    {
      "absoluteTime": 137011,
      "seconds": 295.28225376562506,
      "bpm": 140.00014000014
    },
    {
      "absoluteTime": 137164,
      "seconds": 295.61199506250006,
      "bpm": 139.00021776700783
    },
    {
      "absoluteTime": 137318,
      "seconds": 295.9438915312501,
      "bpm": 138.00019320027047
    },
    {
      "absoluteTime": 137472,
      "seconds": 296.2757880000001,
      "bpm": 137.00006393336318
    },
    {
      "absoluteTime": 137625,
      "seconds": 296.6055292968751,
      "bpm": 136.0001450668214
    },
    {
      "absoluteTime": 137779,
      "seconds": 296.9374257656251,
      "bpm": 135.000135000135
    },
    {
      "absoluteTime": 137932,
      "seconds": 297.2671670625001,
      "bpm": 134.00005806669182
    },
    {
      "absoluteTime": 138086,
      "seconds": 297.5990635312501,
      "bpm": 133.00024161710562
    },
    {
      "absoluteTime": 138240,
      "seconds": 297.93096000000014,
      "bpm": 132.000132000132
    },
    {
      "absoluteTime": 138393,
      "seconds": 298.26070129687514,
      "bpm": 131.00007641671124
    },
    {
      "absoluteTime": 138547,
      "seconds": 298.59259776562516,
      "bpm": 130.00013000013
    },
    {
      "absoluteTime": 138700,
      "seconds": 298.92233906250016,
      "bpm": 129.00007740004645
    },
    {
      "absoluteTime": 138854,
      "seconds": 299.2542355312502,
      "bpm": 128
    },
    {
      "absoluteTime": 139008,
      "seconds": 299.5861320000002,
      "bpm": 127.00025400050801
    },
    {
      "absoluteTime": 139161,
      "seconds": 299.9158732968752,
      "bpm": 126.000126000126
    },
    {
      "absoluteTime": 139315,
      "seconds": 300.2477697656252,
      "bpm": 125
    },
    {
      "absoluteTime": 139468,
      "seconds": 300.5775110625002,
      "bpm": 124.000248000496
    },
    {
      "absoluteTime": 139622,
      "seconds": 300.9094075312502,
      "bpm": 123.00022140039852
    },
    {
      "absoluteTime": 139776,
      "seconds": 301.24130400000024,
      "bpm": 122.0000691333725
    },
    {
      "absoluteTime": 139929,
      "seconds": 301.57104529687524,
      "bpm": 121.0001875502907
    },
    {
      "absoluteTime": 140083,
      "seconds": 301.90294176562526,
      "bpm": 120
    },
    {
      "absoluteTime": 140236,
      "seconds": 302.23268306250026,
      "bpm": 119.00016065021688
    },
    {
      "absoluteTime": 140390,
      "seconds": 302.5645795312503,
      "bpm": 118.0001337334849
    },
    {
      "absoluteTime": 140544,
      "seconds": 302.8964760000003,
      "bpm": 117.000117000117
    },
    {
      "absoluteTime": 140697,
      "seconds": 303.2262172968753,
      "bpm": 116.00008506672904
    },
    {
      "absoluteTime": 140851,
      "seconds": 303.5581137656253,
      "bpm": 115.00002875000719
    },
    {
      "absoluteTime": 141004,
      "seconds": 303.8878550625003,
      "bpm": 114.0001710002565
    },
    {
      "absoluteTime": 141158,
      "seconds": 304.2197515312503,
      "bpm": 113.00009605008164
    },
    {
      "absoluteTime": 141312,
      "seconds": 304.55164800000034,
      "bpm": 112.00005973336519
    }
  ],
  "timeSignature": [
    {
      "absoluteTime": 0,
      "seconds": 0,
      "numerator": 4,
      "denominator": 2,
      "click": 24,
      "notesQ": 8
    }
  ],
  "startTime": 0,
  "duration": 309.4137157499989,
  "tracks": [
    {
      "startTime": 0,
      "duration": 309.41371574999806,
      "length": 1487,
      "notes": [
        {
          "name": "G3",
          "midi": 55,
          "time": 0,
          "velocity": 0.5905511811023622,
          "duration": 1.655172
        },
        {
          "name": "E4",
          "midi": 64,
          "time": 0,
          "velocity": 0.5905511811023622,
          "duration": 1.655172
        },
        {
          "name": "D3",
          "midi": 50,
          "time": 1.655172,
          "velocity": 0.5905511811023622,
          "duration": 1.655172
        },
        {
          "name": "B3",
          "midi": 59,
          "time": 1.655172,
          "velocity": 0.5905511811023622,
          "duration": 1.655172
        },
        {
          "name": "E3",
          "midi": 52,
          "time": 3.310344,
          "velocity": 0.5905511811023622,
          "duration": 1.6551719999999999
        },
        {
          "name": "C4",
          "midi": 60,
          "time": 3.310344,
          "velocity": 0.5905511811023622,
          "duration": 1.6551719999999999
        },
        {
          "name": "B2",
          "midi": 47,
          "time": 4.965516,
          "velocity": 0.5905511811023622,
          "duration": 1.6551720000000003
        },
        {
          "name": "G3",
          "midi": 55,
          "time": 4.965516,
          "velocity": 0.5905511811023622,
          "duration": 1.6551720000000003
        },
        {
          "name": "C3",
          "midi": 48,
          "time": 6.620688,
          "velocity": 0.5905511811023622,
          "duration": 1.6551719999999994
        },
        {
          "name": "F3",
          "midi": 53,
          "time": 6.620688,
          "velocity": 0.5905511811023622,
          "duration": 1.6551719999999994
        },
        {
          "name": "A3",
          "midi": 57,
          "time": 6.620688,
          "velocity": 0.5905511811023622,
          "duration": 1.6551719999999994
        },
        {
          "name": "C3",
          "midi": 48,
          "time": 8.27586,
          "velocity": 0.5905511811023622,
          "duration": 1.6551720000000003
        },
        {
          "name": "E3",
          "midi": 52,
          "time": 8.27586,
          "velocity": 0.5905511811023622,
          "duration": 1.6551720000000003
        },
        {
          "name": "C4",
          "midi": 60,
          "time": 8.27586,
          "velocity": 0.5905511811023622,
          "duration": 1.6551720000000003
        },
        {
          "name": "C3",
          "midi": 48,
          "time": 9.931032,
          "velocity": 0.5905511811023622,
          "duration": 1.6551720000000003
        },
        {
          "name": "F3",
          "midi": 53,
          "time": 9.931032,
          "velocity": 0.5905511811023622,
          "duration": 1.6551720000000003
        },
        {
          "name": "A3",
          "midi": 57,
          "time": 9.931032,
          "velocity": 0.5905511811023622,
          "duration": 1.6551720000000003
        },
        {
          "name": "D3",
          "midi": 50,
          "time": 11.586204,
          "velocity": 0.5905511811023622,
          "duration": 1.6551720000000003
        },
        {
          "name": "G3",
          "midi": 55,
          "time": 11.586204,
          "velocity": 0.5905511811023622,
          "duration": 1.6551720000000003
        },
        {
          "name": "B3",
          "midi": 59,
          "time": 11.586204,
          "velocity": 0.5905511811023622,
          "duration": 1.6551720000000003
        },
        {
          "name": "E4",
          "midi": 64,
          "time": 13.241376,
          "velocity": 0.5905511811023622,
          "duration": 1.6551720000000003
        },
        {
          "name": "C5",
          "midi": 72,
          "time": 13.241376,
          "velocity": 0.5905511811023622,
          "duration": 1.6551720000000003
        },
        {
          "name": "E5",
          "midi": 76,
          "time": 13.241376,
          "velocity": 0.5905511811023622,
          "duration": 1.6551720000000003
        },
        {
          "name": "D4",
          "midi": 62,
          "time": 14.896548000000001,
          "velocity": 0.5905511811023622,
          "duration": 1.6551719999999985
        },
        {
          "name": "B4",
          "midi": 71,
          "time": 14.896548000000001,
          "velocity": 0.5905511811023622,
          "duration": 1.6551719999999985
        },
        {
          "name": "D5",
          "midi": 74,
          "time": 14.896548000000001,
          "velocity": 0.5905511811023622,
          "duration": 1.6551719999999985
        },
        {
          "name": "C4",
          "midi": 60,
          "time": 16.55172,
          "velocity": 0.5905511811023622,
          "duration": 1.6551720000000003
        },
        {
          "name": "A4",
          "midi": 69,
          "time": 16.55172,
          "velocity": 0.5905511811023622,
          "duration": 1.6551720000000003
        },
        {
          "name": "C5",
          "midi": 72,
          "time": 16.55172,
          "velocity": 0.5905511811023622,
          "duration": 1.6551720000000003
        },
        {
          "name": "B3",
          "midi": 59,
          "time": 18.206892,
          "velocity": 0.5905511811023622,
          "duration": 1.6551720000000003
        },
        {
          "name": "G4",
          "midi": 67,
          "time": 18.206892,
          "velocity": 0.5905511811023622,
          "duration": 1.6551720000000003
        },
        {
          "name": "B4",
          "midi": 71,
          "time": 18.206892,
          "velocity": 0.5905511811023622,
          "duration": 1.6551720000000003
        },
        {
          "name": "A3",
          "midi": 57,
          "time": 19.862064,
          "velocity": 0.5905511811023622,
          "duration": 1.6551720000000003
        },
        {
          "name": "F4",
          "midi": 65,
          "time": 19.862064,
          "velocity": 0.5905511811023622,
          "duration": 1.6551720000000003
        },
        {
          "name": "A4",
          "midi": 69,
          "time": 19.862064,
          "velocity": 0.5905511811023622,
          "duration": 1.6551720000000003
        },
        {
          "name": "G3",
          "midi": 55,
          "time": 21.517236,
          "velocity": 0.5905511811023622,
          "duration": 1.6551720000000003
        },
        {
          "name": "C4",
          "midi": 60,
          "time": 21.517236,
          "velocity": 0.5905511811023622,
          "duration": 1.6551720000000003
        },
        {
          "name": "G4",
          "midi": 67,
          "time": 21.517236,
          "velocity": 0.5905511811023622,
          "duration": 1.6551720000000003
        },
        {
          "name": "A3",
          "midi": 57,
          "time": 23.172408,
          "velocity": 0.5905511811023622,
          "duration": 1.6551720000000003
        },
        {
          "name": "F4",
          "midi": 65,
          "time": 23.172408,
          "velocity": 0.5905511811023622,
          "duration": 1.6551720000000003
        },
        {
          "name": "A4",
          "midi": 69,
          "time": 23.172408,
          "velocity": 0.5905511811023622,
          "duration": 1.6551720000000003
        },
        {
          "name": "B3",
          "midi": 59,
          "time": 24.82758,
          "velocity": 0.5905511811023622,
          "duration": 1.6551720000000003
        },
        {
          "name": "G4",
          "midi": 67,
          "time": 24.82758,
          "velocity": 0.5905511811023622,
          "duration": 1.6551720000000003
        },
        {
          "name": "B4",
          "midi": 71,
          "time": 24.82758,
          "velocity": 0.5905511811023622,
          "duration": 1.6551720000000003
        },
        {
          "name": "E4",
          "midi": 64,
          "time": 26.482752,
          "velocity": 0.5905511811023622,
          "duration": 1.6551720000000003
        },
        {
          "name": "C5",
          "midi": 72,
          "time": 26.482752,
          "velocity": 0.5905511811023622,
          "duration": 1.6551720000000003
        },
        {
          "name": "E5",
          "midi": 76,
          "time": 26.482752,
          "velocity": 0.5905511811023622,
          "duration": 1.6551720000000003
        },
        {
          "name": "G4",
          "midi": 67,
          "time": 28.137924,
          "velocity": 0.5905511811023622,
          "duration": 1.5517237500000007
        },
        {
          "name": "B4",
          "midi": 71,
          "time": 28.137924,
          "velocity": 0.5905511811023622,
          "duration": 1.5517237500000007
        },
        {
          "name": "D5",
          "midi": 74,
          "time": 28.137924,
          "velocity": 0.5905511811023622,
          "duration": 1.5517237500000007
        },
        {
          "name": "F4",
          "midi": 65,
          "time": 28.965510000000002,
          "velocity": 0.5905511811023622,
          "duration": 0.8275860000000002
        },
        {
          "name": "E4",
          "midi": 64,
          "time": 29.793096000000002,
          "velocity": 0.5905511811023622,
          "duration": 1.6551720000000003
        },
        {
          "name": "A4",
          "midi": 69,
          "time": 29.793096000000002,
          "velocity": 0.5905511811023622,
          "duration": 1.6551720000000003
        },
        {
          "name": "C5",
          "midi": 72,
          "time": 29.793096000000002,
          "velocity": 0.5905511811023622,
          "duration": 1.6551720000000003
        },
        {
          "name": "E4",
          "midi": 64,
          "time": 31.448268000000002,
          "velocity": 0.5905511811023622,
          "duration": 1.5517237499999972
        },
        {
          "name": "G4",
          "midi": 67,
          "time": 31.448268000000002,
          "velocity": 0.5905511811023622,
          "duration": 1.5517237499999972
        },
        {
          "name": "B4",
          "midi": 71,
          "time": 31.448268000000002,
          "velocity": 0.5905511811023622,
          "duration": 1.5517237499999972
        },
        {
          "name": "D4",
          "midi": 62,
          "time": 32.275854,
          "velocity": 0.5905511811023622,
          "duration": 0.8275859999999966
        },
        {
          "name": "A3",
          "midi": 57,
          "time": 33.10344,
          "velocity": 0.5905511811023622,
          "duration": 1.6551720000000003
        },
        {
          "name": "C4",
          "midi": 60,
          "time": 33.10344,
          "velocity": 0.5905511811023622,
          "duration": 1.6551720000000003
        },
        {
          "name": "A4",
          "midi": 69,
          "time": 33.10344,
          "velocity": 0.5905511811023622,
          "duration": 1.6551720000000003
        },
        {
          "name": "G3",
          "midi": 55,
          "time": 34.758612,
          "velocity": 0.5905511811023622,
          "duration": 1.5517237499999936
        },
        {
          "name": "C4",
          "midi": 60,
          "time": 34.758612,
          "velocity": 0.5905511811023622,
          "duration": 1.5517237499999936
        },
        {
          "name": "G4",
          "midi": 67,
          "time": 34.758612,
          "velocity": 0.5905511811023622,
          "duration": 1.5517237499999936
        },
        {
          "name": "E4",
          "midi": 64,
          "time": 35.586197999999996,
          "velocity": 0.5905511811023622,
          "duration": 0.8275859999999966
        },
        {
          "name": "A3",
          "midi": 57,
          "time": 36.41378399999999,
          "velocity": 0.5905511811023622,
          "duration": 1.6551720000000003
        },
        {
          "name": "D4",
          "midi": 62,
          "time": 36.41378399999999,
          "velocity": 0.5905511811023622,
          "duration": 1.6551720000000003
        },
        {
          "name": "A4",
          "midi": 69,
          "time": 36.41378399999999,
          "velocity": 0.5905511811023622,
          "duration": 1.6551720000000003
        },
        {
          "name": "B3",
          "midi": 59,
          "time": 38.06895599999999,
          "velocity": 0.5905511811023622,
          "duration": 1.5517237499999936
        },
        {
          "name": "G4",
          "midi": 67,
          "time": 38.06895599999999,
          "velocity": 0.5905511811023622,
          "duration": 1.5517237499999936
        },
        {
          "name": "B4",
          "midi": 71,
          "time": 38.06895599999999,
          "velocity": 0.5905511811023622,
          "duration": 1.5517237499999936
        },
        {
          "name": "F4",
          "midi": 65,
          "time": 38.89654199999999,
          "velocity": 0.5905511811023622,
          "duration": 0.8275859999999966
        },
        {
          "name": "E4",
          "midi": 64,
          "time": 39.724127999999986,
          "velocity": 0.5905511811023622,
          "duration": 1.6551720000000003
        },
        {
          "name": "C5",
          "midi": 72,
          "time": 39.724127999999986,
          "velocity": 0.5905511811023622,
          "duration": 1.6551720000000003
        },
        {
          "name": "G4",
          "midi": 67,
          "time": 41.379299999999986,
          "velocity": 0.5905511811023622,
          "duration": 0.8275859999999966
        },
        {
          "name": "B4",
          "midi": 71,
          "time": 41.379299999999986,
          "velocity": 0.5905511811023622,
          "duration": 0.8275859999999966
        },
        {
          "name": "F4",
          "midi": 65,
          "time": 42.20688599999998,
          "velocity": 0.5905511811023622,
          "duration": 0.8275859999999966
        },
        {
          "name": "E4",
          "midi": 64,
          "time": 43.03447199999998,
          "velocity": 0.5905511811023622,
          "duration": 0.8275859999999966
        },
        {
          "name": "C5",
          "midi": 72,
          "time": 43.03447199999998,
          "velocity": 0.5905511811023622,
          "duration": 0.8275859999999966
        },
        {
          "name": "A4",
          "midi": 69,
          "time": 43.862057999999976,
          "velocity": 0.5905511811023622,
          "duration": 0.8275859999999966
        },
        {
          "name": "E5",
          "midi": 76,
          "time": 43.862057999999976,
          "velocity": 0.5905511811023622,
          "duration": 0.8275859999999966
        },
        {
          "name": "E5",
          "midi": 76,
          "time": 44.68964399999997,
          "velocity": 0.5905511811023622,
          "duration": 0.8275859999999966
        },
        {
          "name": "G5",
          "midi": 79,
          "time": 44.68964399999997,
          "velocity": 0.5905511811023622,
          "duration": 0.8275859999999966
        },
        {
          "name": "D5",
          "midi": 74,
          "time": 45.51722999999997,
          "velocity": 0.5905511811023622,
          "duration": 0.8275859999999966
        },
        {
          "name": "A5",
          "midi": 81,
          "time": 45.51722999999997,
          "velocity": 0.5905511811023622,
          "duration": 0.8275859999999966
        },
        {
          "name": "A4",
          "midi": 69,
          "time": 46.344815999999966,
          "velocity": 0.5905511811023622,
          "duration": 0.8275859999999966
        },
        {
          "name": "F5",
          "midi": 77,
          "time": 46.344815999999966,
          "velocity": 0.5905511811023622,
          "duration": 0.8275859999999966
        },
        {
          "name": "C5",
          "midi": 72,
          "time": 47.17240199999996,
          "velocity": 0.5905511811023622,
          "duration": 0.8275859999999966
        },
        {
          "name": "G4",
          "midi": 67,
          "time": 47.99998799999996,
          "velocity": 0.5905511811023622,
          "duration": 0.8275859999999966
        },
        {
          "name": "E5",
          "midi": 76,
          "time": 47.99998799999996,
          "velocity": 0.5905511811023622,
          "duration": 0.8275859999999966
        },
        {
          "name": "G4",
          "midi": 67,
          "time": 48.827573999999956,
          "velocity": 0.5905511811023622,
          "duration": 0.8275859999999966
        },
        {
          "name": "D4",
          "midi": 62,
          "time": 49.65515999999995,
          "velocity": 0.5905511811023622,
          "duration": 0.8275859999999966
        },
        {
          "name": "F4",
          "midi": 65,
          "time": 49.65515999999995,
          "velocity": 0.5905511811023622,
          "duration": 0.8275859999999966
        },
        {
          "name": "A4",
          "midi": 69,
          "time": 50.48274599999995,
          "velocity": 0.5905511811023622,
          "duration": 0.8275859999999966
        },
        {
          "name": "C5",
          "midi": 72,
          "time": 50.48274599999995,
          "velocity": 0.5905511811023622,
          "duration": 0.8275859999999966
        },
        {
          "name": "G4",
          "midi": 67,
          "time": 51.310331999999946,
          "velocity": 0.5905511811023622,
          "duration": 0.8275859999999966
        },
        {
          "name": "C5",
          "midi": 72,
          "time": 51.310331999999946,
          "velocity": 0.5905511811023622,
          "duration": 0.8275859999999966
        },
        {
          "name": "F4",
          "midi": 65,
          "time": 52.13791799999994,
          "velocity": 0.5905511811023622,
          "duration": 0.4137929999999983
        },
        {
          "name": "C5",
          "midi": 72,
          "time": 52.13791799999994,
          "velocity": 0.5905511811023622,
          "duration": 0.4137929999999983
        },
        {
          "name": "B4",
          "midi": 71,
          "time": 52.55171099999994,
          "velocity": 0.5905511811023622,
          "duration": 0.4137929999999983
        },
        {
          "name": "E4",
          "midi": 64,
          "time": 52.96550399999994,
          "velocity": 0.5905511811023622,
          "duration": 0.4137929999999983
        },
        {
          "name": "C5",
          "midi": 72,
          "time": 52.96550399999994,
          "velocity": 0.5905511811023622,
          "duration": 0.4137929999999983
        },
        {
          "name": "B4",
          "midi": 71,
          "time": 53.37929699999994,
          "velocity": 0.5905511811023622,
          "duration": 0.4137929999999983
        },
        {
          "name": "C5",
          "midi": 72,
          "time": 53.793089999999935,
          "velocity": 0.5905511811023622,
          "duration": 0.4137929999999983
        },
        {
          "name": "E4",
          "midi": 64,
          "time": 54.206882999999934,
          "velocity": 0.5905511811023622,
          "duration": 0.4137929999999983
        },
        {
          "name": "B3",
          "midi": 59,
          "time": 54.62067599999993,
          "velocity": 0.5905511811023622,
          "duration": 0.8275859999999966
        },
        {
          "name": "G4",
          "midi": 67,
          "time": 54.62067599999993,
          "velocity": 0.5905511811023622,
          "duration": 0.8275859999999966
        },
        {
          "name": "F4",
          "midi": 65,
          "time": 55.44826199999993,
          "velocity": 0.5905511811023622,
          "duration": 0.8275859999999966
        },
        {
          "name": "B4",
          "midi": 71,
          "time": 55.44826199999993,
          "velocity": 0.5905511811023622,
          "duration": 0.8275859999999966
        },
        {
          "name": "E4",
          "midi": 64,
          "time": 56.275847999999925,
          "velocity": 0.5905511811023622,
          "duration": 0.8275859999999966
        },
        {
          "name": "C5",
          "midi": 72,
          "time": 56.275847999999925,
          "velocity": 0.5905511811023622,
          "duration": 0.8275859999999966
        },
        {
          "name": "A4",
          "midi": 69,
          "time": 57.10343399999992,
          "velocity": 0.5905511811023622,
          "duration": 0.8275859999999966
        },
        {
          "name": "E5",
          "midi": 76,
          "time": 57.10343399999992,
          "velocity": 0.5905511811023622,
          "duration": 0.8275859999999966
        },
        {
          "name": "B4",
          "midi": 71,
          "time": 57.93101999999992,
          "velocity": 0.5905511811023622,
          "duration": 0.4137929999999983
        },
        {
          "name": "G5",
          "midi": 79,
          "time": 57.93101999999992,
          "velocity": 0.5905511811023622,
          "duration": 0.4137929999999983
        },
        {
          "name": "E5",
          "midi": 76,
          "time": 58.34481299999992,
          "velocity": 0.5905511811023622,
          "duration": 0.4137929999999983
        },
        {
          "name": "D5",
          "midi": 74,
          "time": 58.758605999999915,
          "velocity": 0.5905511811023622,
          "duration": 0.4137929999999983
        },
        {
          "name": "G5",
          "midi": 79,
          "time": 58.758605999999915,
          "velocity": 0.5905511811023622,
          "duration": 0.4137929999999983
        },
        {
          "name": "A5",
          "midi": 81,
          "time": 59.17239899999991,
          "velocity": 0.5905511811023622,
          "duration": 0.4137929999999983
        },
        {
          "name": "A4",
          "midi": 69,
          "time": 59.58619199999991,
          "velocity": 0.5905511811023622,
          "duration": 0.4137929999999983
        },
        {
          "name": "F5",
          "midi": 77,
          "time": 59.58619199999991,
          "velocity": 0.5905511811023622,
          "duration": 0.4137929999999983
        },
        {
          "name": "E5",
          "midi": 76,
          "time": 59.99998499999991,
          "velocity": 0.5905511811023622,
          "duration": 0.4137929999999983
        },
        {
          "name": "D5",
          "midi": 74,
          "time": 60.41377799999991,
          "velocity": 0.5905511811023622,
          "duration": 0.4137929999999983
        },
        {
          "name": "F5",
          "midi": 77,
          "time": 60.82757099999991,
          "velocity": 0.5905511811023622,
          "duration": 0.4137929999999983
        },
        {
          "name": "G4",
          "midi": 67,
          "time": 61.241363999999905,
          "velocity": 0.5905511811023622,
          "duration": 0.4137929999999983
        },
        {
          "name": "E5",
          "midi": 76,
          "time": 61.241363999999905,
          "velocity": 0.5905511811023622,
          "duration": 0.4137929999999983
        },
        {
          "name": "D5",
          "midi": 74,
          "time": 61.6551569999999,
          "velocity": 0.5905511811023622,
          "duration": 0.4137929999999983
        },
        {
          "name": "C5",
          "midi": 72,
          "time": 62.0689499999999,
          "velocity": 0.5905511811023622,
          "duration": 0.4137929999999983
        },
        {
          "name": "B4",
          "midi": 71,
          "time": 62.4827429999999,
          "velocity": 0.5905511811023622,
          "duration": 0.4137929999999983
        },
        {
          "name": "F4",
          "midi": 65,
          "time": 62.8965359999999,
          "velocity": 0.5905511811023622,
          "duration": 0.4137929999999983
        },
        {
          "name": "A4",
          "midi": 69,
          "time": 62.8965359999999,
          "velocity": 0.5905511811023622,
          "duration": 0.4137929999999983
        },
        {
          "name": "D4",
          "midi": 62,
          "time": 63.310328999999896,
          "velocity": 0.5905511811023622,
          "duration": 0.4137929999999983
        },
        {
          "name": "F4",
          "midi": 65,
          "time": 63.310328999999896,
          "velocity": 0.5905511811023622,
          "duration": 0.4137929999999983
        },
        {
          "name": "A4",
          "midi": 69,
          "time": 63.724121999999895,
          "velocity": 0.5905511811023622,
          "duration": 0.8275859999999966
        },
        {
          "name": "C5",
          "midi": 72,
          "time": 63.724121999999895,
          "velocity": 0.5905511811023622,
          "duration": 0.8275859999999966
        },
        {
          "name": "G4",
          "midi": 67,
          "time": 64.55170799999989,
          "velocity": 0.5984251968503937,
          "duration": 0.4137929999999983
        },
        {
          "name": "C5",
          "midi": 72,
          "time": 64.55170799999989,
          "velocity": 0.5984251968503937,
          "duration": 0.4137929999999983
        },
        {
          "name": "F4",
          "midi": 65,
          "time": 64.96550099999989,
          "velocity": 0.5984251968503937,
          "duration": 0.4137929999999983
        },
        {
          "name": "E4",
          "midi": 64,
          "time": 65.37929399999989,
          "velocity": 0.5984251968503937,
          "duration": 0.4137929999999983
        },
        {
          "name": "C5",
          "midi": 72,
          "time": 65.37929399999989,
          "velocity": 0.5984251968503937,
          "duration": 0.4137929999999983
        },
        {
          "name": "D4",
          "midi": 62,
          "time": 65.79308699999989,
          "velocity": 0.5984251968503937,
          "duration": 0.4137929999999983
        },
        {
          "name": "B4",
          "midi": 71,
          "time": 65.79308699999989,
          "velocity": 0.5984251968503937,
          "duration": 0.4137929999999983
        },
        {
          "name": "E4",
          "midi": 64,
          "time": 66.20687999999988,
          "velocity": 0.5984251968503937,
          "duration": 0.4137929999999983
        },
        {
          "name": "C5",
          "midi": 72,
          "time": 66.20687999999988,
          "velocity": 0.5984251968503937,
          "duration": 0.4137929999999983
        },
        {
          "name": "B4",
          "midi": 71,
          "time": 66.62067299999988,
          "velocity": 0.5984251968503937,
          "duration": 0.4137929999999983
        },
        {
          "name": "C5",
          "midi": 72,
          "time": 67.03446599999988,
          "velocity": 0.5984251968503937,
          "duration": 0.4137929999999983
        },
        {
          "name": "F4",
          "midi": 65,
          "time": 67.44825899999988,
          "velocity": 0.5984251968503937,
          "duration": 0.4137929999999983
        },
        {
          "name": "C4",
          "midi": 60,
          "time": 67.86205199999988,
          "velocity": 0.5984251968503937,
          "duration": 0.4137929999999983
        },
        {
          "name": "G4",
          "midi": 67,
          "time": 67.86205199999988,
          "velocity": 0.5984251968503937,
          "duration": 0.4137929999999983
        },
        {
          "name": "B3",
          "midi": 59,
          "time": 68.27584499999988,
          "velocity": 0.5984251968503937,
          "duration": 0.4137929999999983
        },
        {
          "name": "G4",
          "midi": 67,
          "time": 68.68963799999987,
          "velocity": 0.5984251968503937,
          "duration": 0.4137929999999983
        },
        {
          "name": "B4",
          "midi": 71,
          "time": 68.68963799999987,
          "velocity": 0.5984251968503937,
          "duration": 0.4137929999999983
        },
        {
          "name": "F4",
          "midi": 65,
          "time": 69.10343099999987,
          "velocity": 0.5984251968503937,
          "duration": 0.4137929999999983
        },
        {
          "name": "E4",
          "midi": 64,
          "time": 69.51722399999987,
          "velocity": 0.5984251968503937,
          "duration": 0.8275859999999966
        },
        {
          "name": "C5",
          "midi": 72,
          "time": 69.51722399999987,
          "velocity": 0.5984251968503937,
          "duration": 0.8275859999999966
        },
        {
          "name": "A4",
          "midi": 69,
          "time": 70.34480999999987,
          "velocity": 0.6062992125984252,
          "duration": 0.4137929999999983
        },
        {
          "name": "E5",
          "midi": 76,
          "time": 70.34480999999987,
          "velocity": 0.6062992125984252,
          "duration": 0.4137929999999983
        },
        {
          "name": "C5",
          "midi": 72,
          "time": 70.75860299999987,
          "velocity": 0.6062992125984252,
          "duration": 0.4137929999999983
        },
        {
          "name": "B4",
          "midi": 71,
          "time": 71.17239599999986,
          "velocity": 0.6062992125984252,
          "duration": 0.4137929999999983
        },
        {
          "name": "G5",
          "midi": 79,
          "time": 71.17239599999986,
          "velocity": 0.6062992125984252,
          "duration": 0.4137929999999983
        },
        {
          "name": "E5",
          "midi": 76,
          "time": 71.58618899999986,
          "velocity": 0.6062992125984252,
          "duration": 0.4137929999999983
        },
        {
          "name": "D5",
          "midi": 74,
          "time": 71.99998199999986,
          "velocity": 0.6141732283464567,
          "duration": 0.4137929999999983
        },
        {
          "name": "G5",
          "midi": 79,
          "time": 71.99998199999986,
          "velocity": 0.6141732283464567,
          "duration": 0.4137929999999983
        },
        {
          "name": "A5",
          "midi": 81,
          "time": 72.41377499999986,
          "velocity": 0.6220472440944882,
          "duration": 0.4137929999999983
        },
        {
          "name": "A4",
          "midi": 69,
          "time": 72.82756799999986,
          "velocity": 0.6299212598425197,
          "duration": 0.4137929999999983
        },
        {
          "name": "F5",
          "midi": 77,
          "time": 72.82756799999986,
          "velocity": 0.6299212598425197,
          "duration": 0.4137929999999983
        },
        {
          "name": "E5",
          "midi": 76,
          "time": 73.24136099999986,
          "velocity": 0.6377952755905512,
          "duration": 0.4137929999999983
        },
        {
          "name": "B4",
          "midi": 71,
          "time": 73.65515399999985,
          "velocity": 0.6456692913385826,
          "duration": 0.4137929999999983
        },
        {
          "name": "D5",
          "midi": 74,
          "time": 73.65515399999985,
          "velocity": 0.6456692913385826,
          "duration": 0.4137929999999983
        },
        {
          "name": "F5",
          "midi": 77,
          "time": 74.06894699999985,
          "velocity": 0.6535433070866141,
          "duration": 0.4137929999999983
        },
        {
          "name": "C5",
          "midi": 72,
          "time": 74.48273999999985,
          "velocity": 0.6614173228346457,
          "duration": 0.4137929999999983
        },
        {
          "name": "E5",
          "midi": 76,
          "time": 74.48273999999985,
          "velocity": 0.6614173228346457,
          "duration": 0.4137929999999983
        },
        {
          "name": "B4",
          "midi": 71,
          "time": 74.89653299999985,
          "velocity": 0.6692913385826772,
          "duration": 0.4137929999999983
        },
        {
          "name": "D5",
          "midi": 74,
          "time": 74.89653299999985,
          "velocity": 0.6692913385826772,
          "duration": 0.4137929999999983
        },
        {
          "name": "A4",
          "midi": 69,
          "time": 75.31032599999985,
          "velocity": 0.6771653543307087,
          "duration": 0.4137929999999983
        },
        {
          "name": "C5",
          "midi": 72,
          "time": 75.31032599999985,
          "velocity": 0.6771653543307087,
          "duration": 0.4137929999999983
        },
        {
          "name": "G4",
          "midi": 67,
          "time": 75.72411899999985,
          "velocity": 0.6850393700787402,
          "duration": 0.4137929999999983
        },
        {
          "name": "B4",
          "midi": 71,
          "time": 75.72411899999985,
          "velocity": 0.6850393700787402,
          "duration": 0.4137929999999983
        },
        {
          "name": "F4",
          "midi": 65,
          "time": 76.13791199999984,
          "velocity": 0.6929133858267716,
          "duration": 0.4137929999999983
        },
        {
          "name": "A4",
          "midi": 69,
          "time": 76.13791199999984,
          "velocity": 0.6929133858267716,
          "duration": 0.4137929999999983
        },
        {
          "name": "E4",
          "midi": 64,
          "time": 76.55170499999984,
          "velocity": 0.7007874015748031,
          "duration": 0.4137929999999983
        },
        {
          "name": "G4",
          "midi": 67,
          "time": 76.55170499999984,
          "velocity": 0.7007874015748031,
          "duration": 0.4137929999999983
        },
        {
          "name": "D4",
          "midi": 62,
          "time": 76.96549799999984,
          "velocity": 0.7086614173228346,
          "duration": 0.4137929999999983
        },
        {
          "name": "F4",
          "midi": 65,
          "time": 76.96549799999984,
          "velocity": 0.7086614173228346,
          "duration": 0.4137929999999983
        },
        {
          "name": "C5",
          "midi": 72,
          "time": 77.37929099999984,
          "velocity": 0.7165354330708661,
          "duration": 0.4137929999999983
        },
        {
          "name": "G4",
          "midi": 67,
          "time": 77.79308399999984,
          "velocity": 0.7244094488188977,
          "duration": 0.4137929999999983
        },
        {
          "name": "C5",
          "midi": 72,
          "time": 77.79308399999984,
          "velocity": 0.7244094488188977,
          "duration": 0.4137929999999983
        },
        {
          "name": "D4",
          "midi": 62,
          "time": 78.41377349999983,
          "velocity": 0.7244094488188977,
          "duration": 0.20689649999999915
        },
        {
          "name": "B4",
          "midi": 71,
          "time": 78.62066999999983,
          "velocity": 0.7244094488188977,
          "duration": 0.4137929999999983
        },
        {
          "name": "D5",
          "midi": 74,
          "time": 79.03446299999983,
          "velocity": 0.7244094488188977,
          "duration": 0.20689649999999915
        },
        {
          "name": "G4",
          "midi": 67,
          "time": 79.24135949999983,
          "velocity": 0.7244094488188977,
          "duration": 0.20689649999999915
        },
        {
          "name": "E5",
          "midi": 76,
          "time": 79.44825599999983,
          "velocity": 0.7244094488188977,
          "duration": 0.4137929999999983
        },
        {
          "name": "G4",
          "midi": 67,
          "time": 80.06894549999983,
          "velocity": 0.7244094488188977,
          "duration": 0.20689649999999915
        },
        {
          "name": "E5",
          "midi": 76,
          "time": 80.27584199999983,
          "velocity": 0.7244094488188977,
          "duration": 0.20689649999999915
        },
        {
          "name": "G4",
          "midi": 67,
          "time": 80.48273849999983,
          "velocity": 0.7244094488188977,
          "duration": 0.20689649999999915
        },
        {
          "name": "G4",
          "midi": 67,
          "time": 80.68963499999983,
          "velocity": 0.7244094488188977,
          "duration": 0.20689649999999915
        },
        {
          "name": "C5",
          "midi": 72,
          "time": 80.68963499999983,
          "velocity": 0.7244094488188977,
          "duration": 0.20689649999999915
        },
        {
          "name": "G4",
          "midi": 67,
          "time": 80.89653149999982,
          "velocity": 0.7244094488188977,
          "duration": 0.6206894999999975
        },
        {
          "name": "D5",
          "midi": 74,
          "time": 80.89653149999982,
          "velocity": 0.7244094488188977,
          "duration": 0.6206894999999975
        },
        {
          "name": "G4",
          "midi": 67,
          "time": 81.72411749999982,
          "velocity": 0.7244094488188977,
          "duration": 0.20689649999999915
        },
        {
          "name": "E5",
          "midi": 76,
          "time": 81.72411749999982,
          "velocity": 0.7244094488188977,
          "duration": 0.20689649999999915
        },
        {
          "name": "G4",
          "midi": 67,
          "time": 81.93101399999982,
          "velocity": 0.7244094488188977,
          "duration": 0.20689649999999915
        },
        {
          "name": "F5",
          "midi": 77,
          "time": 81.93101399999982,
          "velocity": 0.7244094488188977,
          "duration": 0.20689649999999915
        },
        {
          "name": "E5",
          "midi": 76,
          "time": 82.13791049999982,
          "velocity": 0.7244094488188977,
          "duration": 0.20689649999999915
        },
        {
          "name": "D5",
          "midi": 74,
          "time": 82.34480699999982,
          "velocity": 0.7244094488188977,
          "duration": 0.20689649999999915
        },
        {
          "name": "E4",
          "midi": 64,
          "time": 82.55170349999982,
          "velocity": 0.7244094488188977,
          "duration": 0.20689649999999915
        },
        {
          "name": "C5",
          "midi": 72,
          "time": 82.75859999999982,
          "velocity": 0.7244094488188977,
          "duration": 0.4137929999999983
        },
        {
          "name": "E4",
          "midi": 64,
          "time": 83.37928949999981,
          "velocity": 0.7244094488188977,
          "duration": 0.4137929999999983
        },
        {
          "name": "C5",
          "midi": 72,
          "time": 83.37928949999981,
          "velocity": 0.7244094488188977,
          "duration": 0.4137929999999983
        },
        {
          "name": "E4",
          "midi": 64,
          "time": 83.79308249999981,
          "velocity": 0.7244094488188977,
          "duration": 0.20689649999999915
        },
        {
          "name": "E4",
          "midi": 64,
          "time": 83.99997899999981,
          "velocity": 0.7244094488188977,
          "duration": 0.20689649999999915
        },
        {
          "name": "B4",
          "midi": 71,
          "time": 83.99997899999981,
          "velocity": 0.7244094488188977,
          "duration": 0.20689649999999915
        },
        {
          "name": "E4",
          "midi": 64,
          "time": 84.20687549999981,
          "velocity": 0.7244094488188977,
          "duration": 0.20689649999999915
        },
        {
          "name": "C5",
          "midi": 72,
          "time": 84.20687549999981,
          "velocity": 0.7244094488188977,
          "duration": 0.20689649999999915
        },
        {
          "name": "E4",
          "midi": 64,
          "time": 84.41377199999981,
          "velocity": 0.7244094488188977,
          "duration": 0.4137929999999983
        },
        {
          "name": "B4",
          "midi": 71,
          "time": 84.41377199999981,
          "velocity": 0.7244094488188977,
          "duration": 0.4137929999999983
        },
        {
          "name": "G4",
          "midi": 67,
          "time": 84.82756499999981,
          "velocity": 0.7244094488188977,
          "duration": 0.20689649999999915
        },
        {
          "name": "E4",
          "midi": 64,
          "time": 85.03446149999981,
          "velocity": 0.7244094488188977,
          "duration": 0.4137929999999983
        },
        {
          "name": "G4",
          "midi": 67,
          "time": 85.4482544999998,
          "velocity": 0.7244094488188977,
          "duration": 0.4137929999999983
        },
        {
          "name": "C4",
          "midi": 60,
          "time": 85.8620474999998,
          "velocity": 0.7244094488188977,
          "duration": 0.20689649999999915
        },
        {
          "name": "F4",
          "midi": 65,
          "time": 86.0689439999998,
          "velocity": 0.7244094488188977,
          "duration": 0.20689649999999915
        },
        {
          "name": "A4",
          "midi": 69,
          "time": 86.0689439999998,
          "velocity": 0.7244094488188977,
          "duration": 0.20689649999999915
        },
        {
          "name": "C4",
          "midi": 60,
          "time": 86.2758404999998,
          "velocity": 0.7244094488188977,
          "duration": 0.4137929999999983
        },
        {
          "name": "G4",
          "midi": 67,
          "time": 86.6896334999998,
          "velocity": 0.7244094488188977,
          "duration": 0.4137929999999983
        },
        {
          "name": "B4",
          "midi": 71,
          "time": 86.6896334999998,
          "velocity": 0.7244094488188977,
          "duration": 0.4137929999999983
        },
        {
          "name": "C4",
          "midi": 60,
          "time": 87.1034264999998,
          "velocity": 0.7244094488188977,
          "duration": 0.20689649999999915
        },
        {
          "name": "C5",
          "midi": 72,
          "time": 87.3103229999998,
          "velocity": 0.7244094488188977,
          "duration": 0.20689649999999915
        },
        {
          "name": "C4",
          "midi": 60,
          "time": 87.5172194999998,
          "velocity": 0.7244094488188977,
          "duration": 0.20689649999999915
        },
        {
          "name": "G4",
          "midi": 67,
          "time": 87.7241159999998,
          "velocity": 0.7244094488188977,
          "duration": 1.241378999999995
        },
        {
          "name": "C4",
          "midi": 60,
          "time": 89.17239149999979,
          "velocity": 0.7244094488188977,
          "duration": 0.20689649999999915
        },
        {
          "name": "F4",
          "midi": 65,
          "time": 89.37928799999979,
          "velocity": 0.7244094488188977,
          "duration": 0.20689649999999915
        },
        {
          "name": "A4",
          "midi": 69,
          "time": 89.37928799999979,
          "velocity": 0.7244094488188977,
          "duration": 0.20689649999999915
        },
        {
          "name": "C4",
          "midi": 60,
          "time": 89.58618449999979,
          "velocity": 0.7244094488188977,
          "duration": 0.4137929999999983
        },
        {
          "name": "C4",
          "midi": 60,
          "time": 89.99997749999979,
          "velocity": 0.7244094488188977,
          "duration": 0.20689649999999915
        },
        {
          "name": "F4",
          "midi": 65,
          "time": 90.20687399999979,
          "velocity": 0.7244094488188977,
          "duration": 0.20689649999999915
        },
        {
          "name": "A4",
          "midi": 69,
          "time": 90.41377049999979,
          "velocity": 0.7244094488188977,
          "duration": 0.20689649999999915
        },
        {
          "name": "C5",
          "midi": 72,
          "time": 90.62066699999978,
          "velocity": 0.7244094488188977,
          "duration": 0.20689649999999915
        },
        {
          "name": "D4",
          "midi": 62,
          "time": 90.82756349999978,
          "velocity": 0.7244094488188977,
          "duration": 0.20689649999999915
        },
        {
          "name": "C5",
          "midi": 72,
          "time": 91.03445999999978,
          "velocity": 0.7244094488188977,
          "duration": 0.20689649999999915
        },
        {
          "name": "D4",
          "midi": 62,
          "time": 91.24135649999978,
          "velocity": 0.7244094488188977,
          "duration": 0.4137929999999983
        },
        {
          "name": "D4",
          "midi": 62,
          "time": 91.65514949999978,
          "velocity": 0.7244094488188977,
          "duration": 0.4137929999999983
        },
        {
          "name": "B4",
          "midi": 71,
          "time": 91.65514949999978,
          "velocity": 0.7244094488188977,
          "duration": 0.4137929999999983
        },
        {
          "name": "C5",
          "midi": 72,
          "time": 92.06894249999978,
          "velocity": 0.7244094488188977,
          "duration": 0.20689649999999915
        },
        {
          "name": "D5",
          "midi": 74,
          "time": 92.27583899999978,
          "velocity": 0.7244094488188977,
          "duration": 0.20689649999999915
        },
        {
          "name": "G4",
          "midi": 67,
          "time": 92.48273549999978,
          "velocity": 0.7244094488188977,
          "duration": 0.20689649999999915
        },
        {
          "name": "E5",
          "midi": 76,
          "time": 92.68963199999978,
          "velocity": 0.7244094488188977,
          "duration": 0.8275859999999966
        },
        {
          "name": "G4",
          "midi": 67,
          "time": 93.51721799999977,
          "velocity": 0.7244094488188977,
          "duration": 0.20689649999999915
        },
        {
          "name": "E5",
          "midi": 76,
          "time": 93.51721799999977,
          "velocity": 0.7244094488188977,
          "duration": 0.20689649999999915
        },
        {
          "name": "G4",
          "midi": 67,
          "time": 93.72411449999977,
          "velocity": 0.7244094488188977,
          "duration": 0.20689649999999915
        },
        {
          "name": "D5",
          "midi": 74,
          "time": 93.72411449999977,
          "velocity": 0.7244094488188977,
          "duration": 0.20689649999999915
        },
        {
          "name": "G4",
          "midi": 67,
          "time": 93.93101099999977,
          "velocity": 0.7244094488188977,
          "duration": 0.20689649999999915
        },
        {
          "name": "C5",
          "midi": 72,
          "time": 93.93101099999977,
          "velocity": 0.7244094488188977,
          "duration": 0.20689649999999915
        },
        {
          "name": "G4",
          "midi": 67,
          "time": 94.13790749999977,
          "velocity": 0.7244094488188977,
          "duration": 0.4137929999999983
        },
        {
          "name": "D5",
          "midi": 74,
          "time": 94.13790749999977,
          "velocity": 0.7244094488188977,
          "duration": 0.4137929999999983
        },
        {
          "name": "G4",
          "midi": 67,
          "time": 94.55170049999977,
          "velocity": 0.7244094488188977,
          "duration": 0.4137929999999983
        },
        {
          "name": "G4",
          "midi": 67,
          "time": 94.96549349999977,
          "velocity": 0.7244094488188977,
          "duration": 0.20689649999999915
        },
        {
          "name": "E5",
          "midi": 76,
          "time": 94.96549349999977,
          "velocity": 0.7244094488188977,
          "duration": 0.20689649999999915
        },
        {
          "name": "G4",
          "midi": 67,
          "time": 95.17238999999977,
          "velocity": 0.7244094488188977,
          "duration": 0.20689649999999915
        },
        {
          "name": "F5",
          "midi": 77,
          "time": 95.17238999999977,
          "velocity": 0.7244094488188977,
          "duration": 0.20689649999999915
        },
        {
          "name": "E5",
          "midi": 76,
          "time": 95.37928649999976,
          "velocity": 0.7244094488188977,
          "duration": 0.20689649999999915
        },
        {
          "name": "D5",
          "midi": 74,
          "time": 95.58618299999976,
          "velocity": 0.7244094488188977,
          "duration": 0.20689649999999915
        },
        {
          "name": "E4",
          "midi": 64,
          "time": 95.79307949999976,
          "velocity": 0.7244094488188977,
          "duration": 0.20689649999999915
        },
        {
          "name": "D5",
          "midi": 74,
          "time": 95.99997599999976,
          "velocity": 0.7244094488188977,
          "duration": 0.4137929999999983
        },
        {
          "name": "E4",
          "midi": 64,
          "time": 96.62066549999976,
          "velocity": 0.7244094488188977,
          "duration": 0.4137929999999983
        },
        {
          "name": "C5",
          "midi": 72,
          "time": 96.62066549999976,
          "velocity": 0.7244094488188977,
          "duration": 0.4137929999999983
        },
        {
          "name": "E4",
          "midi": 64,
          "time": 97.03445849999976,
          "velocity": 0.7244094488188977,
          "duration": 0.20689649999999915
        },
        {
          "name": "E4",
          "midi": 64,
          "time": 97.24135499999976,
          "velocity": 0.7244094488188977,
          "duration": 0.20689649999999915
        },
        {
          "name": "B4",
          "midi": 71,
          "time": 97.24135499999976,
          "velocity": 0.7244094488188977,
          "duration": 0.20689649999999915
        },
        {
          "name": "E4",
          "midi": 64,
          "time": 97.44825149999976,
          "velocity": 0.7244094488188977,
          "duration": 0.20689649999999915
        },
        {
          "name": "C5",
          "midi": 72,
          "time": 97.44825149999976,
          "velocity": 0.7244094488188977,
          "duration": 0.20689649999999915
        },
        {
          "name": "E4",
          "midi": 64,
          "time": 97.65514799999976,
          "velocity": 0.7244094488188977,
          "duration": 0.4137929999999983
        },
        {
          "name": "B4",
          "midi": 71,
          "time": 97.65514799999976,
          "velocity": 0.7244094488188977,
          "duration": 0.4137929999999983
        },
        {
          "name": "G4",
          "midi": 67,
          "time": 98.06894099999975,
          "velocity": 0.7244094488188977,
          "duration": 0.20689649999999915
        },
        {
          "name": "E4",
          "midi": 64,
          "time": 98.27583749999975,
          "velocity": 0.7244094488188977,
          "duration": 0.4137929999999983
        },
        {
          "name": "G4",
          "midi": 67,
          "time": 98.68963049999975,
          "velocity": 0.7244094488188977,
          "duration": 0.4137929999999983
        },
        {
          "name": "C4",
          "midi": 60,
          "time": 99.10342349999975,
          "velocity": 0.7244094488188977,
          "duration": 0.20689649999999915
        },
        {
          "name": "G4",
          "midi": 67,
          "time": 99.31031999999975,
          "velocity": 0.7244094488188977,
          "duration": 0.20689649999999915
        },
        {
          "name": "A4",
          "midi": 69,
          "time": 99.31031999999975,
          "velocity": 0.7244094488188977,
          "duration": 0.20689649999999915
        },
        {
          "name": "C4",
          "midi": 60,
          "time": 99.51721649999975,
          "velocity": 0.7244094488188977,
          "duration": 0.4137929999999983
        },
        {
          "name": "C5",
          "midi": 72,
          "time": 99.93100949999975,
          "velocity": 0.7244094488188977,
          "duration": 0.4137929999999983
        },
        {
          "name": "A4",
          "midi": 69,
          "time": 100.34480249999974,
          "velocity": 0.7244094488188977,
          "duration": 0.20689649999999915
        },
        {
          "name": "F5",
          "midi": 77,
          "time": 100.55169899999974,
          "velocity": 0.7244094488188977,
          "duration": 0.20689649999999915
        },
        {
          "name": "G4",
          "midi": 67,
          "time": 100.75859549999974,
          "velocity": 0.7244094488188977,
          "duration": 0.20689649999999915
        },
        {
          "name": "E5",
          "midi": 76,
          "time": 100.96549199999974,
          "velocity": 0.7244094488188977,
          "duration": 0.20689649999999915
        },
        {
          "name": "G4",
          "midi": 67,
          "time": 101.17238849999974,
          "velocity": 0.7244094488188977,
          "duration": 0.20689649999999915
        },
        {
          "name": "D5",
          "midi": 74,
          "time": 101.37928499999974,
          "velocity": 0.7244094488188977,
          "duration": 0.20689649999999915
        },
        {
          "name": "C5",
          "midi": 72,
          "time": 101.58618149999974,
          "velocity": 0.7244094488188977,
          "duration": 0.8275859999999966
        },
        {
          "name": "C4",
          "midi": 60,
          "time": 102.41376749999974,
          "velocity": 0.7244094488188977,
          "duration": 0.20689649999999915
        },
        {
          "name": "F4",
          "midi": 65,
          "time": 102.62066399999973,
          "velocity": 0.7244094488188977,
          "duration": 0.20689649999999915
        },
        {
          "name": "A4",
          "midi": 69,
          "time": 102.62066399999973,
          "velocity": 0.7244094488188977,
          "duration": 0.20689649999999915
        },
        {
          "name": "C4",
          "midi": 60,
          "time": 102.82756049999973,
          "velocity": 0.7244094488188977,
          "duration": 0.4137929999999983
        },
        {
          "name": "C4",
          "midi": 60,
          "time": 103.24135349999973,
          "velocity": 0.7244094488188977,
          "duration": 0.20689649999999915
        },
        {
          "name": "F4",
          "midi": 65,
          "time": 103.44824999999973,
          "velocity": 0.7244094488188977,
          "duration": 0.20689649999999915
        },
        {
          "name": "A4",
          "midi": 69,
          "time": 103.65514649999973,
          "velocity": 0.7244094488188977,
          "duration": 0.20689649999999915
        },
        {
          "name": "C5",
          "midi": 72,
          "time": 103.86204299999973,
          "velocity": 0.7244094488188977,
          "duration": 0.20689649999999915
        },
        {
          "name": "D4",
          "midi": 62,
          "time": 104.06893949999973,
          "velocity": 0.7244094488188977,
          "duration": 0.20689649999999915
        },
        {
          "name": "B4",
          "midi": 71,
          "time": 104.27583599999973,
          "velocity": 0.7244094488188977,
          "duration": 0.20689649999999915
        },
        {
          "name": "D4",
          "midi": 62,
          "time": 104.48273249999973,
          "velocity": 0.7244094488188977,
          "duration": 0.4137929999999983
        },
        {
          "name": "C5",
          "midi": 72,
          "time": 104.89652549999973,
          "velocity": 0.7244094488188977,
          "duration": 0.4137929999999983
        },
        {
          "name": "D5",
          "midi": 74,
          "time": 105.51721499999972,
          "velocity": 0.7244094488188977,
          "duration": 0.20689649999999915
        },
        {
          "name": "C5",
          "midi": 72,
          "time": 105.72411149999972,
          "velocity": 0.7244094488188977,
          "duration": 0.20689649999999915
        },
        {
          "name": "G5",
          "midi": 79,
          "time": 105.93100799999972,
          "velocity": 0.7244094488188977,
          "duration": 0.4137929999999983
        },
        {
          "name": "E5",
          "midi": 76,
          "time": 106.34480099999972,
          "velocity": 0.7244094488188977,
          "duration": 0.20689649999999915
        },
        {
          "name": "F5",
          "midi": 77,
          "time": 106.55169749999972,
          "velocity": 0.7244094488188977,
          "duration": 0.20689649999999915
        },
        {
          "name": "G5",
          "midi": 79,
          "time": 106.75859399999972,
          "velocity": 0.7244094488188977,
          "duration": 0.4137929999999983
        },
        {
          "name": "E5",
          "midi": 76,
          "time": 107.17238699999972,
          "velocity": 0.7244094488188977,
          "duration": 0.20689649999999915
        },
        {
          "name": "F5",
          "midi": 77,
          "time": 107.37928349999972,
          "velocity": 0.7244094488188977,
          "duration": 0.20689649999999915
        },
        {
          "name": "G5",
          "midi": 79,
          "time": 107.58617999999971,
          "velocity": 0.7244094488188977,
          "duration": 0.20689649999999915
        },
        {
          "name": "G4",
          "midi": 67,
          "time": 107.79307649999971,
          "velocity": 0.7244094488188977,
          "duration": 0.20689649999999915
        },
        {
          "name": "B4",
          "midi": 71,
          "time": 107.79307649999971,
          "velocity": 0.7244094488188977,
          "duration": 0.20689649999999915
        },
        {
          "name": "A4",
          "midi": 69,
          "time": 107.99997299999971,
          "velocity": 0.7244094488188977,
          "duration": 0.20689649999999915
        },
        {
          "name": "B4",
          "midi": 71,
          "time": 108.20686949999971,
          "velocity": 0.7244094488188977,
          "duration": 0.20689649999999915
        },
        {
          "name": "C5",
          "midi": 72,
          "time": 108.41376599999971,
          "velocity": 0.7244094488188977,
          "duration": 0.20689649999999915
        },
        {
          "name": "D5",
          "midi": 74,
          "time": 108.62066249999971,
          "velocity": 0.7244094488188977,
          "duration": 0.20689649999999915
        },
        {
          "name": "E5",
          "midi": 76,
          "time": 108.82755899999971,
          "velocity": 0.7244094488188977,
          "duration": 0.20689649999999915
        },
        {
          "name": "F5",
          "midi": 77,
          "time": 109.03445549999971,
          "velocity": 0.7244094488188977,
          "duration": 0.20689649999999915
        },
        {
          "name": "E5",
          "midi": 76,
          "time": 109.24135199999971,
          "velocity": 0.7244094488188977,
          "duration": 0.4137929999999983
        },
        {
          "name": "C5",
          "midi": 72,
          "time": 109.6551449999997,
          "velocity": 0.7244094488188977,
          "duration": 0.20689649999999915
        },
        {
          "name": "D5",
          "midi": 74,
          "time": 109.8620414999997,
          "velocity": 0.7244094488188977,
          "duration": 0.20689649999999915
        },
        {
          "name": "E5",
          "midi": 76,
          "time": 110.0689379999997,
          "velocity": 0.7244094488188977,
          "duration": 0.4137929999999983
        },
        {
          "name": "E4",
          "midi": 64,
          "time": 110.4827309999997,
          "velocity": 0.7244094488188977,
          "duration": 0.20689649999999915
        },
        {
          "name": "F4",
          "midi": 65,
          "time": 110.6896274999997,
          "velocity": 0.7244094488188977,
          "duration": 0.20689649999999915
        },
        {
          "name": "G4",
          "midi": 67,
          "time": 110.8965239999997,
          "velocity": 0.7244094488188977,
          "duration": 0.20689649999999915
        },
        {
          "name": "A4",
          "midi": 69,
          "time": 111.1034204999997,
          "velocity": 0.7244094488188977,
          "duration": 0.20689649999999915
        },
        {
          "name": "G4",
          "midi": 67,
          "time": 111.3103169999997,
          "velocity": 0.7244094488188977,
          "duration": 0.20689649999999915
        },
        {
          "name": "F4",
          "midi": 65,
          "time": 111.5172134999997,
          "velocity": 0.7244094488188977,
          "duration": 0.20689649999999915
        },
        {
          "name": "G4",
          "midi": 67,
          "time": 111.7241099999997,
          "velocity": 0.7244094488188977,
          "duration": 0.20689649999999915
        },
        {
          "name": "C5",
          "midi": 72,
          "time": 111.9310064999997,
          "velocity": 0.7244094488188977,
          "duration": 0.20689649999999915
        },
        {
          "name": "B4",
          "midi": 71,
          "time": 112.1379029999997,
          "velocity": 0.7244094488188977,
          "duration": 0.20689649999999915
        },
        {
          "name": "C5",
          "midi": 72,
          "time": 112.3447994999997,
          "velocity": 0.7244094488188977,
          "duration": 0.20689649999999915
        },
        {
          "name": "A4",
          "midi": 69,
          "time": 112.5516959999997,
          "velocity": 0.7244094488188977,
          "duration": 0.4137929999999983
        },
        {
          "name": "C5",
          "midi": 72,
          "time": 112.96548899999969,
          "velocity": 0.7322834645669292,
          "duration": 0.20689649999999915
        },
        {
          "name": "B4",
          "midi": 71,
          "time": 113.17238549999969,
          "velocity": 0.7322834645669292,
          "duration": 0.20689649999999915
        },
        {
          "name": "A4",
          "midi": 69,
          "time": 113.37928199999969,
          "velocity": 0.7322834645669292,
          "duration": 0.4137929999999983
        },
        {
          "name": "G4",
          "midi": 67,
          "time": 113.79307499999969,
          "velocity": 0.7401574803149606,
          "duration": 0.20689649999999915
        },
        {
          "name": "F4",
          "midi": 65,
          "time": 113.99997149999969,
          "velocity": 0.7401574803149606,
          "duration": 0.20689649999999915
        },
        {
          "name": "G4",
          "midi": 67,
          "time": 114.20686799999969,
          "velocity": 0.7401574803149606,
          "duration": 0.20689649999999915
        },
        {
          "name": "F4",
          "midi": 65,
          "time": 114.41376449999969,
          "velocity": 0.7401574803149606,
          "duration": 0.20689649999999915
        },
        {
          "name": "E4",
          "midi": 64,
          "time": 114.62066099999969,
          "velocity": 0.7401574803149606,
          "duration": 0.20689649999999915
        },
        {
          "name": "F4",
          "midi": 65,
          "time": 114.82755749999968,
          "velocity": 0.7401574803149606,
          "duration": 0.20689649999999915
        },
        {
          "name": "G4",
          "midi": 67,
          "time": 115.03445399999968,
          "velocity": 0.7401574803149606,
          "duration": 0.20689649999999915
        },
        {
          "name": "A4",
          "midi": 69,
          "time": 115.24135049999968,
          "velocity": 0.7401574803149606,
          "duration": 0.20689649999999915
        },
        {
          "name": "B4",
          "midi": 71,
          "time": 115.44824699999968,
          "velocity": 0.7401574803149606,
          "duration": 0.20689649999999915
        },
        {
          "name": "C5",
          "midi": 72,
          "time": 115.65514349999968,
          "velocity": 0.7401574803149606,
          "duration": 0.20689649999999915
        },
        {
          "name": "A4",
          "midi": 69,
          "time": 115.86203999999968,
          "velocity": 0.7401574803149606,
          "duration": 0.4137929999999983
        },
        {
          "name": "C5",
          "midi": 72,
          "time": 116.27583299999968,
          "velocity": 0.7480314960629921,
          "duration": 0.20689649999999915
        },
        {
          "name": "B4",
          "midi": 71,
          "time": 116.48272949999968,
          "velocity": 0.7480314960629921,
          "duration": 0.20689649999999915
        },
        {
          "name": "C5",
          "midi": 72,
          "time": 116.68962599999968,
          "velocity": 0.7559055118110236,
          "duration": 0.4137929999999983
        },
        {
          "name": "B4",
          "midi": 71,
          "time": 117.10341899999968,
          "velocity": 0.7716535433070866,
          "duration": 0.20689649999999915
        },
        {
          "name": "C5",
          "midi": 72,
          "time": 117.31031549999967,
          "velocity": 0.7795275590551181,
          "duration": 0.20689649999999915
        },
        {
          "name": "B4",
          "midi": 71,
          "time": 117.51721199999967,
          "velocity": 0.7874015748031497,
          "duration": 0.20689649999999915
        },
        {
          "name": "A4",
          "midi": 69,
          "time": 117.72410849999967,
          "velocity": 0.7952755905511811,
          "duration": 0.20689649999999915
        },
        {
          "name": "B4",
          "midi": 71,
          "time": 117.93100499999967,
          "velocity": 0.8031496062992126,
          "duration": 0.20689649999999915
        },
        {
          "name": "C5",
          "midi": 72,
          "time": 118.13790149999967,
          "velocity": 0.8110236220472441,
          "duration": 0.20689649999999915
        },
        {
          "name": "D5",
          "midi": 74,
          "time": 118.34479799999967,
          "velocity": 0.8188976377952756,
          "duration": 0.20689649999999915
        },
        {
          "name": "C5",
          "midi": 72,
          "time": 118.55169449999967,
          "velocity": 0.8267716535433071,
          "duration": 0.20689649999999915
        },
        {
          "name": "E5",
          "midi": 76,
          "time": 118.55169449999967,
          "velocity": 0.8267716535433071,
          "duration": 0.20689649999999915
        },
        {
          "name": "D5",
          "midi": 74,
          "time": 118.75859099999967,
          "velocity": 0.8346456692913385,
          "duration": 0.20689649999999915
        },
        {
          "name": "F5",
          "midi": 77,
          "time": 118.75859099999967,
          "velocity": 0.8346456692913385,
          "duration": 0.20689649999999915
        },
        {
          "name": "E5",
          "midi": 76,
          "time": 118.96548749999967,
          "velocity": 0.84251968503937,
          "duration": 0.20689649999999915
        },
        {
          "name": "G5",
          "midi": 79,
          "time": 118.96548749999967,
          "velocity": 0.84251968503937,
          "duration": 0.20689649999999915
        },
        {
          "name": "E5",
          "midi": 76,
          "time": 119.17238399999967,
          "velocity": 0.8503937007874016,
          "duration": 0.4137929999999983
        },
        {
          "name": "G5",
          "midi": 79,
          "time": 119.17238399999967,
          "velocity": 0.8503937007874016,
          "duration": 0.4137929999999983
        },
        {
          "name": "C5",
          "midi": 72,
          "time": 119.58617699999967,
          "velocity": 0.8503937007874016,
          "duration": 0.20689649999999915
        },
        {
          "name": "E5",
          "midi": 76,
          "time": 119.58617699999967,
          "velocity": 0.8503937007874016,
          "duration": 0.20689649999999915
        },
        {
          "name": "D5",
          "midi": 74,
          "time": 119.79307349999966,
          "velocity": 0.8503937007874016,
          "duration": 0.20689649999999915
        },
        {
          "name": "F5",
          "midi": 77,
          "time": 119.79307349999966,
          "velocity": 0.8503937007874016,
          "duration": 0.20689649999999915
        },
        {
          "name": "E5",
          "midi": 76,
          "time": 119.99996999999966,
          "velocity": 0.8503937007874016,
          "duration": 0.4137929999999983
        },
        {
          "name": "G5",
          "midi": 79,
          "time": 119.99996999999966,
          "velocity": 0.8503937007874016,
          "duration": 0.4137929999999983
        },
        {
          "name": "C5",
          "midi": 72,
          "time": 120.41376299999966,
          "velocity": 0.8503937007874016,
          "duration": 0.20689649999999915
        },
        {
          "name": "E5",
          "midi": 76,
          "time": 120.41376299999966,
          "velocity": 0.8503937007874016,
          "duration": 0.20689649999999915
        },
        {
          "name": "D5",
          "midi": 74,
          "time": 120.62065949999966,
          "velocity": 0.8503937007874016,
          "duration": 0.20689649999999915
        },
        {
          "name": "F5",
          "midi": 77,
          "time": 120.62065949999966,
          "velocity": 0.8503937007874016,
          "duration": 0.20689649999999915
        },
        {
          "name": "E5",
          "midi": 76,
          "time": 120.82755599999966,
          "velocity": 0.8503937007874016,
          "duration": 0.20689649999999915
        },
        {
          "name": "G5",
          "midi": 79,
          "time": 120.82755599999966,
          "velocity": 0.8503937007874016,
          "duration": 0.20689649999999915
        },
        {
          "name": "G4",
          "midi": 67,
          "time": 121.03445249999966,
          "velocity": 0.8503937007874016,
          "duration": 0.20689649999999915
        },
        {
          "name": "B4",
          "midi": 71,
          "time": 121.03445249999966,
          "velocity": 0.8503937007874016,
          "duration": 0.20689649999999915
        },
        {
          "name": "A4",
          "midi": 69,
          "time": 121.24134899999966,
          "velocity": 0.8503937007874016,
          "duration": 0.20689649999999915
        },
        {
          "name": "B4",
          "midi": 71,
          "time": 121.44824549999966,
          "velocity": 0.8503937007874016,
          "duration": 0.20689649999999915
        },
        {
          "name": "C5",
          "midi": 72,
          "time": 121.65514199999966,
          "velocity": 0.8503937007874016,
          "duration": 0.20689649999999915
        },
        {
          "name": "D5",
          "midi": 74,
          "time": 121.86203849999966,
          "velocity": 0.8503937007874016,
          "duration": 0.20689649999999915
        },
        {
          "name": "E5",
          "midi": 76,
          "time": 122.06893499999966,
          "velocity": 0.8503937007874016,
          "duration": 0.20689649999999915
        },
        {
          "name": "F5",
          "midi": 77,
          "time": 122.27583149999965,
          "velocity": 0.8503937007874016,
          "duration": 0.20689649999999915
        },
        {
          "name": "C5",
          "midi": 72,
          "time": 122.48272799999965,
          "velocity": 0.8503937007874016,
          "duration": 0.4137929999999983
        },
        {
          "name": "E5",
          "midi": 76,
          "time": 122.48272799999965,
          "velocity": 0.8503937007874016,
          "duration": 0.4137929999999983
        },
        {
          "name": "A4",
          "midi": 69,
          "time": 122.89652099999965,
          "velocity": 0.8503937007874016,
          "duration": 0.20689649999999915
        },
        {
          "name": "C5",
          "midi": 72,
          "time": 122.89652099999965,
          "velocity": 0.8503937007874016,
          "duration": 0.20689649999999915
        },
        {
          "name": "B4",
          "midi": 71,
          "time": 123.10341749999965,
          "velocity": 0.8503937007874016,
          "duration": 0.20689649999999915
        },
        {
          "name": "D5",
          "midi": 74,
          "time": 123.10341749999965,
          "velocity": 0.8503937007874016,
          "duration": 0.20689649999999915
        },
        {
          "name": "C5",
          "midi": 72,
          "time": 123.31031399999965,
          "velocity": 0.8503937007874016,
          "duration": 0.4137929999999983
        },
        {
          "name": "E5",
          "midi": 76,
          "time": 123.31031399999965,
          "velocity": 0.8503937007874016,
          "duration": 0.4137929999999983
        },
        {
          "name": "E4",
          "midi": 64,
          "time": 123.72410699999965,
          "velocity": 0.8503937007874016,
          "duration": 0.20689649999999915
        },
        {
          "name": "F4",
          "midi": 65,
          "time": 123.93100349999965,
          "velocity": 0.8503937007874016,
          "duration": 0.20689649999999915
        },
        {
          "name": "G4",
          "midi": 67,
          "time": 124.13789999999965,
          "velocity": 0.8503937007874016,
          "duration": 0.20689649999999915
        },
        {
          "name": "A4",
          "midi": 69,
          "time": 124.34479649999965,
          "velocity": 0.8503937007874016,
          "duration": 0.20689649999999915
        },
        {
          "name": "G4",
          "midi": 67,
          "time": 124.55169299999964,
          "velocity": 0.8503937007874016,
          "duration": 0.20689649999999915
        },
        {
          "name": "F4",
          "midi": 65,
          "time": 124.75858949999964,
          "velocity": 0.8503937007874016,
          "duration": 0.20689649999999915
        },
        {
          "name": "G4",
          "midi": 67,
          "time": 124.96548599999964,
          "velocity": 0.8503937007874016,
          "duration": 0.20689649999999915
        },
        {
          "name": "C5",
          "midi": 72,
          "time": 125.17238249999964,
          "velocity": 0.8503937007874016,
          "duration": 0.20689649999999915
        },
        {
          "name": "B4",
          "midi": 71,
          "time": 125.37927899999964,
          "velocity": 0.8503937007874016,
          "duration": 0.20689649999999915
        },
        {
          "name": "C5",
          "midi": 72,
          "time": 125.58617549999964,
          "velocity": 0.8503937007874016,
          "duration": 0.20689649999999915
        },
        {
          "name": "F4",
          "midi": 65,
          "time": 125.79307199999964,
          "velocity": 0.8503937007874016,
          "duration": 0.4137929999999983
        },
        {
          "name": "A4",
          "midi": 69,
          "time": 125.79307199999964,
          "velocity": 0.8503937007874016,
          "duration": 0.4137929999999983
        },
        {
          "name": "A4",
          "midi": 69,
          "time": 126.20686499999964,
          "velocity": 0.8503937007874016,
          "duration": 0.20689649999999915
        },
        {
          "name": "C5",
          "midi": 72,
          "time": 126.20686499999964,
          "velocity": 0.8503937007874016,
          "duration": 0.20689649999999915
        },
        {
          "name": "G4",
          "midi": 67,
          "time": 126.41376149999964,
          "velocity": 0.8503937007874016,
          "duration": 0.20689649999999915
        },
        {
          "name": "B4",
          "midi": 71,
          "time": 126.41376149999964,
          "velocity": 0.8503937007874016,
          "duration": 0.20689649999999915
        },
        {
          "name": "F4",
          "midi": 65,
          "time": 126.62065799999964,
          "velocity": 0.8503937007874016,
          "duration": 0.4137929999999983
        },
        {
          "name": "A4",
          "midi": 69,
          "time": 126.62065799999964,
          "velocity": 0.8503937007874016,
          "duration": 0.4137929999999983
        },
        {
          "name": "E4",
          "midi": 64,
          "time": 127.03445099999963,
          "velocity": 0.8503937007874016,
          "duration": 0.20689649999999915
        },
        {
          "name": "G4",
          "midi": 67,
          "time": 127.03445099999963,
          "velocity": 0.8503937007874016,
          "duration": 0.20689649999999915
        },
        {
          "name": "D4",
          "midi": 62,
          "time": 127.24134749999963,
          "velocity": 0.8503937007874016,
          "duration": 0.20689649999999915
        },
        {
          "name": "F4",
          "midi": 65,
          "time": 127.24134749999963,
          "velocity": 0.8503937007874016,
          "duration": 0.20689649999999915
        },
        {
          "name": "E4",
          "midi": 64,
          "time": 127.44824399999963,
          "velocity": 0.8503937007874016,
          "duration": 0.20689649999999915
        },
        {
          "name": "G4",
          "midi": 67,
          "time": 127.44824399999963,
          "velocity": 0.8503937007874016,
          "duration": 0.20689649999999915
        },
        {
          "name": "D4",
          "midi": 62,
          "time": 127.65514049999963,
          "velocity": 0.8503937007874016,
          "duration": 0.20689649999999915
        },
        {
          "name": "F4",
          "midi": 65,
          "time": 127.65514049999963,
          "velocity": 0.8503937007874016,
          "duration": 0.20689649999999915
        },
        {
          "name": "C4",
          "midi": 60,
          "time": 127.86203699999963,
          "velocity": 0.8503937007874016,
          "duration": 0.20689650000001336
        },
        {
          "name": "E4",
          "midi": 64,
          "time": 127.86203699999963,
          "velocity": 0.8503937007874016,
          "duration": 0.20689650000001336
        },
        {
          "name": "D4",
          "midi": 62,
          "time": 128.06893349999964,
          "velocity": 0.8503937007874016,
          "duration": 0.20689649999999915
        },
        {
          "name": "F4",
          "midi": 65,
          "time": 128.06893349999964,
          "velocity": 0.8503937007874016,
          "duration": 0.20689649999999915
        },
        {
          "name": "E4",
          "midi": 64,
          "time": 128.27582999999964,
          "velocity": 0.8503937007874016,
          "duration": 0.20689649999999915
        },
        {
          "name": "G4",
          "midi": 67,
          "time": 128.27582999999964,
          "velocity": 0.8503937007874016,
          "duration": 0.20689649999999915
        },
        {
          "name": "F4",
          "midi": 65,
          "time": 128.48272649999964,
          "velocity": 0.8503937007874016,
          "duration": 0.20689649999999915
        },
        {
          "name": "A4",
          "midi": 69,
          "time": 128.48272649999964,
          "velocity": 0.8503937007874016,
          "duration": 0.20689649999999915
        },
        {
          "name": "G4",
          "midi": 67,
          "time": 128.68962299999964,
          "velocity": 0.8503937007874016,
          "duration": 0.20689649999999915
        },
        {
          "name": "B4",
          "midi": 71,
          "time": 128.68962299999964,
          "velocity": 0.8503937007874016,
          "duration": 0.20689649999999915
        },
        {
          "name": "A4",
          "midi": 69,
          "time": 128.89651949999964,
          "velocity": 0.8503937007874016,
          "duration": 0.20689649999999915
        },
        {
          "name": "C5",
          "midi": 72,
          "time": 128.89651949999964,
          "velocity": 0.8503937007874016,
          "duration": 0.20689649999999915
        },
        {
          "name": "F4",
          "midi": 65,
          "time": 129.10341599999964,
          "velocity": 0.8503937007874016,
          "duration": 0.4137929999999983
        },
        {
          "name": "A4",
          "midi": 69,
          "time": 129.10341599999964,
          "velocity": 0.8503937007874016,
          "duration": 0.4137929999999983
        },
        {
          "name": "A4",
          "midi": 69,
          "time": 129.51720899999964,
          "velocity": 0.8503937007874016,
          "duration": 0.20689649999999915
        },
        {
          "name": "C5",
          "midi": 72,
          "time": 129.51720899999964,
          "velocity": 0.8503937007874016,
          "duration": 0.20689649999999915
        },
        {
          "name": "G4",
          "midi": 67,
          "time": 129.72410549999964,
          "velocity": 0.8503937007874016,
          "duration": 0.20689649999999915
        },
        {
          "name": "B4",
          "midi": 71,
          "time": 129.72410549999964,
          "velocity": 0.8503937007874016,
          "duration": 0.20689649999999915
        },
        {
          "name": "A4",
          "midi": 69,
          "time": 129.93100199999964,
          "velocity": 0.8503937007874016,
          "duration": 0.4137929999999983
        },
        {
          "name": "C5",
          "midi": 72,
          "time": 129.93100199999964,
          "velocity": 0.8503937007874016,
          "duration": 0.4137929999999983
        },
        {
          "name": "G4",
          "midi": 67,
          "time": 130.34479499999964,
          "velocity": 0.8503937007874016,
          "duration": 0.20689649999999915
        },
        {
          "name": "B4",
          "midi": 71,
          "time": 130.34479499999964,
          "velocity": 0.8503937007874016,
          "duration": 0.20689649999999915
        },
        {
          "name": "A4",
          "midi": 69,
          "time": 130.55169149999963,
          "velocity": 0.8503937007874016,
          "duration": 0.20689649999999915
        },
        {
          "name": "C5",
          "midi": 72,
          "time": 130.55169149999963,
          "velocity": 0.8503937007874016,
          "duration": 0.20689649999999915
        },
        {
          "name": "G4",
          "midi": 67,
          "time": 130.75858799999963,
          "velocity": 0.8503937007874016,
          "duration": 0.20689649999999915
        },
        {
          "name": "B4",
          "midi": 71,
          "time": 130.75858799999963,
          "velocity": 0.8503937007874016,
          "duration": 0.20689649999999915
        },
        {
          "name": "F4",
          "midi": 65,
          "time": 130.96548449999963,
          "velocity": 0.8503937007874016,
          "duration": 0.20689649999999915
        },
        {
          "name": "A4",
          "midi": 69,
          "time": 130.96548449999963,
          "velocity": 0.8503937007874016,
          "duration": 0.20689649999999915
        },
        {
          "name": "G4",
          "midi": 67,
          "time": 131.17238099999963,
          "velocity": 0.8503937007874016,
          "duration": 0.20689649999999915
        },
        {
          "name": "B4",
          "midi": 71,
          "time": 131.17238099999963,
          "velocity": 0.8503937007874016,
          "duration": 0.20689649999999915
        },
        {
          "name": "A4",
          "midi": 69,
          "time": 131.37927749999963,
          "velocity": 0.8503937007874016,
          "duration": 0.20689649999999915
        },
        {
          "name": "C5",
          "midi": 72,
          "time": 131.37927749999963,
          "velocity": 0.8503937007874016,
          "duration": 0.20689649999999915
        },
        {
          "name": "B4",
          "midi": 71,
          "time": 131.58617399999963,
          "velocity": 0.8503937007874016,
          "duration": 0.20689649999999915
        },
        {
          "name": "D5",
          "midi": 74,
          "time": 131.58617399999963,
          "velocity": 0.8503937007874016,
          "duration": 0.20689649999999915
        },
        {
          "name": "C5",
          "midi": 72,
          "time": 131.79307049999963,
          "velocity": 0.8503937007874016,
          "duration": 0.20689649999999915
        },
        {
          "name": "E5",
          "midi": 76,
          "time": 131.79307049999963,
          "velocity": 0.8503937007874016,
          "duration": 0.20689649999999915
        },
        {
          "name": "D5",
          "midi": 74,
          "time": 131.99996699999963,
          "velocity": 0.8503937007874016,
          "duration": 0.20689649999999915
        },
        {
          "name": "F5",
          "midi": 77,
          "time": 131.99996699999963,
          "velocity": 0.8503937007874016,
          "duration": 0.20689649999999915
        },
        {
          "name": "E5",
          "midi": 76,
          "time": 132.20686349999963,
          "velocity": 0.8503937007874016,
          "duration": 0.20689649999999915
        },
        {
          "name": "G5",
          "midi": 79,
          "time": 132.20686349999963,
          "velocity": 0.8503937007874016,
          "duration": 0.20689649999999915
        },
        {
          "name": "E5",
          "midi": 76,
          "time": 132.41375999999963,
          "velocity": 0.8503937007874016,
          "duration": 0.4137929999999983
        },
        {
          "name": "G5",
          "midi": 79,
          "time": 132.41375999999963,
          "velocity": 0.8503937007874016,
          "duration": 0.4137929999999983
        },
        {
          "name": "C5",
          "midi": 72,
          "time": 132.82755299999963,
          "velocity": 0.8503937007874016,
          "duration": 0.20689649999999915
        },
        {
          "name": "E5",
          "midi": 76,
          "time": 132.82755299999963,
          "velocity": 0.8503937007874016,
          "duration": 0.20689649999999915
        },
        {
          "name": "D5",
          "midi": 74,
          "time": 133.03444949999962,
          "velocity": 0.8503937007874016,
          "duration": 0.20689649999999915
        },
        {
          "name": "F5",
          "midi": 77,
          "time": 133.03444949999962,
          "velocity": 0.8503937007874016,
          "duration": 0.20689649999999915
        },
        {
          "name": "E5",
          "midi": 76,
          "time": 133.24134599999962,
          "velocity": 0.8503937007874016,
          "duration": 0.4137929999999983
        },
        {
          "name": "G5",
          "midi": 79,
          "time": 133.24134599999962,
          "velocity": 0.8503937007874016,
          "duration": 0.4137929999999983
        },
        {
          "name": "C5",
          "midi": 72,
          "time": 133.65513899999962,
          "velocity": 0.8503937007874016,
          "duration": 0.20689649999999915
        },
        {
          "name": "E5",
          "midi": 76,
          "time": 133.65513899999962,
          "velocity": 0.8503937007874016,
          "duration": 0.20689649999999915
        },
        {
          "name": "D5",
          "midi": 74,
          "time": 133.86203549999962,
          "velocity": 0.8503937007874016,
          "duration": 0.20689649999999915
        },
        {
          "name": "F5",
          "midi": 77,
          "time": 133.86203549999962,
          "velocity": 0.8503937007874016,
          "duration": 0.20689649999999915
        },
        {
          "name": "E5",
          "midi": 76,
          "time": 134.06893199999962,
          "velocity": 0.8503937007874016,
          "duration": 0.20689649999999915
        },
        {
          "name": "G5",
          "midi": 79,
          "time": 134.06893199999962,
          "velocity": 0.8503937007874016,
          "duration": 0.20689649999999915
        },
        {
          "name": "G4",
          "midi": 67,
          "time": 134.27582849999962,
          "velocity": 0.8503937007874016,
          "duration": 0.20689649999999915
        },
        {
          "name": "B4",
          "midi": 71,
          "time": 134.27582849999962,
          "velocity": 0.8503937007874016,
          "duration": 0.20689649999999915
        },
        {
          "name": "A4",
          "midi": 69,
          "time": 134.48272499999962,
          "velocity": 0.8503937007874016,
          "duration": 0.20689649999999915
        },
        {
          "name": "B4",
          "midi": 71,
          "time": 134.68962149999962,
          "velocity": 0.8503937007874016,
          "duration": 0.20689649999999915
        },
        {
          "name": "C5",
          "midi": 72,
          "time": 134.89651799999962,
          "velocity": 0.8503937007874016,
          "duration": 0.20689649999999915
        },
        {
          "name": "D5",
          "midi": 74,
          "time": 135.10341449999962,
          "velocity": 0.8503937007874016,
          "duration": 0.20689649999999915
        },
        {
          "name": "E5",
          "midi": 76,
          "time": 135.31031099999961,
          "velocity": 0.8503937007874016,
          "duration": 0.20689649999999915
        },
        {
          "name": "F5",
          "midi": 77,
          "time": 135.5172074999996,
          "velocity": 0.8503937007874016,
          "duration": 0.20689649999999915
        },
        {
          "name": "C5",
          "midi": 72,
          "time": 135.7241039999996,
          "velocity": 0.8503937007874016,
          "duration": 0.4137929999999983
        },
        {
          "name": "E5",
          "midi": 76,
          "time": 135.7241039999996,
          "velocity": 0.8503937007874016,
          "duration": 0.4137929999999983
        },
        {
          "name": "A4",
          "midi": 69,
          "time": 136.1378969999996,
          "velocity": 0.8503937007874016,
          "duration": 0.20689649999999915
        },
        {
          "name": "C5",
          "midi": 72,
          "time": 136.1378969999996,
          "velocity": 0.8503937007874016,
          "duration": 0.20689649999999915
        },
        {
          "name": "B4",
          "midi": 71,
          "time": 136.3447934999996,
          "velocity": 0.8503937007874016,
          "duration": 0.20689649999999915
        },
        {
          "name": "D5",
          "midi": 74,
          "time": 136.3447934999996,
          "velocity": 0.8503937007874016,
          "duration": 0.20689649999999915
        },
        {
          "name": "C5",
          "midi": 72,
          "time": 136.5516899999996,
          "velocity": 0.8503937007874016,
          "duration": 0.4137929999999983
        },
        {
          "name": "E5",
          "midi": 76,
          "time": 136.5516899999996,
          "velocity": 0.8503937007874016,
          "duration": 0.4137929999999983
        },
        {
          "name": "E4",
          "midi": 64,
          "time": 136.9654829999996,
          "velocity": 0.8503937007874016,
          "duration": 0.20689649999999915
        },
        {
          "name": "F4",
          "midi": 65,
          "time": 137.1723794999996,
          "velocity": 0.8503937007874016,
          "duration": 0.20689649999999915
        },
        {
          "name": "G4",
          "midi": 67,
          "time": 137.3792759999996,
          "velocity": 0.8503937007874016,
          "duration": 0.20689649999999915
        },
        {
          "name": "A4",
          "midi": 69,
          "time": 137.5861724999996,
          "velocity": 0.8503937007874016,
          "duration": 0.20689649999999915
        },
        {
          "name": "G4",
          "midi": 67,
          "time": 137.7930689999996,
          "velocity": 0.8503937007874016,
          "duration": 0.20689649999999915
        },
        {
          "name": "F4",
          "midi": 65,
          "time": 137.9999654999996,
          "velocity": 0.8503937007874016,
          "duration": 0.20689649999999915
        },
        {
          "name": "G4",
          "midi": 67,
          "time": 138.2068619999996,
          "velocity": 0.8503937007874016,
          "duration": 0.20689649999999915
        },
        {
          "name": "A4",
          "midi": 69,
          "time": 138.4137584999996,
          "velocity": 0.8503937007874016,
          "duration": 0.20689649999999915
        },
        {
          "name": "C5",
          "midi": 72,
          "time": 138.4137584999996,
          "velocity": 0.8503937007874016,
          "duration": 0.20689649999999915
        },
        {
          "name": "G4",
          "midi": 67,
          "time": 138.6206549999996,
          "velocity": 0.8503937007874016,
          "duration": 0.20689649999999915
        },
        {
          "name": "B4",
          "midi": 71,
          "time": 138.6206549999996,
          "velocity": 0.8503937007874016,
          "duration": 0.20689649999999915
        },
        {
          "name": "A4",
          "midi": 69,
          "time": 138.8275514999996,
          "velocity": 0.8503937007874016,
          "duration": 0.20689649999999915
        },
        {
          "name": "C5",
          "midi": 72,
          "time": 138.8275514999996,
          "velocity": 0.8503937007874016,
          "duration": 0.20689649999999915
        },
        {
          "name": "F4",
          "midi": 65,
          "time": 139.0344479999996,
          "velocity": 0.8503937007874016,
          "duration": 0.4137929999999983
        },
        {
          "name": "A4",
          "midi": 69,
          "time": 139.0344479999996,
          "velocity": 0.8503937007874016,
          "duration": 0.4137929999999983
        },
        {
          "name": "A4",
          "midi": 69,
          "time": 139.4482409999996,
          "velocity": 0.8503937007874016,
          "duration": 0.20689649999999915
        },
        {
          "name": "C5",
          "midi": 72,
          "time": 139.4482409999996,
          "velocity": 0.8503937007874016,
          "duration": 0.20689649999999915
        },
        {
          "name": "G4",
          "midi": 67,
          "time": 139.6551374999996,
          "velocity": 0.8503937007874016,
          "duration": 0.20689649999999915
        },
        {
          "name": "B4",
          "midi": 71,
          "time": 139.6551374999996,
          "velocity": 0.8503937007874016,
          "duration": 0.20689649999999915
        },
        {
          "name": "F4",
          "midi": 65,
          "time": 139.8620339999996,
          "velocity": 0.8503937007874016,
          "duration": 0.4137929999999983
        },
        {
          "name": "A4",
          "midi": 69,
          "time": 139.8620339999996,
          "velocity": 0.8503937007874016,
          "duration": 0.4137929999999983
        },
        {
          "name": "E4",
          "midi": 64,
          "time": 140.2758269999996,
          "velocity": 0.8503937007874016,
          "duration": 0.20689649999999915
        },
        {
          "name": "G4",
          "midi": 67,
          "time": 140.2758269999996,
          "velocity": 0.8503937007874016,
          "duration": 0.20689649999999915
        },
        {
          "name": "D4",
          "midi": 62,
          "time": 140.4827234999996,
          "velocity": 0.8503937007874016,
          "duration": 0.20689649999999915
        },
        {
          "name": "F4",
          "midi": 65,
          "time": 140.4827234999996,
          "velocity": 0.8503937007874016,
          "duration": 0.20689649999999915
        },
        {
          "name": "E4",
          "midi": 64,
          "time": 140.6896199999996,
          "velocity": 0.8503937007874016,
          "duration": 0.20689649999999915
        },
        {
          "name": "G4",
          "midi": 67,
          "time": 140.6896199999996,
          "velocity": 0.8503937007874016,
          "duration": 0.20689649999999915
        },
        {
          "name": "D4",
          "midi": 62,
          "time": 140.8965164999996,
          "velocity": 0.8503937007874016,
          "duration": 0.20689649999999915
        },
        {
          "name": "F4",
          "midi": 65,
          "time": 140.8965164999996,
          "velocity": 0.8503937007874016,
          "duration": 0.20689649999999915
        },
        {
          "name": "C4",
          "midi": 60,
          "time": 141.1034129999996,
          "velocity": 0.8503937007874016,
          "duration": 0.20689649999999915
        },
        {
          "name": "E4",
          "midi": 64,
          "time": 141.1034129999996,
          "velocity": 0.8503937007874016,
          "duration": 0.20689649999999915
        },
        {
          "name": "D4",
          "midi": 62,
          "time": 141.3103094999996,
          "velocity": 0.8503937007874016,
          "duration": 0.20689649999999915
        },
        {
          "name": "F4",
          "midi": 65,
          "time": 141.3103094999996,
          "velocity": 0.8503937007874016,
          "duration": 0.20689649999999915
        },
        {
          "name": "E4",
          "midi": 64,
          "time": 141.5172059999996,
          "velocity": 0.8503937007874016,
          "duration": 0.20689649999999915
        },
        {
          "name": "G4",
          "midi": 67,
          "time": 141.5172059999996,
          "velocity": 0.8503937007874016,
          "duration": 0.20689649999999915
        },
        {
          "name": "F4",
          "midi": 65,
          "time": 141.7241024999996,
          "velocity": 0.8503937007874016,
          "duration": 0.20689649999999915
        },
        {
          "name": "A4",
          "midi": 69,
          "time": 141.7241024999996,
          "velocity": 0.8503937007874016,
          "duration": 0.20689649999999915
        },
        {
          "name": "G4",
          "midi": 67,
          "time": 141.9309989999996,
          "velocity": 0.8503937007874016,
          "duration": 0.20689649999999915
        },
        {
          "name": "B4",
          "midi": 71,
          "time": 141.9309989999996,
          "velocity": 0.8503937007874016,
          "duration": 0.20689649999999915
        },
        {
          "name": "A4",
          "midi": 69,
          "time": 142.1378954999996,
          "velocity": 0.8503937007874016,
          "duration": 0.20689649999999915
        },
        {
          "name": "C5",
          "midi": 72,
          "time": 142.1378954999996,
          "velocity": 0.8503937007874016,
          "duration": 0.20689649999999915
        },
        {
          "name": "F4",
          "midi": 65,
          "time": 142.3447919999996,
          "velocity": 0.8503937007874016,
          "duration": 0.4137929999999983
        },
        {
          "name": "A4",
          "midi": 69,
          "time": 142.3447919999996,
          "velocity": 0.8503937007874016,
          "duration": 0.4137929999999983
        },
        {
          "name": "A4",
          "midi": 69,
          "time": 142.75858499999958,
          "velocity": 0.8503937007874016,
          "duration": 0.20689649999999915
        },
        {
          "name": "C5",
          "midi": 72,
          "time": 142.75858499999958,
          "velocity": 0.8503937007874016,
          "duration": 0.20689649999999915
        },
        {
          "name": "G4",
          "midi": 67,
          "time": 142.96548149999958,
          "velocity": 0.8503937007874016,
          "duration": 0.20689649999999915
        },
        {
          "name": "B4",
          "midi": 71,
          "time": 142.96548149999958,
          "velocity": 0.8503937007874016,
          "duration": 0.20689649999999915
        },
        {
          "name": "A4",
          "midi": 69,
          "time": 143.17237799999958,
          "velocity": 0.8503937007874016,
          "duration": 0.4137929999999983
        },
        {
          "name": "C5",
          "midi": 72,
          "time": 143.17237799999958,
          "velocity": 0.8503937007874016,
          "duration": 0.4137929999999983
        },
        {
          "name": "G4",
          "midi": 67,
          "time": 143.58617099999958,
          "velocity": 0.8503937007874016,
          "duration": 0.20689649999999915
        },
        {
          "name": "B4",
          "midi": 71,
          "time": 143.58617099999958,
          "velocity": 0.8503937007874016,
          "duration": 0.20689649999999915
        },
        {
          "name": "A4",
          "midi": 69,
          "time": 143.79306749999958,
          "velocity": 0.8503937007874016,
          "duration": 0.20689649999999915
        },
        {
          "name": "C5",
          "midi": 72,
          "time": 143.79306749999958,
          "velocity": 0.8503937007874016,
          "duration": 0.20689649999999915
        },
        {
          "name": "G4",
          "midi": 67,
          "time": 143.99996399999958,
          "velocity": 0.8503937007874016,
          "duration": 0.20689649999999915
        },
        {
          "name": "B4",
          "midi": 71,
          "time": 143.99996399999958,
          "velocity": 0.8503937007874016,
          "duration": 0.20689649999999915
        },
        {
          "name": "A4",
          "midi": 69,
          "time": 144.20686049999958,
          "velocity": 0.8188976377952756,
          "duration": 0.20689649999999915
        },
        {
          "name": "B4",
          "midi": 71,
          "time": 144.41375699999958,
          "velocity": 0.7874015748031497,
          "duration": 0.20689649999999915
        },
        {
          "name": "C5",
          "midi": 72,
          "time": 144.62065349999958,
          "velocity": 0.7559055118110236,
          "duration": 0.20689649999999915
        },
        {
          "name": "D5",
          "midi": 74,
          "time": 144.82754999999958,
          "velocity": 0.7244094488188977,
          "duration": 0.20689649999999915
        },
        {
          "name": "E5",
          "midi": 76,
          "time": 145.03444649999958,
          "velocity": 0.6929133858267716,
          "duration": 0.20689649999999915
        },
        {
          "name": "F5",
          "midi": 77,
          "time": 145.24134299999957,
          "velocity": 0.6614173228346457,
          "duration": 0.20689649999999915
        },
        {
          "name": "G5",
          "midi": 79,
          "time": 145.44823949999957,
          "velocity": 0.6299212598425197,
          "duration": 0.20689649999999915
        },
        {
          "name": "E5",
          "midi": 76,
          "time": 145.65513599999957,
          "velocity": 0.5905511811023622,
          "duration": 0.4137929999999983
        },
        {
          "name": "C5",
          "midi": 72,
          "time": 146.06892899999957,
          "velocity": 0.5905511811023622,
          "duration": 0.20689649999999915
        },
        {
          "name": "D5",
          "midi": 74,
          "time": 146.27582549999957,
          "velocity": 0.5905511811023622,
          "duration": 0.20689649999999915
        },
        {
          "name": "E5",
          "midi": 76,
          "time": 146.48272199999957,
          "velocity": 0.5905511811023622,
          "duration": 0.4137929999999983
        },
        {
          "name": "D5",
          "midi": 74,
          "time": 146.89651499999957,
          "velocity": 0.5905511811023622,
          "duration": 0.20689649999999915
        },
        {
          "name": "C5",
          "midi": 72,
          "time": 147.10341149999957,
          "velocity": 0.5905511811023622,
          "duration": 0.20689649999999915
        },
        {
          "name": "D5",
          "midi": 74,
          "time": 147.31030799999957,
          "velocity": 0.5905511811023622,
          "duration": 0.20689649999999915
        },
        {
          "name": "B4",
          "midi": 71,
          "time": 147.51720449999956,
          "velocity": 0.5905511811023622,
          "duration": 0.20689649999999915
        },
        {
          "name": "C5",
          "midi": 72,
          "time": 147.72410099999956,
          "velocity": 0.5905511811023622,
          "duration": 0.20689649999999915
        },
        {
          "name": "D5",
          "midi": 74,
          "time": 147.93099749999956,
          "velocity": 0.5905511811023622,
          "duration": 0.20689649999999915
        },
        {
          "name": "E5",
          "midi": 76,
          "time": 148.13789399999956,
          "velocity": 0.5905511811023622,
          "duration": 0.20689649999999915
        },
        {
          "name": "D5",
          "midi": 74,
          "time": 148.34479049999956,
          "velocity": 0.5905511811023622,
          "duration": 0.20689649999999915
        },
        {
          "name": "C5",
          "midi": 72,
          "time": 148.55168699999956,
          "velocity": 0.5905511811023622,
          "duration": 0.20689649999999915
        },
        {
          "name": "B4",
          "midi": 71,
          "time": 148.75858349999956,
          "velocity": 0.5905511811023622,
          "duration": 0.20689649999999915
        },
        {
          "name": "C5",
          "midi": 72,
          "time": 148.96547999999956,
          "velocity": 0.5905511811023622,
          "duration": 0.4137929999999983
        },
        {
          "name": "A4",
          "midi": 69,
          "time": 149.37927299999956,
          "velocity": 0.5905511811023622,
          "duration": 0.20689649999999915
        },
        {
          "name": "B4",
          "midi": 71,
          "time": 149.58616949999956,
          "velocity": 0.5905511811023622,
          "duration": 0.20689649999999915
        },
        {
          "name": "C5",
          "midi": 72,
          "time": 149.79306599999956,
          "velocity": 0.5905511811023622,
          "duration": 0.4137929999999983
        },
        {
          "name": "D4",
          "midi": 62,
          "time": 150.41375549999955,
          "velocity": 0.5905511811023622,
          "duration": 0.20689649999999915
        },
        {
          "name": "E4",
          "midi": 64,
          "time": 150.62065199999955,
          "velocity": 0.5905511811023622,
          "duration": 0.20689649999999915
        },
        {
          "name": "F4",
          "midi": 65,
          "time": 150.82754849999955,
          "velocity": 0.5905511811023622,
          "duration": 0.20689649999999915
        },
        {
          "name": "E4",
          "midi": 64,
          "time": 151.03444499999955,
          "velocity": 0.5905511811023622,
          "duration": 0.20689649999999915
        },
        {
          "name": "D4",
          "midi": 62,
          "time": 151.24134149999955,
          "velocity": 0.5905511811023622,
          "duration": 0.20689649999999915
        },
        {
          "name": "E4",
          "midi": 64,
          "time": 151.44823799999955,
          "velocity": 0.5905511811023622,
          "duration": 0.20689649999999915
        },
        {
          "name": "C5",
          "midi": 72,
          "time": 151.65513449999955,
          "velocity": 0.5905511811023622,
          "duration": 0.20689649999999915
        },
        {
          "name": "B4",
          "midi": 71,
          "time": 151.86203099999955,
          "velocity": 0.5905511811023622,
          "duration": 0.20689649999999915
        },
        {
          "name": "C5",
          "midi": 72,
          "time": 152.06892749999955,
          "velocity": 0.5905511811023622,
          "duration": 0.20689649999999915
        },
        {
          "name": "A4",
          "midi": 69,
          "time": 152.27582399999955,
          "velocity": 0.5905511811023622,
          "duration": 0.4137929999999983
        },
        {
          "name": "C5",
          "midi": 72,
          "time": 152.68961699999954,
          "velocity": 0.5905511811023622,
          "duration": 0.20689649999999915
        },
        {
          "name": "B4",
          "midi": 71,
          "time": 152.89651349999954,
          "velocity": 0.5905511811023622,
          "duration": 0.20689649999999915
        },
        {
          "name": "A4",
          "midi": 69,
          "time": 153.10340999999954,
          "velocity": 0.5905511811023622,
          "duration": 0.4137929999999983
        },
        {
          "name": "G4",
          "midi": 67,
          "time": 153.51720299999954,
          "velocity": 0.5905511811023622,
          "duration": 0.20689649999999915
        },
        {
          "name": "F4",
          "midi": 65,
          "time": 153.72409949999954,
          "velocity": 0.5905511811023622,
          "duration": 0.20689649999999915
        },
        {
          "name": "G4",
          "midi": 67,
          "time": 153.93099599999954,
          "velocity": 0.5905511811023622,
          "duration": 0.20689649999999915
        },
        {
          "name": "F4",
          "midi": 65,
          "time": 154.13789249999954,
          "velocity": 0.5905511811023622,
          "duration": 0.20689649999999915
        },
        {
          "name": "E4",
          "midi": 64,
          "time": 154.34478899999954,
          "velocity": 0.5905511811023622,
          "duration": 0.20689649999999915
        },
        {
          "name": "F4",
          "midi": 65,
          "time": 154.55168549999954,
          "velocity": 0.5905511811023622,
          "duration": 0.20689649999999915
        },
        {
          "name": "G4",
          "midi": 67,
          "time": 154.75858199999954,
          "velocity": 0.5905511811023622,
          "duration": 0.20689649999999915
        },
        {
          "name": "A4",
          "midi": 69,
          "time": 154.96547849999953,
          "velocity": 0.5905511811023622,
          "duration": 0.20689649999999915
        },
        {
          "name": "B4",
          "midi": 71,
          "time": 155.17237499999953,
          "velocity": 0.5905511811023622,
          "duration": 0.20689649999999915
        },
        {
          "name": "C5",
          "midi": 72,
          "time": 155.37927149999953,
          "velocity": 0.5905511811023622,
          "duration": 0.20689649999999915
        },
        {
          "name": "A4",
          "midi": 69,
          "time": 155.58616799999953,
          "velocity": 0.5905511811023622,
          "duration": 0.4137929999999983
        },
        {
          "name": "C5",
          "midi": 72,
          "time": 155.99996099999953,
          "velocity": 0.5905511811023622,
          "duration": 0.20689649999999915
        },
        {
          "name": "B4",
          "midi": 71,
          "time": 156.20685749999953,
          "velocity": 0.5905511811023622,
          "duration": 0.20689649999999915
        },
        {
          "name": "C5",
          "midi": 72,
          "time": 156.41375399999953,
          "velocity": 0.5905511811023622,
          "duration": 0.4137929999999983
        },
        {
          "name": "B4",
          "midi": 71,
          "time": 156.82754699999953,
          "velocity": 0.5905511811023622,
          "duration": 0.20689649999999915
        },
        {
          "name": "A4",
          "midi": 69,
          "time": 157.03444349999953,
          "velocity": 0.5905511811023622,
          "duration": 0.20689649999999915
        },
        {
          "name": "B4",
          "midi": 71,
          "time": 157.24133999999952,
          "velocity": 0.5905511811023622,
          "duration": 0.20689649999999915
        },
        {
          "name": "C5",
          "midi": 72,
          "time": 157.44823649999952,
          "velocity": 0.5905511811023622,
          "duration": 0.20689649999999915
        },
        {
          "name": "D5",
          "midi": 74,
          "time": 157.65513299999952,
          "velocity": 0.5905511811023622,
          "duration": 0.20689649999999915
        },
        {
          "name": "C5",
          "midi": 72,
          "time": 157.86202949999952,
          "velocity": 0.5905511811023622,
          "duration": 0.20689649999999915
        },
        {
          "name": "B4",
          "midi": 71,
          "time": 158.06892599999952,
          "velocity": 0.5905511811023622,
          "duration": 0.20689649999999915
        },
        {
          "name": "C5",
          "midi": 72,
          "time": 158.27582249999952,
          "velocity": 0.5905511811023622,
          "duration": 0.20689649999999915
        },
        {
          "name": "A4",
          "midi": 69,
          "time": 158.48271899999952,
          "velocity": 0.5905511811023622,
          "duration": 0.20689649999999915
        },
        {
          "name": "B4",
          "midi": 71,
          "time": 158.68961549999952,
          "velocity": 0.5905511811023622,
          "duration": 0.20689649999999915
        },
        {
          "name": "C5",
          "midi": 72,
          "time": 158.89651199999952,
          "velocity": 0.5905511811023622,
          "duration": 1.6551719999999932
        },
        {
          "name": "D3",
          "midi": 50,
          "time": 160.9654769999995,
          "velocity": 0.5905511811023622,
          "duration": 0.4137929999999983
        },
        {
          "name": "G3",
          "midi": 55,
          "time": 161.3792699999995,
          "velocity": 0.5905511811023622,
          "duration": 0.4137929999999983
        },
        {
          "name": "B3",
          "midi": 59,
          "time": 161.7930629999995,
          "velocity": 0.5905511811023622,
          "duration": 0.4137929999999983
        },
        {
          "name": "E3",
          "midi": 52,
          "time": 162.6206489999995,
          "velocity": 0.5905511811023622,
          "duration": 0.4137929999999983
        },
        {
          "name": "A3",
          "midi": 57,
          "time": 163.0344419999995,
          "velocity": 0.5905511811023622,
          "duration": 0.4137929999999983
        },
        {
          "name": "C4",
          "midi": 60,
          "time": 163.4482349999995,
          "velocity": 0.5905511811023622,
          "duration": 0.4137929999999983
        },
        {
          "name": "G3",
          "midi": 55,
          "time": 164.2758209999995,
          "velocity": 0.5905511811023622,
          "duration": 0.4137929999999983
        },
        {
          "name": "B3",
          "midi": 59,
          "time": 164.6896139999995,
          "velocity": 0.5905511811023622,
          "duration": 0.4137929999999983
        },
        {
          "name": "E4",
          "midi": 64,
          "time": 165.1034069999995,
          "velocity": 0.5905511811023622,
          "duration": 0.4137929999999983
        },
        {
          "name": "C3",
          "midi": 48,
          "time": 165.9309929999995,
          "velocity": 0.5905511811023622,
          "duration": 0.4137929999999983
        },
        {
          "name": "F3",
          "midi": 53,
          "time": 166.3447859999995,
          "velocity": 0.5905511811023622,
          "duration": 0.4137929999999983
        },
        {
          "name": "A3",
          "midi": 57,
          "time": 166.7585789999995,
          "velocity": 0.5905511811023622,
          "duration": 0.4137929999999983
        },
        {
          "name": "E3",
          "midi": 52,
          "time": 167.58616499999948,
          "velocity": 0.5905511811023622,
          "duration": 0.4137929999999983
        },
        {
          "name": "G3",
          "midi": 55,
          "time": 167.99995799999948,
          "velocity": 0.5905511811023622,
          "duration": 0.4137929999999983
        },
        {
          "name": "C4",
          "midi": 60,
          "time": 168.41375099999948,
          "velocity": 0.5905511811023622,
          "duration": 0.4137929999999983
        },
        {
          "name": "D3",
          "midi": 50,
          "time": 169.24133699999948,
          "velocity": 0.5905511811023622,
          "duration": 0.4137929999999983
        },
        {
          "name": "A3",
          "midi": 57,
          "time": 169.65512999999947,
          "velocity": 0.5905511811023622,
          "duration": 0.4137929999999983
        },
        {
          "name": "C4",
          "midi": 60,
          "time": 170.06892299999947,
          "velocity": 0.5905511811023622,
          "duration": 0.4137929999999983
        },
        {
          "name": "D3",
          "midi": 50,
          "time": 170.89650899999947,
          "velocity": 0.5905511811023622,
          "duration": 0.4137929999999983
        },
        {
          "name": "G3",
          "midi": 55,
          "time": 171.31030199999947,
          "velocity": 0.5905511811023622,
          "duration": 0.4137929999999983
        },
        {
          "name": "B3",
          "midi": 59,
          "time": 171.72409499999947,
          "velocity": 0.5905511811023622,
          "duration": 0.4137929999999983
        },
        {
          "name": "C5",
          "midi": 72,
          "time": 172.55168099999946,
          "velocity": 0.5905511811023622,
          "duration": 0.20689649999999915
        },
        {
          "name": "E5",
          "midi": 76,
          "time": 172.55168099999946,
          "velocity": 0.5905511811023622,
          "duration": 0.20689649999999915
        },
        {
          "name": "D5",
          "midi": 74,
          "time": 172.75857749999946,
          "velocity": 0.5905511811023622,
          "duration": 0.20689649999999915
        },
        {
          "name": "F5",
          "midi": 77,
          "time": 172.75857749999946,
          "velocity": 0.5905511811023622,
          "duration": 0.20689649999999915
        },
        {
          "name": "E5",
          "midi": 76,
          "time": 172.96547399999946,
          "velocity": 0.5905511811023622,
          "duration": 0.4137929999999983
        },
        {
          "name": "G5",
          "midi": 79,
          "time": 172.96547399999946,
          "velocity": 0.5905511811023622,
          "duration": 0.4137929999999983
        },
        {
          "name": "C5",
          "midi": 72,
          "time": 173.37926699999946,
          "velocity": 0.5905511811023622,
          "duration": 0.4137929999999983
        },
        {
          "name": "E5",
          "midi": 76,
          "time": 173.37926699999946,
          "velocity": 0.5905511811023622,
          "duration": 0.4137929999999983
        },
        {
          "name": "G4",
          "midi": 67,
          "time": 174.20685299999946,
          "velocity": 0.5905511811023622,
          "duration": 0.20689649999999915
        },
        {
          "name": "B4",
          "midi": 71,
          "time": 174.20685299999946,
          "velocity": 0.5905511811023622,
          "duration": 0.20689649999999915
        },
        {
          "name": "A4",
          "midi": 69,
          "time": 174.41374949999945,
          "velocity": 0.5905511811023622,
          "duration": 0.20689649999999915
        },
        {
          "name": "C5",
          "midi": 72,
          "time": 174.41374949999945,
          "velocity": 0.5905511811023622,
          "duration": 0.20689649999999915
        },
        {
          "name": "B4",
          "midi": 71,
          "time": 174.62064599999945,
          "velocity": 0.5905511811023622,
          "duration": 0.4137929999999983
        },
        {
          "name": "D5",
          "midi": 74,
          "time": 174.62064599999945,
          "velocity": 0.5905511811023622,
          "duration": 0.4137929999999983
        },
        {
          "name": "G4",
          "midi": 67,
          "time": 175.03443899999945,
          "velocity": 0.5905511811023622,
          "duration": 0.4137929999999983
        },
        {
          "name": "B4",
          "midi": 71,
          "time": 175.03443899999945,
          "velocity": 0.5905511811023622,
          "duration": 0.4137929999999983
        },
        {
          "name": "A4",
          "midi": 69,
          "time": 175.65512849999945,
          "velocity": 0.5905511811023622,
          "duration": 0.20689649999999915
        },
        {
          "name": "A4",
          "midi": 69,
          "time": 175.86202499999945,
          "velocity": 0.5905511811023622,
          "duration": 0.20689649999999915
        },
        {
          "name": "C5",
          "midi": 72,
          "time": 175.86202499999945,
          "velocity": 0.5905511811023622,
          "duration": 0.20689649999999915
        },
        {
          "name": "B4",
          "midi": 71,
          "time": 176.06892149999945,
          "velocity": 0.5905511811023622,
          "duration": 0.20689649999999915
        },
        {
          "name": "D5",
          "midi": 74,
          "time": 176.06892149999945,
          "velocity": 0.5905511811023622,
          "duration": 0.20689649999999915
        },
        {
          "name": "C5",
          "midi": 72,
          "time": 176.27581799999945,
          "velocity": 0.5905511811023622,
          "duration": 0.4137929999999983
        },
        {
          "name": "E5",
          "midi": 76,
          "time": 176.27581799999945,
          "velocity": 0.5905511811023622,
          "duration": 0.4137929999999983
        },
        {
          "name": "C5",
          "midi": 72,
          "time": 176.68961099999945,
          "velocity": 0.5905511811023622,
          "duration": 0.4137929999999983
        },
        {
          "name": "A4",
          "midi": 69,
          "time": 177.31030049999944,
          "velocity": 0.5905511811023622,
          "duration": 0.20689649999999915
        },
        {
          "name": "C5",
          "midi": 72,
          "time": 177.51719699999944,
          "velocity": 0.5905511811023622,
          "duration": 0.20689649999999915
        },
        {
          "name": "E5",
          "midi": 76,
          "time": 177.51719699999944,
          "velocity": 0.5905511811023622,
          "duration": 0.20689649999999915
        },
        {
          "name": "B4",
          "midi": 71,
          "time": 177.72409349999944,
          "velocity": 0.5905511811023622,
          "duration": 0.20689649999999915
        },
        {
          "name": "D5",
          "midi": 74,
          "time": 177.72409349999944,
          "velocity": 0.5905511811023622,
          "duration": 0.20689649999999915
        },
        {
          "name": "A4",
          "midi": 69,
          "time": 177.93098999999944,
          "velocity": 0.5905511811023622,
          "duration": 0.4137929999999983
        },
        {
          "name": "C5",
          "midi": 72,
          "time": 177.93098999999944,
          "velocity": 0.5905511811023622,
          "duration": 0.4137929999999983
        },
        {
          "name": "G4",
          "midi": 67,
          "time": 178.34478299999944,
          "velocity": 0.5905511811023622,
          "duration": 0.4137929999999983
        },
        {
          "name": "B4",
          "midi": 71,
          "time": 178.34478299999944,
          "velocity": 0.5905511811023622,
          "duration": 0.4137929999999983
        },
        {
          "name": "F4",
          "midi": 65,
          "time": 178.96547249999944,
          "velocity": 0.5905511811023622,
          "duration": 0.20689649999999915
        },
        {
          "name": "F4",
          "midi": 65,
          "time": 179.17236899999943,
          "velocity": 0.5905511811023622,
          "duration": 0.20689649999999915
        },
        {
          "name": "A4",
          "midi": 69,
          "time": 179.17236899999943,
          "velocity": 0.5905511811023622,
          "duration": 0.20689649999999915
        },
        {
          "name": "G4",
          "midi": 67,
          "time": 179.37926549999943,
          "velocity": 0.5905511811023622,
          "duration": 0.20689649999999915
        },
        {
          "name": "B4",
          "midi": 71,
          "time": 179.37926549999943,
          "velocity": 0.5905511811023622,
          "duration": 0.20689649999999915
        },
        {
          "name": "A4",
          "midi": 69,
          "time": 179.58616199999943,
          "velocity": 0.5905511811023622,
          "duration": 0.4137929999999983
        },
        {
          "name": "C5",
          "midi": 72,
          "time": 179.58616199999943,
          "velocity": 0.5905511811023622,
          "duration": 0.4137929999999983
        },
        {
          "name": "F4",
          "midi": 65,
          "time": 179.99995499999943,
          "velocity": 0.5905511811023622,
          "duration": 0.4137929999999983
        },
        {
          "name": "A4",
          "midi": 69,
          "time": 179.99995499999943,
          "velocity": 0.5905511811023622,
          "duration": 0.4137929999999983
        },
        {
          "name": "E4",
          "midi": 64,
          "time": 180.62064449999943,
          "velocity": 0.5905511811023622,
          "duration": 0.20689649999999915
        },
        {
          "name": "E4",
          "midi": 64,
          "time": 180.82754099999943,
          "velocity": 0.5905511811023622,
          "duration": 0.20689649999999915
        },
        {
          "name": "G4",
          "midi": 67,
          "time": 180.82754099999943,
          "velocity": 0.5905511811023622,
          "duration": 0.20689649999999915
        },
        {
          "name": "F4",
          "midi": 65,
          "time": 181.03443749999943,
          "velocity": 0.5905511811023622,
          "duration": 0.20689649999999915
        },
        {
          "name": "A4",
          "midi": 69,
          "time": 181.03443749999943,
          "velocity": 0.5905511811023622,
          "duration": 0.20689649999999915
        },
        {
          "name": "A4",
          "midi": 69,
          "time": 181.24133399999943,
          "velocity": 0.5905511811023622,
          "duration": 0.10344825000001379
        },
        {
          "name": "C5",
          "midi": 72,
          "time": 181.34478224999944,
          "velocity": 0.5905511811023622,
          "duration": 0.31034475000001294
        },
        {
          "name": "E4",
          "midi": 64,
          "time": 181.65512699999945,
          "velocity": 0.5905511811023622,
          "duration": 0.4137929999999983
        },
        {
          "name": "G4",
          "midi": 67,
          "time": 181.65512699999945,
          "velocity": 0.5905511811023622,
          "duration": 0.4137929999999983
        },
        {
          "name": "F4",
          "midi": 65,
          "time": 182.27581649999945,
          "velocity": 0.5905511811023622,
          "duration": 0.20689649999999915
        },
        {
          "name": "A4",
          "midi": 69,
          "time": 182.27581649999945,
          "velocity": 0.5905511811023622,
          "duration": 0.20689649999999915
        },
        {
          "name": "G4",
          "midi": 67,
          "time": 182.48271299999945,
          "velocity": 0.5905511811023622,
          "duration": 0.20689649999999915
        },
        {
          "name": "B4",
          "midi": 71,
          "time": 182.48271299999945,
          "velocity": 0.5905511811023622,
          "duration": 0.20689649999999915
        },
        {
          "name": "G4",
          "midi": 67,
          "time": 182.68960949999945,
          "velocity": 0.5905511811023622,
          "duration": 0.20689649999999915
        },
        {
          "name": "B4",
          "midi": 71,
          "time": 182.68960949999945,
          "velocity": 0.5905511811023622,
          "duration": 0.20689649999999915
        },
        {
          "name": "A4",
          "midi": 69,
          "time": 182.89650599999945,
          "velocity": 0.5905511811023622,
          "duration": 0.4137929999999983
        },
        {
          "name": "C5",
          "midi": 72,
          "time": 182.89650599999945,
          "velocity": 0.5905511811023622,
          "duration": 0.4137929999999983
        },
        {
          "name": "F4",
          "midi": 65,
          "time": 183.31029899999945,
          "velocity": 0.5905511811023622,
          "duration": 0.20689649999999915
        },
        {
          "name": "A4",
          "midi": 69,
          "time": 183.31029899999945,
          "velocity": 0.5905511811023622,
          "duration": 0.20689649999999915
        },
        {
          "name": "G4",
          "midi": 67,
          "time": 183.51719549999945,
          "velocity": 0.5905511811023622,
          "duration": 0.4137929999999983
        },
        {
          "name": "G4",
          "midi": 67,
          "time": 183.93098849999944,
          "velocity": 0.5905511811023622,
          "duration": 0.20689649999999915
        },
        {
          "name": "G4",
          "midi": 67,
          "time": 184.13788499999944,
          "velocity": 0.5905511811023622,
          "duration": 0.20689649999999915
        },
        {
          "name": "B4",
          "midi": 71,
          "time": 184.13788499999944,
          "velocity": 0.5905511811023622,
          "duration": 0.20689649999999915
        },
        {
          "name": "A4",
          "midi": 69,
          "time": 184.34478149999944,
          "velocity": 0.5905511811023622,
          "duration": 0.20689649999999915
        },
        {
          "name": "C5",
          "midi": 72,
          "time": 184.34478149999944,
          "velocity": 0.5905511811023622,
          "duration": 0.20689649999999915
        },
        {
          "name": "B4",
          "midi": 71,
          "time": 184.55167799999944,
          "velocity": 0.5905511811023622,
          "duration": 0.4137929999999983
        },
        {
          "name": "D5",
          "midi": 74,
          "time": 184.55167799999944,
          "velocity": 0.5905511811023622,
          "duration": 0.4137929999999983
        },
        {
          "name": "G4",
          "midi": 67,
          "time": 184.96547099999944,
          "velocity": 0.5905511811023622,
          "duration": 0.4137929999999983
        },
        {
          "name": "B4",
          "midi": 71,
          "time": 184.96547099999944,
          "velocity": 0.5905511811023622,
          "duration": 0.4137929999999983
        },
        {
          "name": "C5",
          "midi": 72,
          "time": 185.58616049999944,
          "velocity": 0.5984251968503937,
          "duration": 0.20689649999999915
        },
        {
          "name": "C5",
          "midi": 72,
          "time": 185.79305699999944,
          "velocity": 0.5984251968503937,
          "duration": 0.20689649999999915
        },
        {
          "name": "E5",
          "midi": 76,
          "time": 185.79305699999944,
          "velocity": 0.5984251968503937,
          "duration": 0.20689649999999915
        },
        {
          "name": "D5",
          "midi": 74,
          "time": 185.99995349999944,
          "velocity": 0.5984251968503937,
          "duration": 0.20689649999999915
        },
        {
          "name": "F5",
          "midi": 77,
          "time": 185.99995349999944,
          "velocity": 0.5984251968503937,
          "duration": 0.20689649999999915
        },
        {
          "name": "E5",
          "midi": 76,
          "time": 186.20684999999943,
          "velocity": 0.5984251968503937,
          "duration": 0.4137929999999983
        },
        {
          "name": "G5",
          "midi": 79,
          "time": 186.20684999999943,
          "velocity": 0.5984251968503937,
          "duration": 0.4137929999999983
        },
        {
          "name": "C5",
          "midi": 72,
          "time": 186.62064299999943,
          "velocity": 0.6062992125984252,
          "duration": 0.4137929999999983
        },
        {
          "name": "E5",
          "midi": 76,
          "time": 186.62064299999943,
          "velocity": 0.6062992125984252,
          "duration": 0.4137929999999983
        },
        {
          "name": "B4",
          "midi": 71,
          "time": 187.44822899999943,
          "velocity": 0.6220472440944882,
          "duration": 0.20689649999999915
        },
        {
          "name": "D5",
          "midi": 74,
          "time": 187.44822899999943,
          "velocity": 0.6220472440944882,
          "duration": 0.20689649999999915
        },
        {
          "name": "C5",
          "midi": 72,
          "time": 187.65512549999943,
          "velocity": 0.6220472440944882,
          "duration": 0.20689649999999915
        },
        {
          "name": "E5",
          "midi": 76,
          "time": 187.65512549999943,
          "velocity": 0.6220472440944882,
          "duration": 0.20689649999999915
        },
        {
          "name": "D5",
          "midi": 74,
          "time": 187.86202199999943,
          "velocity": 0.6220472440944882,
          "duration": 0.20689649999999915
        },
        {
          "name": "F5",
          "midi": 77,
          "time": 187.86202199999943,
          "velocity": 0.6220472440944882,
          "duration": 0.20689649999999915
        },
        {
          "name": "B4",
          "midi": 71,
          "time": 188.06891849999943,
          "velocity": 0.6220472440944882,
          "duration": 0.20689649999999915
        },
        {
          "name": "D5",
          "midi": 74,
          "time": 188.27581499999943,
          "velocity": 0.6220472440944882,
          "duration": 0.20689649999999915
        },
        {
          "name": "A4",
          "midi": 69,
          "time": 188.48271149999943,
          "velocity": 0.6220472440944882,
          "duration": 0.4137929999999983
        },
        {
          "name": "A4",
          "midi": 69,
          "time": 188.89650449999942,
          "velocity": 0.6220472440944882,
          "duration": 0.20689649999999915
        },
        {
          "name": "A4",
          "midi": 69,
          "time": 189.10340099999942,
          "velocity": 0.6220472440944882,
          "duration": 0.20689649999999915
        },
        {
          "name": "C5",
          "midi": 72,
          "time": 189.10340099999942,
          "velocity": 0.6220472440944882,
          "duration": 0.20689649999999915
        },
        {
          "name": "A4",
          "midi": 69,
          "time": 189.31029749999942,
          "velocity": 0.6220472440944882,
          "duration": 0.20689649999999915
        },
        {
          "name": "D5",
          "midi": 74,
          "time": 189.31029749999942,
          "velocity": 0.6220472440944882,
          "duration": 0.20689649999999915
        },
        {
          "name": "A4",
          "midi": 69,
          "time": 189.51719399999942,
          "velocity": 0.6220472440944882,
          "duration": 0.4137929999999983
        },
        {
          "name": "E5",
          "midi": 76,
          "time": 189.51719399999942,
          "velocity": 0.6220472440944882,
          "duration": 0.4137929999999983
        },
        {
          "name": "C5",
          "midi": 72,
          "time": 189.93098699999942,
          "velocity": 0.6299212598425197,
          "duration": 0.20689649999999915
        },
        {
          "name": "B4",
          "midi": 71,
          "time": 190.13788349999942,
          "velocity": 0.6299212598425197,
          "duration": 0.4137929999999983
        },
        {
          "name": "B4",
          "midi": 71,
          "time": 190.55167649999942,
          "velocity": 0.6299212598425197,
          "duration": 0.20689649999999915
        },
        {
          "name": "E5",
          "midi": 76,
          "time": 190.75857299999942,
          "velocity": 0.6299212598425197,
          "duration": 0.20689649999999915
        },
        {
          "name": "G5",
          "midi": 79,
          "time": 190.75857299999942,
          "velocity": 0.6299212598425197,
          "duration": 0.20689649999999915
        },
        {
          "name": "D5",
          "midi": 74,
          "time": 190.96546949999941,
          "velocity": 0.6299212598425197,
          "duration": 0.20689649999999915
        },
        {
          "name": "F5",
          "midi": 77,
          "time": 190.96546949999941,
          "velocity": 0.6299212598425197,
          "duration": 0.20689649999999915
        },
        {
          "name": "E5",
          "midi": 76,
          "time": 191.1723659999994,
          "velocity": 0.6299212598425197,
          "duration": 0.20689649999999915
        },
        {
          "name": "B4",
          "midi": 71,
          "time": 191.3792624999994,
          "velocity": 0.6299212598425197,
          "duration": 0.20689649999999915
        },
        {
          "name": "E5",
          "midi": 76,
          "time": 191.5861589999994,
          "velocity": 0.6299212598425197,
          "duration": 0.20689649999999915
        },
        {
          "name": "G5",
          "midi": 79,
          "time": 191.5861589999994,
          "velocity": 0.6299212598425197,
          "duration": 0.20689649999999915
        },
        {
          "name": "C5",
          "midi": 72,
          "time": 191.7930554999994,
          "velocity": 0.6299212598425197,
          "duration": 0.20689649999999915
        },
        {
          "name": "F5",
          "midi": 77,
          "time": 191.9999519999994,
          "velocity": 0.6299212598425197,
          "duration": 0.20689649999999915
        },
        {
          "name": "A5",
          "midi": 81,
          "time": 191.9999519999994,
          "velocity": 0.6299212598425197,
          "duration": 0.20689649999999915
        },
        {
          "name": "C5",
          "midi": 72,
          "time": 192.2068484999994,
          "velocity": 0.6299212598425197,
          "duration": 0.20689649999999915
        },
        {
          "name": "F5",
          "midi": 77,
          "time": 192.4137449999994,
          "velocity": 0.6299212598425197,
          "duration": 0.20689649999999915
        },
        {
          "name": "A5",
          "midi": 81,
          "time": 192.4137449999994,
          "velocity": 0.6299212598425197,
          "duration": 0.20689649999999915
        },
        {
          "name": "G5",
          "midi": 79,
          "time": 192.6206414999994,
          "velocity": 0.6299212598425197,
          "duration": 0.20689649999999915
        },
        {
          "name": "F5",
          "midi": 77,
          "time": 192.8275379999994,
          "velocity": 0.6299212598425197,
          "duration": 0.4137929999999983
        },
        {
          "name": "F5",
          "midi": 77,
          "time": 193.2413309999994,
          "velocity": 0.6456692913385826,
          "duration": 0.20689649999999915
        },
        {
          "name": "A5",
          "midi": 81,
          "time": 193.2413309999994,
          "velocity": 0.6456692913385826,
          "duration": 0.20689649999999915
        },
        {
          "name": "C5",
          "midi": 72,
          "time": 193.4482274999994,
          "velocity": 0.6535433070866141,
          "duration": 0.20689649999999915
        },
        {
          "name": "E5",
          "midi": 76,
          "time": 193.6551239999994,
          "velocity": 0.6535433070866141,
          "duration": 0.20689649999999915
        },
        {
          "name": "G5",
          "midi": 79,
          "time": 193.6551239999994,
          "velocity": 0.6535433070866141,
          "duration": 0.20689649999999915
        },
        {
          "name": "C5",
          "midi": 72,
          "time": 193.8620204999994,
          "velocity": 0.6614173228346457,
          "duration": 0.20689649999999915
        },
        {
          "name": "E5",
          "midi": 76,
          "time": 194.0689169999994,
          "velocity": 0.6692913385826772,
          "duration": 0.20689649999999915
        },
        {
          "name": "G5",
          "midi": 79,
          "time": 194.0689169999994,
          "velocity": 0.6692913385826772,
          "duration": 0.20689649999999915
        },
        {
          "name": "F5",
          "midi": 77,
          "time": 194.2758134999994,
          "velocity": 0.6771653543307087,
          "duration": 0.20689649999999915
        },
        {
          "name": "E5",
          "midi": 76,
          "time": 194.4827099999994,
          "velocity": 0.6850393700787402,
          "duration": 0.20689649999999915
        },
        {
          "name": "C5",
          "midi": 72,
          "time": 194.6896064999994,
          "velocity": 0.6929133858267716,
          "duration": 0.20689649999999915
        },
        {
          "name": "E5",
          "midi": 76,
          "time": 194.8965029999994,
          "velocity": 0.7007874015748031,
          "duration": 0.20689649999999915
        },
        {
          "name": "G5",
          "midi": 79,
          "time": 194.8965029999994,
          "velocity": 0.7007874015748031,
          "duration": 0.20689649999999915
        },
        {
          "name": "C5",
          "midi": 72,
          "time": 195.1033994999994,
          "velocity": 0.7086614173228346,
          "duration": 0.20689649999999915
        },
        {
          "name": "F5",
          "midi": 77,
          "time": 195.3102959999994,
          "velocity": 0.7165354330708661,
          "duration": 0.20689649999999915
        },
        {
          "name": "A5",
          "midi": 81,
          "time": 195.3102959999994,
          "velocity": 0.7165354330708661,
          "duration": 0.20689649999999915
        },
        {
          "name": "E5",
          "midi": 76,
          "time": 195.5171924999994,
          "velocity": 0.7244094488188977,
          "duration": 0.20689649999999915
        },
        {
          "name": "G5",
          "midi": 79,
          "time": 195.5171924999994,
          "velocity": 0.7244094488188977,
          "duration": 0.20689649999999915
        },
        {
          "name": "C5",
          "midi": 72,
          "time": 195.7240889999994,
          "velocity": 0.7322834645669292,
          "duration": 0.20689649999999915
        },
        {
          "name": "F5",
          "midi": 77,
          "time": 195.7240889999994,
          "velocity": 0.7322834645669292,
          "duration": 0.20689649999999915
        },
        {
          "name": "F5",
          "midi": 77,
          "time": 195.9309854999994,
          "velocity": 0.7401574803149606,
          "duration": 0.20689649999999915
        },
        {
          "name": "A5",
          "midi": 81,
          "time": 195.9309854999994,
          "velocity": 0.7401574803149606,
          "duration": 0.20689649999999915
        },
        {
          "name": "E5",
          "midi": 76,
          "time": 196.1378819999994,
          "velocity": 0.7480314960629921,
          "duration": 0.20689649999999915
        },
        {
          "name": "G5",
          "midi": 79,
          "time": 196.1378819999994,
          "velocity": 0.7480314960629921,
          "duration": 0.20689649999999915
        },
        {
          "name": "C5",
          "midi": 72,
          "time": 196.3447784999994,
          "velocity": 0.7559055118110236,
          "duration": 0.20689649999999915
        },
        {
          "name": "F5",
          "midi": 77,
          "time": 196.3447784999994,
          "velocity": 0.7559055118110236,
          "duration": 0.20689649999999915
        },
        {
          "name": "F5",
          "midi": 77,
          "time": 196.5516749999994,
          "velocity": 0.7637795275590551,
          "duration": 0.20689649999999915
        },
        {
          "name": "A5",
          "midi": 81,
          "time": 196.5516749999994,
          "velocity": 0.7637795275590551,
          "duration": 0.20689649999999915
        },
        {
          "name": "D5",
          "midi": 74,
          "time": 196.7585714999994,
          "velocity": 0.7716535433070866,
          "duration": 0.20689649999999915
        },
        {
          "name": "G5",
          "midi": 79,
          "time": 196.9654679999994,
          "velocity": 0.7795275590551181,
          "duration": 0.20689649999999915
        },
        {
          "name": "B5",
          "midi": 83,
          "time": 196.9654679999994,
          "velocity": 0.7795275590551181,
          "duration": 0.20689649999999915
        },
        {
          "name": "F5",
          "midi": 77,
          "time": 197.1723644999994,
          "velocity": 0.7874015748031497,
          "duration": 0.20689649999999915
        },
        {
          "name": "A5",
          "midi": 81,
          "time": 197.1723644999994,
          "velocity": 0.7874015748031497,
          "duration": 0.20689649999999915
        },
        {
          "name": "D5",
          "midi": 74,
          "time": 197.3792609999994,
          "velocity": 0.7952755905511811,
          "duration": 0.20689649999999915
        },
        {
          "name": "G4",
          "midi": 67,
          "time": 197.5861574999994,
          "velocity": 0.8031496062992126,
          "duration": 0.20689649999999915
        },
        {
          "name": "B4",
          "midi": 71,
          "time": 197.7930539999994,
          "velocity": 0.8110236220472441,
          "duration": 0.20689649999999915
        },
        {
          "name": "G4",
          "midi": 67,
          "time": 197.9999504999994,
          "velocity": 0.8188976377952756,
          "duration": 0.20689649999999915
        },
        {
          "name": "C5",
          "midi": 72,
          "time": 197.9999504999994,
          "velocity": 0.8188976377952756,
          "duration": 0.20689649999999915
        },
        {
          "name": "G4",
          "midi": 67,
          "time": 198.20684699999939,
          "velocity": 0.8267716535433071,
          "duration": 0.20689649999999915
        },
        {
          "name": "D5",
          "midi": 74,
          "time": 198.20684699999939,
          "velocity": 0.8267716535433071,
          "duration": 0.20689649999999915
        },
        {
          "name": "G4",
          "midi": 67,
          "time": 198.41374349999938,
          "velocity": 0.8346456692913385,
          "duration": 0.20689649999999915
        },
        {
          "name": "E5",
          "midi": 76,
          "time": 198.62063999999938,
          "velocity": 0.8503937007874016,
          "duration": 0.20689649999999915
        },
        {
          "name": "G4",
          "midi": 67,
          "time": 198.82753649999938,
          "velocity": 0.8503937007874016,
          "duration": 0.4137929999999983
        },
        {
          "name": "G4",
          "midi": 67,
          "time": 199.24132949999938,
          "velocity": 0.8503937007874016,
          "duration": 0.20689649999999915
        },
        {
          "name": "G4",
          "midi": 67,
          "time": 199.44822599999938,
          "velocity": 0.8503937007874016,
          "duration": 0.20689649999999915
        },
        {
          "name": "E5",
          "midi": 76,
          "time": 199.44822599999938,
          "velocity": 0.8503937007874016,
          "duration": 0.20689649999999915
        },
        {
          "name": "G4",
          "midi": 67,
          "time": 199.65512249999938,
          "velocity": 0.8503937007874016,
          "duration": 0.20689649999999915
        },
        {
          "name": "D5",
          "midi": 74,
          "time": 199.65512249999938,
          "velocity": 0.8503937007874016,
          "duration": 0.20689649999999915
        },
        {
          "name": "G4",
          "midi": 67,
          "time": 199.86201899999938,
          "velocity": 0.8503937007874016,
          "duration": 0.20689649999999915
        },
        {
          "name": "C5",
          "midi": 72,
          "time": 199.86201899999938,
          "velocity": 0.8503937007874016,
          "duration": 0.20689649999999915
        },
        {
          "name": "G4",
          "midi": 67,
          "time": 200.06891549999938,
          "velocity": 0.8503937007874016,
          "duration": 0.4137929999999983
        },
        {
          "name": "D5",
          "midi": 74,
          "time": 200.06891549999938,
          "velocity": 0.8503937007874016,
          "duration": 0.4137929999999983
        },
        {
          "name": "G4",
          "midi": 67,
          "time": 200.48270849999938,
          "velocity": 0.8503937007874016,
          "duration": 0.4137929999999983
        },
        {
          "name": "G4",
          "midi": 67,
          "time": 200.89650149999937,
          "velocity": 0.8503937007874016,
          "duration": 0.20689649999999915
        },
        {
          "name": "E5",
          "midi": 76,
          "time": 200.89650149999937,
          "velocity": 0.8503937007874016,
          "duration": 0.20689649999999915
        },
        {
          "name": "G4",
          "midi": 67,
          "time": 201.10339799999937,
          "velocity": 0.8503937007874016,
          "duration": 0.20689649999999915
        },
        {
          "name": "F5",
          "midi": 77,
          "time": 201.10339799999937,
          "velocity": 0.8503937007874016,
          "duration": 0.20689649999999915
        },
        {
          "name": "E5",
          "midi": 76,
          "time": 201.31029449999937,
          "velocity": 0.8503937007874016,
          "duration": 0.20689649999999915
        },
        {
          "name": "D5",
          "midi": 74,
          "time": 201.51719099999937,
          "velocity": 0.8503937007874016,
          "duration": 0.20689649999999915
        },
        {
          "name": "E4",
          "midi": 64,
          "time": 201.72408749999937,
          "velocity": 0.8503937007874016,
          "duration": 0.20689649999999915
        },
        {
          "name": "E4",
          "midi": 64,
          "time": 201.93098399999937,
          "velocity": 0.8503937007874016,
          "duration": 0.4137929999999983
        },
        {
          "name": "C5",
          "midi": 72,
          "time": 201.93098399999937,
          "velocity": 0.8503937007874016,
          "duration": 0.4137929999999983
        },
        {
          "name": "E4",
          "midi": 64,
          "time": 202.55167349999937,
          "velocity": 0.8503937007874016,
          "duration": 0.4137929999999983
        },
        {
          "name": "C5",
          "midi": 72,
          "time": 202.55167349999937,
          "velocity": 0.8503937007874016,
          "duration": 0.4137929999999983
        },
        {
          "name": "E4",
          "midi": 64,
          "time": 202.96546649999937,
          "velocity": 0.8503937007874016,
          "duration": 0.20689649999999915
        },
        {
          "name": "E4",
          "midi": 64,
          "time": 203.17236299999936,
          "velocity": 0.8503937007874016,
          "duration": 0.20689649999999915
        },
        {
          "name": "B4",
          "midi": 71,
          "time": 203.17236299999936,
          "velocity": 0.8503937007874016,
          "duration": 0.20689649999999915
        },
        {
          "name": "E4",
          "midi": 64,
          "time": 203.37925949999936,
          "velocity": 0.8503937007874016,
          "duration": 0.20689649999999915
        },
        {
          "name": "C5",
          "midi": 72,
          "time": 203.37925949999936,
          "velocity": 0.8503937007874016,
          "duration": 0.20689649999999915
        },
        {
          "name": "E4",
          "midi": 64,
          "time": 203.58615599999936,
          "velocity": 0.8503937007874016,
          "duration": 0.4137929999999983
        },
        {
          "name": "B4",
          "midi": 71,
          "time": 203.58615599999936,
          "velocity": 0.8503937007874016,
          "duration": 0.4137929999999983
        },
        {
          "name": "G4",
          "midi": 67,
          "time": 203.99994899999936,
          "velocity": 0.8503937007874016,
          "duration": 0.20689649999999915
        },
        {
          "name": "E4",
          "midi": 64,
          "time": 204.20684549999936,
          "velocity": 0.8503937007874016,
          "duration": 0.4137929999999983
        },
        {
          "name": "G4",
          "midi": 67,
          "time": 204.62063849999936,
          "velocity": 0.8503937007874016,
          "duration": 0.4137929999999983
        },
        {
          "name": "C4",
          "midi": 60,
          "time": 205.03443149999936,
          "velocity": 0.8503937007874016,
          "duration": 0.20689649999999915
        },
        {
          "name": "F4",
          "midi": 65,
          "time": 205.24132799999936,
          "velocity": 0.8503937007874016,
          "duration": 0.20689649999999915
        },
        {
          "name": "A4",
          "midi": 69,
          "time": 205.24132799999936,
          "velocity": 0.8503937007874016,
          "duration": 0.20689649999999915
        },
        {
          "name": "C4",
          "midi": 60,
          "time": 205.44822449999936,
          "velocity": 0.8503937007874016,
          "duration": 0.4137929999999983
        },
        {
          "name": "G4",
          "midi": 67,
          "time": 205.86201749999935,
          "velocity": 0.8503937007874016,
          "duration": 0.4137929999999983
        },
        {
          "name": "B4",
          "midi": 71,
          "time": 205.86201749999935,
          "velocity": 0.8503937007874016,
          "duration": 0.4137929999999983
        },
        {
          "name": "C4",
          "midi": 60,
          "time": 206.27581049999935,
          "velocity": 0.8503937007874016,
          "duration": 0.20689649999999915
        },
        {
          "name": "C5",
          "midi": 72,
          "time": 206.48270699999935,
          "velocity": 0.8503937007874016,
          "duration": 0.20689649999999915
        },
        {
          "name": "C4",
          "midi": 60,
          "time": 206.68960349999935,
          "velocity": 0.8503937007874016,
          "duration": 0.20689649999999915
        },
        {
          "name": "G4",
          "midi": 67,
          "time": 206.89649999999935,
          "velocity": 0.8503937007874016,
          "duration": 0.4137929999999983
        },
        {
          "name": "G4",
          "midi": 67,
          "time": 207.51718949999935,
          "velocity": 0.8503937007874016,
          "duration": 0.4137929999999983
        },
        {
          "name": "C5",
          "midi": 72,
          "time": 207.51718949999935,
          "velocity": 0.8503937007874016,
          "duration": 0.4137929999999983
        },
        {
          "name": "E4",
          "midi": 64,
          "time": 207.93098249999935,
          "velocity": 0.8503937007874016,
          "duration": 0.20689649999999915
        },
        {
          "name": "G4",
          "midi": 67,
          "time": 208.13787899999934,
          "velocity": 0.8503937007874016,
          "duration": 0.20689649999999915
        },
        {
          "name": "C5",
          "midi": 72,
          "time": 208.13787899999934,
          "velocity": 0.8503937007874016,
          "duration": 0.20689649999999915
        },
        {
          "name": "G4",
          "midi": 67,
          "time": 208.34477549999934,
          "velocity": 0.8503937007874016,
          "duration": 0.20689649999999915
        },
        {
          "name": "C5",
          "midi": 72,
          "time": 208.34477549999934,
          "velocity": 0.8503937007874016,
          "duration": 0.20689649999999915
        },
        {
          "name": "F4",
          "midi": 65,
          "time": 208.55167199999934,
          "velocity": 0.8503937007874016,
          "duration": 0.20689649999999915
        },
        {
          "name": "A4",
          "midi": 69,
          "time": 208.55167199999934,
          "velocity": 0.8503937007874016,
          "duration": 0.20689649999999915
        },
        {
          "name": "C4",
          "midi": 60,
          "time": 208.75856849999934,
          "velocity": 0.8503937007874016,
          "duration": 0.4137929999999983
        },
        {
          "name": "C4",
          "midi": 60,
          "time": 209.17236149999934,
          "velocity": 0.8503937007874016,
          "duration": 0.20689649999999915
        },
        {
          "name": "F4",
          "midi": 65,
          "time": 209.37925799999934,
          "velocity": 0.8503937007874016,
          "duration": 0.20689649999999915
        },
        {
          "name": "A4",
          "midi": 69,
          "time": 209.58615449999934,
          "velocity": 0.8503937007874016,
          "duration": 0.20689649999999915
        },
        {
          "name": "C5",
          "midi": 72,
          "time": 209.79305099999934,
          "velocity": 0.8503937007874016,
          "duration": 0.20689649999999915
        },
        {
          "name": "D4",
          "midi": 62,
          "time": 209.99994749999934,
          "velocity": 0.8503937007874016,
          "duration": 0.20689649999999915
        },
        {
          "name": "B4",
          "midi": 71,
          "time": 210.20684399999934,
          "velocity": 0.8503937007874016,
          "duration": 0.20689649999999915
        },
        {
          "name": "D4",
          "midi": 62,
          "time": 210.41374049999934,
          "velocity": 0.8503937007874016,
          "duration": 0.4137929999999983
        },
        {
          "name": "D4",
          "midi": 62,
          "time": 210.82753349999933,
          "velocity": 0.8503937007874016,
          "duration": 0.4137929999999983
        },
        {
          "name": "C5",
          "midi": 72,
          "time": 210.82753349999933,
          "velocity": 0.8503937007874016,
          "duration": 0.4137929999999983
        },
        {
          "name": "D4",
          "midi": 62,
          "time": 211.24132649999933,
          "velocity": 0.8503937007874016,
          "duration": 0.20689649999999915
        },
        {
          "name": "D5",
          "midi": 74,
          "time": 211.44822299999933,
          "velocity": 0.8503937007874016,
          "duration": 0.20689649999999915
        },
        {
          "name": "G4",
          "midi": 67,
          "time": 211.65511949999933,
          "velocity": 0.8503937007874016,
          "duration": 0.20689649999999915
        },
        {
          "name": "E5",
          "midi": 76,
          "time": 211.86201599999933,
          "velocity": 0.8503937007874016,
          "duration": 0.20689649999999915
        },
        {
          "name": "G4",
          "midi": 67,
          "time": 212.06891249999933,
          "velocity": 0.8503937007874016,
          "duration": 0.4137929999999983
        },
        {
          "name": "G4",
          "midi": 67,
          "time": 212.48270549999933,
          "velocity": 0.8503937007874016,
          "duration": 0.20689649999999915
        },
        {
          "name": "G4",
          "midi": 67,
          "time": 212.68960199999933,
          "velocity": 0.8503937007874016,
          "duration": 0.20689649999999915
        },
        {
          "name": "E5",
          "midi": 76,
          "time": 212.68960199999933,
          "velocity": 0.8503937007874016,
          "duration": 0.20689649999999915
        },
        {
          "name": "G4",
          "midi": 67,
          "time": 212.89649849999932,
          "velocity": 0.8503937007874016,
          "duration": 0.20689649999999915
        },
        {
          "name": "D5",
          "midi": 74,
          "time": 212.89649849999932,
          "velocity": 0.8503937007874016,
          "duration": 0.20689649999999915
        },
        {
          "name": "G4",
          "midi": 67,
          "time": 213.10339499999932,
          "velocity": 0.8503937007874016,
          "duration": 0.20689649999999915
        },
        {
          "name": "C5",
          "midi": 72,
          "time": 213.10339499999932,
          "velocity": 0.8503937007874016,
          "duration": 0.20689649999999915
        },
        {
          "name": "G4",
          "midi": 67,
          "time": 213.31029149999932,
          "velocity": 0.8503937007874016,
          "duration": 0.4137929999999983
        },
        {
          "name": "D5",
          "midi": 74,
          "time": 213.31029149999932,
          "velocity": 0.8503937007874016,
          "duration": 0.4137929999999983
        },
        {
          "name": "G4",
          "midi": 67,
          "time": 213.72408449999932,
          "velocity": 0.8503937007874016,
          "duration": 0.4137929999999983
        },
        {
          "name": "G4",
          "midi": 67,
          "time": 214.13787749999932,
          "velocity": 0.8503937007874016,
          "duration": 0.20689649999999915
        },
        {
          "name": "E5",
          "midi": 76,
          "time": 214.13787749999932,
          "velocity": 0.8503937007874016,
          "duration": 0.20689649999999915
        },
        {
          "name": "G4",
          "midi": 67,
          "time": 214.34477399999932,
          "velocity": 0.8503937007874016,
          "duration": 0.20689649999999915
        },
        {
          "name": "F5",
          "midi": 77,
          "time": 214.34477399999932,
          "velocity": 0.8503937007874016,
          "duration": 0.20689649999999915
        },
        {
          "name": "E5",
          "midi": 76,
          "time": 214.55167049999932,
          "velocity": 0.8503937007874016,
          "duration": 0.20689649999999915
        },
        {
          "name": "D5",
          "midi": 74,
          "time": 214.75856699999932,
          "velocity": 0.8503937007874016,
          "duration": 0.20689649999999915
        },
        {
          "name": "E4",
          "midi": 64,
          "time": 214.96546349999932,
          "velocity": 0.8503937007874016,
          "duration": 0.20689649999999915
        },
        {
          "name": "D5",
          "midi": 74,
          "time": 215.17235999999932,
          "velocity": 0.8503937007874016,
          "duration": 0.4137929999999983
        },
        {
          "name": "E4",
          "midi": 64,
          "time": 215.7930494999993,
          "velocity": 0.8031496062992126,
          "duration": 0.4137929999999983
        },
        {
          "name": "C5",
          "midi": 72,
          "time": 215.7930494999993,
          "velocity": 0.8031496062992126,
          "duration": 0.4137929999999983
        },
        {
          "name": "E4",
          "midi": 64,
          "time": 216.2068424999993,
          "velocity": 0.7716535433070866,
          "duration": 0.20689649999999915
        },
        {
          "name": "E4",
          "midi": 64,
          "time": 216.4137389999993,
          "velocity": 0.7559055118110236,
          "duration": 0.20689649999999915
        },
        {
          "name": "B4",
          "midi": 71,
          "time": 216.4137389999993,
          "velocity": 0.7559055118110236,
          "duration": 0.20689649999999915
        },
        {
          "name": "C5",
          "midi": 72,
          "time": 216.6206354999993,
          "velocity": 0.7401574803149606,
          "duration": 0.20689649999999915
        },
        {
          "name": "E4",
          "midi": 64,
          "time": 216.8275319999993,
          "velocity": 0.7244094488188977,
          "duration": 0.20689649999999915
        },
        {
          "name": "G4",
          "midi": 67,
          "time": 217.0344284999993,
          "velocity": 0.7244094488188977,
          "duration": 0.20689649999999915
        },
        {
          "name": "B4",
          "midi": 71,
          "time": 217.2413249999993,
          "velocity": 0.7244094488188977,
          "duration": 0.20689649999999915
        },
        {
          "name": "C5",
          "midi": 72,
          "time": 217.4482214999993,
          "velocity": 0.7244094488188977,
          "duration": 0.20689649999999915
        },
        {
          "name": "E5",
          "midi": 76,
          "time": 217.6551179999993,
          "velocity": 0.7244094488188977,
          "duration": 0.20689649999999915
        },
        {
          "name": "G5",
          "midi": 79,
          "time": 217.8620144999993,
          "velocity": 0.7244094488188977,
          "duration": 0.20689649999999915
        },
        {
          "name": "B5",
          "midi": 83,
          "time": 218.0689109999993,
          "velocity": 0.7244094488188977,
          "duration": 0.20689649999999915
        },
        {
          "name": "C6",
          "midi": 84,
          "time": 218.2758074999993,
          "velocity": 0.7244094488188977,
          "duration": 0.20689649999999915
        },
        {
          "name": "B5",
          "midi": 83,
          "time": 218.4827039999993,
          "velocity": 0.7244094488188977,
          "duration": 0.20689649999999915
        },
        {
          "name": "A5",
          "midi": 81,
          "time": 218.6896004999993,
          "velocity": 0.7244094488188977,
          "duration": 0.20689649999999915
        },
        {
          "name": "G5",
          "midi": 79,
          "time": 218.8964969999993,
          "velocity": 0.7244094488188977,
          "duration": 0.20689649999999915
        },
        {
          "name": "F5",
          "midi": 77,
          "time": 219.1033934999993,
          "velocity": 0.7244094488188977,
          "duration": 0.20689649999999915
        },
        {
          "name": "G5",
          "midi": 79,
          "time": 219.3102899999993,
          "velocity": 0.7244094488188977,
          "duration": 0.20689649999999915
        },
        {
          "name": "F5",
          "midi": 77,
          "time": 219.5171864999993,
          "velocity": 0.7244094488188977,
          "duration": 0.20689649999999915
        },
        {
          "name": "E5",
          "midi": 76,
          "time": 219.7240829999993,
          "velocity": 0.7244094488188977,
          "duration": 0.20689649999999915
        },
        {
          "name": "D5",
          "midi": 74,
          "time": 219.9309794999993,
          "velocity": 0.7244094488188977,
          "duration": 0.20689649999999915
        },
        {
          "name": "E5",
          "midi": 76,
          "time": 220.1378759999993,
          "velocity": 0.7244094488188977,
          "duration": 0.20689649999999915
        },
        {
          "name": "G5",
          "midi": 79,
          "time": 220.1378759999993,
          "velocity": 0.7244094488188977,
          "duration": 0.20689649999999915
        },
        {
          "name": "D5",
          "midi": 74,
          "time": 220.3447724999993,
          "velocity": 0.7244094488188977,
          "duration": 0.20689649999999915
        },
        {
          "name": "C5",
          "midi": 72,
          "time": 220.5516689999993,
          "velocity": 0.7244094488188977,
          "duration": 0.20689649999999915
        },
        {
          "name": "B4",
          "midi": 71,
          "time": 220.7585654999993,
          "velocity": 0.7244094488188977,
          "duration": 0.20689649999999915
        },
        {
          "name": "C5",
          "midi": 72,
          "time": 220.9654619999993,
          "velocity": 0.7244094488188977,
          "duration": 0.20689649999999915
        },
        {
          "name": "B4",
          "midi": 71,
          "time": 221.1723584999993,
          "velocity": 0.7244094488188977,
          "duration": 0.20689649999999915
        },
        {
          "name": "A4",
          "midi": 69,
          "time": 221.3792549999993,
          "velocity": 0.7244094488188977,
          "duration": 0.20689649999999915
        },
        {
          "name": "G4",
          "midi": 67,
          "time": 221.5861514999993,
          "velocity": 0.7244094488188977,
          "duration": 0.20689649999999915
        },
        {
          "name": "A4",
          "midi": 69,
          "time": 221.7930479999993,
          "velocity": 0.7244094488188977,
          "duration": 0.20689649999999915
        },
        {
          "name": "G4",
          "midi": 67,
          "time": 221.9999444999993,
          "velocity": 0.7244094488188977,
          "duration": 0.20689649999999915
        },
        {
          "name": "F4",
          "midi": 65,
          "time": 222.2068409999993,
          "velocity": 0.7244094488188977,
          "duration": 0.20689649999999915
        },
        {
          "name": "G4",
          "midi": 67,
          "time": 222.41373749999929,
          "velocity": 0.7244094488188977,
          "duration": 0.20689649999999915
        },
        {
          "name": "A4",
          "midi": 69,
          "time": 222.62063399999928,
          "velocity": 0.7244094488188977,
          "duration": 0.20689649999999915
        },
        {
          "name": "F4",
          "midi": 65,
          "time": 222.82753049999928,
          "velocity": 0.7244094488188977,
          "duration": 0.20689649999999915
        },
        {
          "name": "C5",
          "midi": 72,
          "time": 223.03442699999928,
          "velocity": 0.7244094488188977,
          "duration": 0.20689649999999915
        },
        {
          "name": "G4",
          "midi": 67,
          "time": 223.24132349999928,
          "velocity": 0.7244094488188977,
          "duration": 0.20689649999999915
        },
        {
          "name": "B4",
          "midi": 71,
          "time": 223.44821999999928,
          "velocity": 0.7244094488188977,
          "duration": 0.20689649999999915
        },
        {
          "name": "A4",
          "midi": 69,
          "time": 223.65511649999928,
          "velocity": 0.7244094488188977,
          "duration": 0.20689649999999915
        },
        {
          "name": "G4",
          "midi": 67,
          "time": 223.86201299999928,
          "velocity": 0.7244094488188977,
          "duration": 0.20689649999999915
        },
        {
          "name": "C5",
          "midi": 72,
          "time": 224.06890949999928,
          "velocity": 0.7244094488188977,
          "duration": 0.4137929999999983
        },
        {
          "name": "G4",
          "midi": 67,
          "time": 224.48270249999928,
          "velocity": 0.7244094488188977,
          "duration": 0.20689649999999915
        },
        {
          "name": "D5",
          "midi": 74,
          "time": 224.68959899999928,
          "velocity": 0.7244094488188977,
          "duration": 0.20689649999999915
        },
        {
          "name": "G4",
          "midi": 67,
          "time": 224.89649549999928,
          "velocity": 0.7244094488188977,
          "duration": 0.20689649999999915
        },
        {
          "name": "E5",
          "midi": 76,
          "time": 225.10339199999927,
          "velocity": 0.7244094488188977,
          "duration": 0.20689649999999915
        },
        {
          "name": "G4",
          "midi": 67,
          "time": 225.31028849999927,
          "velocity": 0.7244094488188977,
          "duration": 0.4137929999999983
        },
        {
          "name": "G4",
          "midi": 67,
          "time": 225.72408149999927,
          "velocity": 0.7244094488188977,
          "duration": 0.20689649999999915
        },
        {
          "name": "E5",
          "midi": 76,
          "time": 225.93097799999927,
          "velocity": 0.7244094488188977,
          "duration": 0.20689649999999915
        },
        {
          "name": "G4",
          "midi": 67,
          "time": 226.13787449999927,
          "velocity": 0.7244094488188977,
          "duration": 0.20689649999999915
        },
        {
          "name": "F5",
          "midi": 77,
          "time": 226.34477099999927,
          "velocity": 0.7244094488188977,
          "duration": 0.20689649999999915
        },
        {
          "name": "G4",
          "midi": 67,
          "time": 226.55166749999927,
          "velocity": 0.7244094488188977,
          "duration": 0.20689649999999915
        },
        {
          "name": "B4",
          "midi": 71,
          "time": 226.75856399999927,
          "velocity": 0.7244094488188977,
          "duration": 0.20689649999999915
        },
        {
          "name": "G5",
          "midi": 79,
          "time": 226.75856399999927,
          "velocity": 0.7244094488188977,
          "duration": 0.20689649999999915
        },
        {
          "name": "A4",
          "midi": 69,
          "time": 226.96546049999927,
          "velocity": 0.7244094488188977,
          "duration": 0.20689649999999915
        },
        {
          "name": "C5",
          "midi": 72,
          "time": 227.17235699999927,
          "velocity": 0.7244094488188977,
          "duration": 0.20689649999999915
        },
        {
          "name": "A5",
          "midi": 81,
          "time": 227.17235699999927,
          "velocity": 0.7244094488188977,
          "duration": 0.20689649999999915
        },
        {
          "name": "G4",
          "midi": 67,
          "time": 227.37925349999927,
          "velocity": 0.7244094488188977,
          "duration": 0.20689649999999915
        },
        {
          "name": "B4",
          "midi": 71,
          "time": 227.58614999999926,
          "velocity": 0.7244094488188977,
          "duration": 0.20689649999999915
        },
        {
          "name": "G5",
          "midi": 79,
          "time": 227.58614999999926,
          "velocity": 0.7244094488188977,
          "duration": 0.20689649999999915
        },
        {
          "name": "G4",
          "midi": 67,
          "time": 227.79304649999926,
          "velocity": 0.7244094488188977,
          "duration": 0.20689649999999915
        },
        {
          "name": "B4",
          "midi": 71,
          "time": 227.99994299999926,
          "velocity": 0.7244094488188977,
          "duration": 0.20689649999999915
        },
        {
          "name": "F5",
          "midi": 77,
          "time": 227.99994299999926,
          "velocity": 0.7244094488188977,
          "duration": 0.20689649999999915
        },
        {
          "name": "D4",
          "midi": 62,
          "time": 228.20683949999926,
          "velocity": 0.7244094488188977,
          "duration": 0.20689649999999915
        },
        {
          "name": "A4",
          "midi": 69,
          "time": 228.41373599999926,
          "velocity": 0.7244094488188977,
          "duration": 0.20689649999999915
        },
        {
          "name": "E5",
          "midi": 76,
          "time": 228.41373599999926,
          "velocity": 0.7244094488188977,
          "duration": 0.20689649999999915
        },
        {
          "name": "E4",
          "midi": 64,
          "time": 228.62063249999926,
          "velocity": 0.7244094488188977,
          "duration": 0.4137929999999983
        },
        {
          "name": "E4",
          "midi": 64,
          "time": 229.03442549999926,
          "velocity": 0.7244094488188977,
          "duration": 0.20689649999999915
        },
        {
          "name": "E4",
          "midi": 64,
          "time": 229.24132199999926,
          "velocity": 0.7244094488188977,
          "duration": 0.20689649999999915
        },
        {
          "name": "C5",
          "midi": 72,
          "time": 229.24132199999926,
          "velocity": 0.7244094488188977,
          "duration": 0.20689649999999915
        },
        {
          "name": "E4",
          "midi": 64,
          "time": 229.44821849999926,
          "velocity": 0.7244094488188977,
          "duration": 0.20689649999999915
        },
        {
          "name": "C5",
          "midi": 72,
          "time": 229.44821849999926,
          "velocity": 0.7244094488188977,
          "duration": 0.20689649999999915
        },
        {
          "name": "D5",
          "midi": 74,
          "time": 229.65511499999926,
          "velocity": 0.7244094488188977,
          "duration": 0.20689649999999915
        },
        {
          "name": "E4",
          "midi": 64,
          "time": 229.86201149999926,
          "velocity": 0.7244094488188977,
          "duration": 0.20689649999999915
        },
        {
          "name": "G4",
          "midi": 67,
          "time": 230.06890799999925,
          "velocity": 0.7244094488188977,
          "duration": 0.20689649999999915
        },
        {
          "name": "E5",
          "midi": 76,
          "time": 230.06890799999925,
          "velocity": 0.7244094488188977,
          "duration": 0.20689649999999915
        },
        {
          "name": "F4",
          "midi": 65,
          "time": 230.27580449999925,
          "velocity": 0.7244094488188977,
          "duration": 0.20689649999999915
        },
        {
          "name": "F5",
          "midi": 77,
          "time": 230.48270099999925,
          "velocity": 0.7244094488188977,
          "duration": 0.20689649999999915
        },
        {
          "name": "E4",
          "midi": 64,
          "time": 230.68959749999925,
          "velocity": 0.7244094488188977,
          "duration": 0.20689649999999915
        },
        {
          "name": "E5",
          "midi": 76,
          "time": 230.89649399999925,
          "velocity": 0.7244094488188977,
          "duration": 0.20689649999999915
        },
        {
          "name": "D4",
          "midi": 62,
          "time": 231.10339049999925,
          "velocity": 0.7244094488188977,
          "duration": 0.20689649999999915
        },
        {
          "name": "D5",
          "midi": 74,
          "time": 231.31028699999925,
          "velocity": 0.7244094488188977,
          "duration": 0.20689649999999915
        },
        {
          "name": "C4",
          "midi": 60,
          "time": 231.51718349999925,
          "velocity": 0.7244094488188977,
          "duration": 0.20689649999999915
        },
        {
          "name": "F4",
          "midi": 65,
          "time": 231.72407999999925,
          "velocity": 0.7244094488188977,
          "duration": 0.20689649999999915
        },
        {
          "name": "A4",
          "midi": 69,
          "time": 231.72407999999925,
          "velocity": 0.7244094488188977,
          "duration": 0.20689649999999915
        },
        {
          "name": "C4",
          "midi": 60,
          "time": 231.93097649999925,
          "velocity": 0.7244094488188977,
          "duration": 0.4137929999999983
        },
        {
          "name": "C4",
          "midi": 60,
          "time": 232.34476949999924,
          "velocity": 0.7244094488188977,
          "duration": 0.20689649999999915
        },
        {
          "name": "C4",
          "midi": 60,
          "time": 232.55166599999924,
          "velocity": 0.7244094488188977,
          "duration": 0.20689649999999915
        },
        {
          "name": "A4",
          "midi": 69,
          "time": 232.55166599999924,
          "velocity": 0.7244094488188977,
          "duration": 0.20689649999999915
        },
        {
          "name": "B4",
          "midi": 71,
          "time": 232.75856249999924,
          "velocity": 0.7244094488188977,
          "duration": 0.20689649999999915
        },
        {
          "name": "C5",
          "midi": 72,
          "time": 232.96545899999924,
          "velocity": 0.7244094488188977,
          "duration": 0.20689649999999915
        },
        {
          "name": "G4",
          "midi": 67,
          "time": 233.17235549999924,
          "velocity": 0.7244094488188977,
          "duration": 0.4137929999999983
        },
        {
          "name": "C5",
          "midi": 72,
          "time": 233.58614849999924,
          "velocity": 0.7244094488188977,
          "duration": 0.4137929999999983
        },
        {
          "name": "C5",
          "midi": 72,
          "time": 233.99994149999924,
          "velocity": 0.7244094488188977,
          "duration": 0.20689649999999915
        },
        {
          "name": "G4",
          "midi": 67,
          "time": 234.20683799999924,
          "velocity": 0.7244094488188977,
          "duration": 0.20689649999999915
        },
        {
          "name": "C5",
          "midi": 72,
          "time": 234.20683799999924,
          "velocity": 0.7244094488188977,
          "duration": 0.20689649999999915
        },
        {
          "name": "G4",
          "midi": 67,
          "time": 234.41373449999924,
          "velocity": 0.7244094488188977,
          "duration": 0.20689649999999915
        },
        {
          "name": "C5",
          "midi": 72,
          "time": 234.41373449999924,
          "velocity": 0.7244094488188977,
          "duration": 0.20689649999999915
        },
        {
          "name": "G4",
          "midi": 67,
          "time": 234.62063099999924,
          "velocity": 0.7244094488188977,
          "duration": 0.20689649999999915
        },
        {
          "name": "C5",
          "midi": 72,
          "time": 234.62063099999924,
          "velocity": 0.7244094488188977,
          "duration": 0.20689649999999915
        },
        {
          "name": "G4",
          "midi": 67,
          "time": 234.82752749999923,
          "velocity": 0.7244094488188977,
          "duration": 0.20689649999999915
        },
        {
          "name": "C5",
          "midi": 72,
          "time": 234.82752749999923,
          "velocity": 0.7244094488188977,
          "duration": 0.20689649999999915
        },
        {
          "name": "F4",
          "midi": 65,
          "time": 235.03442399999923,
          "velocity": 0.7244094488188977,
          "duration": 0.20689649999999915
        },
        {
          "name": "A4",
          "midi": 69,
          "time": 235.03442399999923,
          "velocity": 0.7244094488188977,
          "duration": 0.20689649999999915
        },
        {
          "name": "C4",
          "midi": 60,
          "time": 235.24132049999923,
          "velocity": 0.7244094488188977,
          "duration": 0.4137929999999983
        },
        {
          "name": "C4",
          "midi": 60,
          "time": 235.65511349999923,
          "velocity": 0.7244094488188977,
          "duration": 0.20689649999999915
        },
        {
          "name": "F4",
          "midi": 65,
          "time": 235.86200999999923,
          "velocity": 0.7244094488188977,
          "duration": 0.20689649999999915
        },
        {
          "name": "A4",
          "midi": 69,
          "time": 236.06890649999923,
          "velocity": 0.7244094488188977,
          "duration": 0.20689649999999915
        },
        {
          "name": "C5",
          "midi": 72,
          "time": 236.27580299999923,
          "velocity": 0.7244094488188977,
          "duration": 0.20689649999999915
        },
        {
          "name": "D4",
          "midi": 62,
          "time": 236.48269949999923,
          "velocity": 0.7244094488188977,
          "duration": 0.20689649999999915
        },
        {
          "name": "C5",
          "midi": 72,
          "time": 236.68959599999923,
          "velocity": 0.7244094488188977,
          "duration": 0.20689649999999915
        },
        {
          "name": "D4",
          "midi": 62,
          "time": 236.89649249999923,
          "velocity": 0.7244094488188977,
          "duration": 0.4137929999999983
        },
        {
          "name": "D4",
          "midi": 62,
          "time": 237.31028549999922,
          "velocity": 0.7244094488188977,
          "duration": 0.4137929999999983
        },
        {
          "name": "B4",
          "midi": 71,
          "time": 237.31028549999922,
          "velocity": 0.7244094488188977,
          "duration": 0.4137929999999983
        },
        {
          "name": "C5",
          "midi": 72,
          "time": 237.72407849999922,
          "velocity": 0.7322834645669292,
          "duration": 0.20689649999999915
        },
        {
          "name": "D5",
          "midi": 74,
          "time": 237.93097499999922,
          "velocity": 0.7322834645669292,
          "duration": 0.20689649999999915
        },
        {
          "name": "G4",
          "midi": 67,
          "time": 238.13787149999922,
          "velocity": 0.7322834645669292,
          "duration": 0.20689649999999915
        },
        {
          "name": "C5",
          "midi": 72,
          "time": 238.34476799999922,
          "velocity": 0.7322834645669292,
          "duration": 0.20689649999999915
        },
        {
          "name": "E5",
          "midi": 76,
          "time": 238.34476799999922,
          "velocity": 0.7322834645669292,
          "duration": 0.20689649999999915
        },
        {
          "name": "G4",
          "midi": 67,
          "time": 238.55166449999922,
          "velocity": 0.7322834645669292,
          "duration": 0.4137929999999983
        },
        {
          "name": "G4",
          "midi": 67,
          "time": 238.96545749999922,
          "velocity": 0.7401574803149606,
          "duration": 0.20689649999999915
        },
        {
          "name": "C5",
          "midi": 72,
          "time": 239.17235399999922,
          "velocity": 0.7401574803149606,
          "duration": 0.20689649999999915
        },
        {
          "name": "E5",
          "midi": 76,
          "time": 239.17235399999922,
          "velocity": 0.7401574803149606,
          "duration": 0.20689649999999915
        },
        {
          "name": "G4",
          "midi": 67,
          "time": 239.37925049999922,
          "velocity": 0.7401574803149606,
          "duration": 0.20689649999999915
        },
        {
          "name": "D5",
          "midi": 74,
          "time": 239.58614699999922,
          "velocity": 0.7401574803149606,
          "duration": 0.20689649999999915
        },
        {
          "name": "F5",
          "midi": 77,
          "time": 239.58614699999922,
          "velocity": 0.7401574803149606,
          "duration": 0.20689649999999915
        },
        {
          "name": "G4",
          "midi": 67,
          "time": 239.79304349999921,
          "velocity": 0.7401574803149606,
          "duration": 0.20689649999999915
        },
        {
          "name": "B4",
          "midi": 71,
          "time": 239.9999399999992,
          "velocity": 0.7401574803149606,
          "duration": 0.20689649999999915
        },
        {
          "name": "G5",
          "midi": 79,
          "time": 239.9999399999992,
          "velocity": 0.7401574803149606,
          "duration": 0.20689649999999915
        },
        {
          "name": "A4",
          "midi": 69,
          "time": 240.2068364999992,
          "velocity": 0.7401574803149606,
          "duration": 0.20689649999999915
        },
        {
          "name": "C5",
          "midi": 72,
          "time": 240.4137329999992,
          "velocity": 0.7401574803149606,
          "duration": 0.20689649999999915
        },
        {
          "name": "A5",
          "midi": 81,
          "time": 240.4137329999992,
          "velocity": 0.7401574803149606,
          "duration": 0.20689649999999915
        },
        {
          "name": "G4",
          "midi": 67,
          "time": 240.6206294999992,
          "velocity": 0.7401574803149606,
          "duration": 0.20689649999999915
        },
        {
          "name": "B4",
          "midi": 71,
          "time": 240.8275259999992,
          "velocity": 0.7401574803149606,
          "duration": 0.20689649999999915
        },
        {
          "name": "G5",
          "midi": 79,
          "time": 240.8275259999992,
          "velocity": 0.7401574803149606,
          "duration": 0.20689649999999915
        },
        {
          "name": "G4",
          "midi": 67,
          "time": 241.0344224999992,
          "velocity": 0.7401574803149606,
          "duration": 0.20689649999999915
        },
        {
          "name": "B4",
          "midi": 71,
          "time": 241.2413189999992,
          "velocity": 0.7401574803149606,
          "duration": 0.20689649999999915
        },
        {
          "name": "F5",
          "midi": 77,
          "time": 241.2413189999992,
          "velocity": 0.7401574803149606,
          "duration": 0.20689649999999915
        },
        {
          "name": "E4",
          "midi": 64,
          "time": 241.4482154999992,
          "velocity": 0.7401574803149606,
          "duration": 0.20689649999999915
        },
        {
          "name": "C5",
          "midi": 72,
          "time": 241.6551119999992,
          "velocity": 0.7401574803149606,
          "duration": 0.20689649999999915
        },
        {
          "name": "E5",
          "midi": 76,
          "time": 241.6551119999992,
          "velocity": 0.7401574803149606,
          "duration": 0.20689649999999915
        },
        {
          "name": "E4",
          "midi": 64,
          "time": 241.8620084999992,
          "velocity": 0.7401574803149606,
          "duration": 0.4137929999999983
        },
        {
          "name": "E4",
          "midi": 64,
          "time": 242.2758014999992,
          "velocity": 0.7480314960629921,
          "duration": 0.20689649999999915
        },
        {
          "name": "E4",
          "midi": 64,
          "time": 242.4826979999992,
          "velocity": 0.7480314960629921,
          "duration": 0.20689649999999915
        },
        {
          "name": "C5",
          "midi": 72,
          "time": 242.4826979999992,
          "velocity": 0.7480314960629921,
          "duration": 0.20689649999999915
        },
        {
          "name": "E4",
          "midi": 64,
          "time": 242.6895944999992,
          "velocity": 0.7480314960629921,
          "duration": 0.20689649999999915
        },
        {
          "name": "C5",
          "midi": 72,
          "time": 242.6895944999992,
          "velocity": 0.7480314960629921,
          "duration": 0.20689649999999915
        },
        {
          "name": "D5",
          "midi": 74,
          "time": 242.8964909999992,
          "velocity": 0.7480314960629921,
          "duration": 0.20689649999999915
        },
        {
          "name": "E4",
          "midi": 64,
          "time": 243.1033874999992,
          "velocity": 0.7480314960629921,
          "duration": 0.20689649999999915
        },
        {
          "name": "G4",
          "midi": 67,
          "time": 243.3102839999992,
          "velocity": 0.7480314960629921,
          "duration": 0.20689649999999915
        },
        {
          "name": "E5",
          "midi": 76,
          "time": 243.3102839999992,
          "velocity": 0.7480314960629921,
          "duration": 0.20689649999999915
        },
        {
          "name": "F4",
          "midi": 65,
          "time": 243.5171804999992,
          "velocity": 0.7480314960629921,
          "duration": 0.20689649999999915
        },
        {
          "name": "F5",
          "midi": 77,
          "time": 243.7240769999992,
          "velocity": 0.7480314960629921,
          "duration": 0.20689649999999915
        },
        {
          "name": "E4",
          "midi": 64,
          "time": 243.9309734999992,
          "velocity": 0.7480314960629921,
          "duration": 0.20689649999999915
        },
        {
          "name": "G4",
          "midi": 67,
          "time": 244.1378699999992,
          "velocity": 0.7480314960629921,
          "duration": 0.20689649999999915
        },
        {
          "name": "E5",
          "midi": 76,
          "time": 244.1378699999992,
          "velocity": 0.7480314960629921,
          "duration": 0.20689649999999915
        },
        {
          "name": "E4",
          "midi": 64,
          "time": 244.3447664999992,
          "velocity": 0.7480314960629921,
          "duration": 0.20689649999999915
        },
        {
          "name": "G4",
          "midi": 67,
          "time": 244.5516629999992,
          "velocity": 0.7480314960629921,
          "duration": 0.20689649999999915
        },
        {
          "name": "D5",
          "midi": 74,
          "time": 244.5516629999992,
          "velocity": 0.7480314960629921,
          "duration": 0.20689649999999915
        },
        {
          "name": "C4",
          "midi": 60,
          "time": 244.7585594999992,
          "velocity": 0.7480314960629921,
          "duration": 0.20689649999999915
        },
        {
          "name": "F4",
          "midi": 65,
          "time": 244.9654559999992,
          "velocity": 0.7480314960629921,
          "duration": 0.20689649999999915
        },
        {
          "name": "A4",
          "midi": 69,
          "time": 244.9654559999992,
          "velocity": 0.7480314960629921,
          "duration": 0.20689649999999915
        },
        {
          "name": "C4",
          "midi": 60,
          "time": 245.1723524999992,
          "velocity": 0.7559055118110236,
          "duration": 0.4137929999999983
        },
        {
          "name": "C4",
          "midi": 60,
          "time": 245.5861454999992,
          "velocity": 0.7637795275590551,
          "duration": 0.20689649999999915
        },
        {
          "name": "C4",
          "midi": 60,
          "time": 245.7930419999992,
          "velocity": 0.7716535433070866,
          "duration": 0.20689649999999915
        },
        {
          "name": "A4",
          "midi": 69,
          "time": 245.7930419999992,
          "velocity": 0.7716535433070866,
          "duration": 0.20689649999999915
        },
        {
          "name": "B4",
          "midi": 71,
          "time": 245.9999384999992,
          "velocity": 0.7795275590551181,
          "duration": 0.20689649999999915
        },
        {
          "name": "C5",
          "midi": 72,
          "time": 246.2068349999992,
          "velocity": 0.7874015748031497,
          "duration": 0.20689649999999915
        },
        {
          "name": "C4",
          "midi": 60,
          "time": 246.4137314999992,
          "velocity": 0.7952755905511811,
          "duration": 0.4137929999999983
        },
        {
          "name": "G4",
          "midi": 67,
          "time": 246.4137314999992,
          "velocity": 0.7952755905511811,
          "duration": 0.4137929999999983
        },
        {
          "name": "C5",
          "midi": 72,
          "time": 246.82752449999919,
          "velocity": 0.8110236220472441,
          "duration": 0.20689649999999915
        },
        {
          "name": "B4",
          "midi": 71,
          "time": 247.03442099999918,
          "velocity": 0.8188976377952756,
          "duration": 0.20689649999999915
        },
        {
          "name": "C5",
          "midi": 72,
          "time": 247.24131749999918,
          "velocity": 0.8267716535433071,
          "duration": 0.20689649999999915
        },
        {
          "name": "E4",
          "midi": 64,
          "time": 247.44821399999918,
          "velocity": 0.8346456692913385,
          "duration": 0.20689649999999915
        },
        {
          "name": "G4",
          "midi": 67,
          "time": 247.44821399999918,
          "velocity": 0.8346456692913385,
          "duration": 0.20689649999999915
        },
        {
          "name": "C5",
          "midi": 72,
          "time": 247.65511049999918,
          "velocity": 0.84251968503937,
          "duration": 0.20689649999999915
        },
        {
          "name": "B4",
          "midi": 71,
          "time": 247.86200699999918,
          "velocity": 0.8503937007874016,
          "duration": 0.20689649999999915
        },
        {
          "name": "C5",
          "midi": 72,
          "time": 248.06890349999918,
          "velocity": 0.8582677165354331,
          "duration": 0.20689649999999915
        },
        {
          "name": "F4",
          "midi": 65,
          "time": 248.27579999999918,
          "velocity": 0.8661417322834646,
          "duration": 0.20689649999999915
        },
        {
          "name": "A4",
          "midi": 69,
          "time": 248.27579999999918,
          "velocity": 0.8661417322834646,
          "duration": 0.20689649999999915
        },
        {
          "name": "C5",
          "midi": 72,
          "time": 248.48269649999918,
          "velocity": 0.8740157480314961,
          "duration": 0.20689649999999915
        },
        {
          "name": "B4",
          "midi": 71,
          "time": 248.68959299999918,
          "velocity": 0.8818897637795275,
          "duration": 0.20689649999999915
        },
        {
          "name": "C5",
          "midi": 72,
          "time": 248.89648949999918,
          "velocity": 0.889763779527559,
          "duration": 0.20689649999999915
        },
        {
          "name": "F4",
          "midi": 65,
          "time": 249.10338599999918,
          "velocity": 0.8976377952755905,
          "duration": 0.20689649999999915
        },
        {
          "name": "A4",
          "midi": 69,
          "time": 249.10338599999918,
          "velocity": 0.8976377952755905,
          "duration": 0.20689649999999915
        },
        {
          "name": "C5",
          "midi": 72,
          "time": 249.31028249999918,
          "velocity": 0.905511811023622,
          "duration": 0.20689649999999915
        },
        {
          "name": "B4",
          "midi": 71,
          "time": 249.51717899999917,
          "velocity": 0.9133858267716536,
          "duration": 0.20689649999999915
        },
        {
          "name": "C5",
          "midi": 72,
          "time": 249.72407549999917,
          "velocity": 0.9212598425196851,
          "duration": 0.20689649999999915
        },
        {
          "name": "D4",
          "midi": 62,
          "time": 249.93097199999917,
          "velocity": 0.9291338582677166,
          "duration": 0.20689649999999915
        },
        {
          "name": "B4",
          "midi": 71,
          "time": 249.93097199999917,
          "velocity": 0.9291338582677166,
          "duration": 0.20689649999999915
        },
        {
          "name": "G4",
          "midi": 67,
          "time": 250.13786849999917,
          "velocity": 0.937007874015748,
          "duration": 0.20689649999999915
        },
        {
          "name": "D4",
          "midi": 62,
          "time": 250.34476499999917,
          "velocity": 0.9448818897637795,
          "duration": 0.20689649999999915
        },
        {
          "name": "D4",
          "midi": 62,
          "time": 250.55166149999917,
          "velocity": 0.952755905511811,
          "duration": 0.4137929999999983
        },
        {
          "name": "C5",
          "midi": 72,
          "time": 250.55166149999917,
          "velocity": 0.952755905511811,
          "duration": 0.4137929999999983
        },
        {
          "name": "D4",
          "midi": 62,
          "time": 250.96545449999917,
          "velocity": 0.968503937007874,
          "duration": 0.20689649999999915
        },
        {
          "name": "D5",
          "midi": 74,
          "time": 251.17235099999917,
          "velocity": 0.9763779527559056,
          "duration": 0.20689649999999915
        },
        {
          "name": "G4",
          "midi": 67,
          "time": 251.37924749999917,
          "velocity": 0.984251968503937,
          "duration": 0.20689649999999915
        },
        {
          "name": "E5",
          "midi": 76,
          "time": 251.58614399999917,
          "velocity": 1,
          "duration": 0.20689649999999915
        },
        {
          "name": "G4",
          "midi": 67,
          "time": 251.79304049999917,
          "velocity": 1,
          "duration": 0.4137929999999983
        },
        {
          "name": "G4",
          "midi": 67,
          "time": 252.20683349999916,
          "velocity": 1,
          "duration": 0.20689649999999915
        },
        {
          "name": "G4",
          "midi": 67,
          "time": 252.41372999999916,
          "velocity": 1,
          "duration": 0.20689649999999915
        },
        {
          "name": "E5",
          "midi": 76,
          "time": 252.41372999999916,
          "velocity": 1,
          "duration": 0.20689649999999915
        },
        {
          "name": "G4",
          "midi": 67,
          "time": 252.62062649999916,
          "velocity": 1,
          "duration": 0.20689649999999915
        },
        {
          "name": "E5",
          "midi": 76,
          "time": 252.62062649999916,
          "velocity": 1,
          "duration": 0.20689649999999915
        },
        {
          "name": "G4",
          "midi": 67,
          "time": 252.82752299999916,
          "velocity": 1,
          "duration": 0.20689649999999915
        },
        {
          "name": "F5",
          "midi": 77,
          "time": 252.82752299999916,
          "velocity": 1,
          "duration": 0.20689649999999915
        },
        {
          "name": "G4",
          "midi": 67,
          "time": 253.03441949999916,
          "velocity": 1,
          "duration": 0.20689649999999915
        },
        {
          "name": "B4",
          "midi": 71,
          "time": 253.24131599999916,
          "velocity": 1,
          "duration": 0.20689649999999915
        },
        {
          "name": "G5",
          "midi": 79,
          "time": 253.24131599999916,
          "velocity": 1,
          "duration": 0.20689649999999915
        },
        {
          "name": "A4",
          "midi": 69,
          "time": 253.44821249999916,
          "velocity": 1,
          "duration": 0.20689649999999915
        },
        {
          "name": "C5",
          "midi": 72,
          "time": 253.65510899999916,
          "velocity": 1,
          "duration": 0.20689649999999915
        },
        {
          "name": "A5",
          "midi": 81,
          "time": 253.65510899999916,
          "velocity": 1,
          "duration": 0.20689649999999915
        },
        {
          "name": "G4",
          "midi": 67,
          "time": 253.86200549999916,
          "velocity": 1,
          "duration": 0.20689649999999915
        },
        {
          "name": "B4",
          "midi": 71,
          "time": 254.06890199999916,
          "velocity": 1,
          "duration": 0.20689649999999915
        },
        {
          "name": "G5",
          "midi": 79,
          "time": 254.06890199999916,
          "velocity": 1,
          "duration": 0.20689649999999915
        },
        {
          "name": "G4",
          "midi": 67,
          "time": 254.27579849999915,
          "velocity": 1,
          "duration": 0.20689649999999915
        },
        {
          "name": "A4",
          "midi": 69,
          "time": 254.48269499999915,
          "velocity": 1,
          "duration": 0.20689649999999915
        },
        {
          "name": "F5",
          "midi": 77,
          "time": 254.48269499999915,
          "velocity": 1,
          "duration": 0.20689649999999915
        },
        {
          "name": "E4",
          "midi": 64,
          "time": 254.68959149999915,
          "velocity": 1,
          "duration": 0.20689649999999915
        },
        {
          "name": "B4",
          "midi": 71,
          "time": 254.89648799999915,
          "velocity": 1,
          "duration": 0.20689649999999915
        },
        {
          "name": "C5",
          "midi": 72,
          "time": 254.89648799999915,
          "velocity": 1,
          "duration": 0.20689649999999915
        },
        {
          "name": "E5",
          "midi": 76,
          "time": 254.89648799999915,
          "velocity": 1,
          "duration": 0.20689649999999915
        },
        {
          "name": "E4",
          "midi": 64,
          "time": 255.10338449999915,
          "velocity": 1,
          "duration": 0.4137929999999983
        },
        {
          "name": "E4",
          "midi": 64,
          "time": 255.51717749999915,
          "velocity": 1,
          "duration": 0.20689649999999915
        },
        {
          "name": "E4",
          "midi": 64,
          "time": 255.72407399999915,
          "velocity": 1,
          "duration": 0.20689649999999915
        },
        {
          "name": "C5",
          "midi": 72,
          "time": 255.72407399999915,
          "velocity": 1,
          "duration": 0.20689649999999915
        },
        {
          "name": "E4",
          "midi": 64,
          "time": 255.93097049999915,
          "velocity": 1,
          "duration": 0.20689650000002757
        },
        {
          "name": "C5",
          "midi": 72,
          "time": 255.93097049999915,
          "velocity": 1,
          "duration": 0.20689650000002757
        },
        {
          "name": "E4",
          "midi": 64,
          "time": 256.1378669999992,
          "velocity": 1,
          "duration": 0.20689650000002757
        },
        {
          "name": "D5",
          "midi": 74,
          "time": 256.1378669999992,
          "velocity": 1,
          "duration": 0.20689650000002757
        },
        {
          "name": "E4",
          "midi": 64,
          "time": 256.3447634999992,
          "velocity": 1,
          "duration": 0.20689650000002757
        },
        {
          "name": "G4",
          "midi": 67,
          "time": 256.55165999999923,
          "velocity": 1,
          "duration": 0.20689650000002757
        },
        {
          "name": "E5",
          "midi": 76,
          "time": 256.55165999999923,
          "velocity": 1,
          "duration": 0.20689650000002757
        },
        {
          "name": "F4",
          "midi": 65,
          "time": 256.75855649999926,
          "velocity": 1,
          "duration": 0.20689650000002757
        },
        {
          "name": "F5",
          "midi": 77,
          "time": 256.9654529999993,
          "velocity": 1,
          "duration": 0.20689650000002757
        },
        {
          "name": "E4",
          "midi": 64,
          "time": 257.1723494999993,
          "velocity": 1,
          "duration": 0.20689650000002757
        },
        {
          "name": "A#4",
          "midi": 70,
          "time": 257.37924599999934,
          "velocity": 1,
          "duration": 0.20689650000002757
        },
        {
          "name": "E5",
          "midi": 76,
          "time": 257.37924599999934,
          "velocity": 1,
          "duration": 0.20689650000002757
        },
        {
          "name": "E4",
          "midi": 64,
          "time": 257.58614249999937,
          "velocity": 1,
          "duration": 0.20689650000002757
        },
        {
          "name": "D5",
          "midi": 74,
          "time": 257.7930389999994,
          "velocity": 1,
          "duration": 0.20689650000002757
        },
        {
          "name": "F4",
          "midi": 65,
          "time": 257.9999354999994,
          "velocity": 1,
          "duration": 0.20689650000002757
        },
        {
          "name": "A4",
          "midi": 69,
          "time": 258.20683199999945,
          "velocity": 1,
          "duration": 0.20689650000002757
        },
        {
          "name": "C5",
          "midi": 72,
          "time": 258.20683199999945,
          "velocity": 1,
          "duration": 0.20689650000002757
        },
        {
          "name": "F4",
          "midi": 65,
          "time": 258.4137284999995,
          "velocity": 1,
          "duration": 0.4137929999999983
        },
        {
          "name": "F4",
          "midi": 65,
          "time": 258.8275214999995,
          "velocity": 1,
          "duration": 0.20689650000002757
        },
        {
          "name": "A4",
          "midi": 69,
          "time": 259.0344179999995,
          "velocity": 1,
          "duration": 0.20689650000002757
        },
        {
          "name": "B4",
          "midi": 71,
          "time": 259.24131449999953,
          "velocity": 1,
          "duration": 0.20689650000002757
        },
        {
          "name": "C5",
          "midi": 72,
          "time": 259.44821099999956,
          "velocity": 1,
          "duration": 0.20689650000002757
        },
        {
          "name": "E4",
          "midi": 64,
          "time": 259.6551074999996,
          "velocity": 1,
          "duration": 0.41379300000005514
        },
        {
          "name": "G4",
          "midi": 67,
          "time": 259.6551074999996,
          "velocity": 1,
          "duration": 0.41379300000005514
        },
        {
          "name": "C5",
          "midi": 72,
          "time": 259.6551074999996,
          "velocity": 1,
          "duration": 0.41379300000005514
        },
        {
          "name": "C5",
          "midi": 72,
          "time": 260.06890049999964,
          "velocity": 1,
          "duration": 0.20689650000002757
        },
        {
          "name": "B4",
          "midi": 71,
          "time": 260.27579699999967,
          "velocity": 1,
          "duration": 0.20689650000002757
        },
        {
          "name": "C5",
          "midi": 72,
          "time": 260.4826934999997,
          "velocity": 1,
          "duration": 0.20689650000002757
        },
        {
          "name": "E4",
          "midi": 64,
          "time": 260.6895899999997,
          "velocity": 1,
          "duration": 0.20689650000002757
        },
        {
          "name": "G4",
          "midi": 67,
          "time": 260.6895899999997,
          "velocity": 1,
          "duration": 0.20689650000002757
        },
        {
          "name": "C5",
          "midi": 72,
          "time": 260.89648649999975,
          "velocity": 1,
          "duration": 0.20689650000002757
        },
        {
          "name": "B4",
          "midi": 71,
          "time": 261.1033829999998,
          "velocity": 1,
          "duration": 0.20689650000002757
        },
        {
          "name": "C5",
          "midi": 72,
          "time": 261.3102794999998,
          "velocity": 1,
          "duration": 0.20689650000002757
        },
        {
          "name": "F4",
          "midi": 65,
          "time": 261.51717599999984,
          "velocity": 1,
          "duration": 0.20689650000002757
        },
        {
          "name": "A4",
          "midi": 69,
          "time": 261.51717599999984,
          "velocity": 1,
          "duration": 0.20689650000002757
        },
        {
          "name": "C5",
          "midi": 72,
          "time": 261.72407249999986,
          "velocity": 1,
          "duration": 0.20689650000002757
        },
        {
          "name": "B4",
          "midi": 71,
          "time": 261.9309689999999,
          "velocity": 1,
          "duration": 0.20689650000002757
        },
        {
          "name": "C5",
          "midi": 72,
          "time": 262.1378654999999,
          "velocity": 1,
          "duration": 0.20689650000002757
        },
        {
          "name": "F4",
          "midi": 65,
          "time": 262.34476199999995,
          "velocity": 1,
          "duration": 0.20689650000002757
        },
        {
          "name": "A4",
          "midi": 69,
          "time": 262.34476199999995,
          "velocity": 1,
          "duration": 0.20689650000002757
        },
        {
          "name": "C5",
          "midi": 72,
          "time": 262.5516585,
          "velocity": 1,
          "duration": 0.20689650000002757
        },
        {
          "name": "B4",
          "midi": 71,
          "time": 262.758555,
          "velocity": 1,
          "duration": 0.20689650000002757
        },
        {
          "name": "C5",
          "midi": 72,
          "time": 262.96545150000003,
          "velocity": 1,
          "duration": 0.20689650000002757
        },
        {
          "name": "D4",
          "midi": 62,
          "time": 263.17234800000006,
          "velocity": 1,
          "duration": 0.20689650000002757
        },
        {
          "name": "B4",
          "midi": 71,
          "time": 263.17234800000006,
          "velocity": 1,
          "duration": 0.20689650000002757
        },
        {
          "name": "G4",
          "midi": 67,
          "time": 263.3792445000001,
          "velocity": 1,
          "duration": 0.20689650000002757
        },
        {
          "name": "D4",
          "midi": 62,
          "time": 263.5861410000001,
          "velocity": 1,
          "duration": 0.20689650000002757
        },
        {
          "name": "D4",
          "midi": 62,
          "time": 263.79303750000014,
          "velocity": 1,
          "duration": 0.4137929999999983
        },
        {
          "name": "C5",
          "midi": 72,
          "time": 263.79303750000014,
          "velocity": 1,
          "duration": 0.4137929999999983
        },
        {
          "name": "D4",
          "midi": 62,
          "time": 264.20683050000014,
          "velocity": 1,
          "duration": 0.20689650000002757
        },
        {
          "name": "D4",
          "midi": 62,
          "time": 264.41372700000016,
          "velocity": 1,
          "duration": 0.20689650000002757
        },
        {
          "name": "D5",
          "midi": 74,
          "time": 264.41372700000016,
          "velocity": 1,
          "duration": 0.20689650000002757
        },
        {
          "name": "G4",
          "midi": 67,
          "time": 264.6206235000002,
          "velocity": 1,
          "duration": 0.20689650000002757
        },
        {
          "name": "E5",
          "midi": 76,
          "time": 264.8275200000002,
          "velocity": 1,
          "duration": 0.20689650000002757
        },
        {
          "name": "C5",
          "midi": 72,
          "time": 265.03441650000025,
          "velocity": 1,
          "duration": 0.20689650000002757
        },
        {
          "name": "G4",
          "midi": 67,
          "time": 265.2413130000003,
          "velocity": 1,
          "duration": 0.20689650000002757
        },
        {
          "name": "G4",
          "midi": 67,
          "time": 265.4482095000003,
          "velocity": 1,
          "duration": 0.20689650000002757
        },
        {
          "name": "C5",
          "midi": 72,
          "time": 265.65510600000033,
          "velocity": 1,
          "duration": 0.20689650000002757
        },
        {
          "name": "E5",
          "midi": 76,
          "time": 265.65510600000033,
          "velocity": 1,
          "duration": 0.20689650000002757
        },
        {
          "name": "G4",
          "midi": 67,
          "time": 265.86200250000036,
          "velocity": 1,
          "duration": 0.20689650000002757
        },
        {
          "name": "C5",
          "midi": 72,
          "time": 266.0688990000004,
          "velocity": 1,
          "duration": 0.20689650000002757
        },
        {
          "name": "F5",
          "midi": 77,
          "time": 266.0688990000004,
          "velocity": 1,
          "duration": 0.20689650000002757
        },
        {
          "name": "G4",
          "midi": 67,
          "time": 266.2757955000004,
          "velocity": 1,
          "duration": 0.20689650000002757
        },
        {
          "name": "B4",
          "midi": 71,
          "time": 266.48269200000044,
          "velocity": 1,
          "duration": 0.20689650000002757
        },
        {
          "name": "G5",
          "midi": 79,
          "time": 266.48269200000044,
          "velocity": 1,
          "duration": 0.20689650000002757
        },
        {
          "name": "A4",
          "midi": 69,
          "time": 266.68958850000047,
          "velocity": 0.9921259842519685,
          "duration": 0.20689650000002757
        },
        {
          "name": "C5",
          "midi": 72,
          "time": 266.8964850000005,
          "velocity": 0.984251968503937,
          "duration": 0.20689650000002757
        },
        {
          "name": "A5",
          "midi": 81,
          "time": 266.8964850000005,
          "velocity": 0.984251968503937,
          "duration": 0.20689650000002757
        },
        {
          "name": "G4",
          "midi": 67,
          "time": 267.1033815000005,
          "velocity": 0.9763779527559056,
          "duration": 0.20689650000002757
        },
        {
          "name": "B4",
          "midi": 71,
          "time": 267.31027800000055,
          "velocity": 0.968503937007874,
          "duration": 0.20689650000002757
        },
        {
          "name": "G5",
          "midi": 79,
          "time": 267.31027800000055,
          "velocity": 0.968503937007874,
          "duration": 0.20689650000002757
        },
        {
          "name": "G4",
          "midi": 67,
          "time": 267.5171745000006,
          "velocity": 0.9606299212598425,
          "duration": 0.20689650000002757
        },
        {
          "name": "A4",
          "midi": 69,
          "time": 267.7240710000006,
          "velocity": 0.952755905511811,
          "duration": 0.20689650000002757
        },
        {
          "name": "F5",
          "midi": 77,
          "time": 267.7240710000006,
          "velocity": 0.952755905511811,
          "duration": 0.20689650000002757
        },
        {
          "name": "E4",
          "midi": 64,
          "time": 267.93096750000063,
          "velocity": 0.9448818897637795,
          "duration": 0.20689650000002757
        },
        {
          "name": "B4",
          "midi": 71,
          "time": 268.13786400000066,
          "velocity": 0.937007874015748,
          "duration": 0.20689650000002757
        },
        {
          "name": "C5",
          "midi": 72,
          "time": 268.13786400000066,
          "velocity": 0.937007874015748,
          "duration": 0.20689650000002757
        },
        {
          "name": "E5",
          "midi": 76,
          "time": 268.13786400000066,
          "velocity": 0.937007874015748,
          "duration": 0.20689650000002757
        },
        {
          "name": "E4",
          "midi": 64,
          "time": 268.3447605000007,
          "velocity": 0.9291338582677166,
          "duration": 0.4137929999999983
        },
        {
          "name": "E4",
          "midi": 64,
          "time": 268.7585535000007,
          "velocity": 0.905511811023622,
          "duration": 0.20689650000002757
        },
        {
          "name": "E4",
          "midi": 64,
          "time": 268.9654500000007,
          "velocity": 0.8976377952755905,
          "duration": 0.20689650000002757
        },
        {
          "name": "B4",
          "midi": 71,
          "time": 268.9654500000007,
          "velocity": 0.8976377952755905,
          "duration": 0.20689650000002757
        },
        {
          "name": "C5",
          "midi": 72,
          "time": 268.9654500000007,
          "velocity": 0.8976377952755905,
          "duration": 0.20689650000002757
        },
        {
          "name": "E4",
          "midi": 64,
          "time": 269.17234650000074,
          "velocity": 0.889763779527559,
          "duration": 0.20689650000002757
        },
        {
          "name": "B4",
          "midi": 71,
          "time": 269.17234650000074,
          "velocity": 0.889763779527559,
          "duration": 0.20689650000002757
        },
        {
          "name": "C5",
          "midi": 72,
          "time": 269.17234650000074,
          "velocity": 0.889763779527559,
          "duration": 0.20689650000002757
        },
        {
          "name": "E4",
          "midi": 64,
          "time": 269.37924300000077,
          "velocity": 0.8818897637795275,
          "duration": 0.20689650000002757
        },
        {
          "name": "D5",
          "midi": 74,
          "time": 269.37924300000077,
          "velocity": 0.8818897637795275,
          "duration": 0.20689650000002757
        },
        {
          "name": "E4",
          "midi": 64,
          "time": 269.5861395000008,
          "velocity": 0.8661417322834646,
          "duration": 0.20689650000002757
        },
        {
          "name": "G4",
          "midi": 67,
          "time": 269.7930360000008,
          "velocity": 0.8503937007874016,
          "duration": 0.20689650000002757
        },
        {
          "name": "E5",
          "midi": 76,
          "time": 269.7930360000008,
          "velocity": 0.8503937007874016,
          "duration": 0.20689650000002757
        },
        {
          "name": "F4",
          "midi": 65,
          "time": 269.99993250000085,
          "velocity": 0.8346456692913385,
          "duration": 0.20689650000002757
        },
        {
          "name": "F5",
          "midi": 77,
          "time": 270.2068290000009,
          "velocity": 0.8188976377952756,
          "duration": 0.20689650000002757
        },
        {
          "name": "E4",
          "midi": 64,
          "time": 270.4137255000009,
          "velocity": 0.8031496062992126,
          "duration": 0.20689650000002757
        },
        {
          "name": "A#4",
          "midi": 70,
          "time": 270.62062200000094,
          "velocity": 0.7874015748031497,
          "duration": 0.20689650000002757
        },
        {
          "name": "E5",
          "midi": 76,
          "time": 270.62062200000094,
          "velocity": 0.7874015748031497,
          "duration": 0.20689650000002757
        },
        {
          "name": "E4",
          "midi": 64,
          "time": 270.82751850000096,
          "velocity": 0.7716535433070866,
          "duration": 0.20689650000002757
        },
        {
          "name": "D5",
          "midi": 74,
          "time": 271.034415000001,
          "velocity": 0.7559055118110236,
          "duration": 0.20689650000002757
        },
        {
          "name": "F4",
          "midi": 65,
          "time": 271.241311500001,
          "velocity": 0.7401574803149606,
          "duration": 0.20689650000002757
        },
        {
          "name": "A4",
          "midi": 69,
          "time": 271.44820800000105,
          "velocity": 0.7244094488188977,
          "duration": 0.20689650000002757
        },
        {
          "name": "C5",
          "midi": 72,
          "time": 271.44820800000105,
          "velocity": 0.7244094488188977,
          "duration": 0.20689650000002757
        },
        {
          "name": "F4",
          "midi": 65,
          "time": 271.6551045000011,
          "velocity": 0.7244094488188977,
          "duration": 0.4137929999999983
        },
        {
          "name": "F4",
          "midi": 65,
          "time": 272.06889750000107,
          "velocity": 0.7244094488188977,
          "duration": 0.20689650000002757
        },
        {
          "name": "A4",
          "midi": 69,
          "time": 272.2757940000011,
          "velocity": 0.7244094488188977,
          "duration": 0.20689650000002757
        },
        {
          "name": "B4",
          "midi": 71,
          "time": 272.4826905000011,
          "velocity": 0.7244094488188977,
          "duration": 0.20689650000002757
        },
        {
          "name": "C5",
          "midi": 72,
          "time": 272.68958700000115,
          "velocity": 0.7244094488188977,
          "duration": 0.20689650000002757
        },
        {
          "name": "E4",
          "midi": 64,
          "time": 272.8964835000012,
          "velocity": 0.7244094488188977,
          "duration": 0.41379300000005514
        },
        {
          "name": "G4",
          "midi": 67,
          "time": 272.8964835000012,
          "velocity": 0.7244094488188977,
          "duration": 0.41379300000005514
        },
        {
          "name": "C5",
          "midi": 72,
          "time": 272.8964835000012,
          "velocity": 0.7244094488188977,
          "duration": 0.41379300000005514
        },
        {
          "name": "C5",
          "midi": 72,
          "time": 273.31027650000124,
          "velocity": 0.7244094488188977,
          "duration": 0.20689650000002757
        },
        {
          "name": "B4",
          "midi": 71,
          "time": 273.51717300000126,
          "velocity": 0.7244094488188977,
          "duration": 0.20689650000002757
        },
        {
          "name": "C5",
          "midi": 72,
          "time": 273.7240695000013,
          "velocity": 0.7244094488188977,
          "duration": 0.20689650000002757
        },
        {
          "name": "E4",
          "midi": 64,
          "time": 273.9309660000013,
          "velocity": 0.7244094488188977,
          "duration": 0.20689650000002757
        },
        {
          "name": "G4",
          "midi": 67,
          "time": 273.9309660000013,
          "velocity": 0.7244094488188977,
          "duration": 0.20689650000002757
        },
        {
          "name": "C5",
          "midi": 72,
          "time": 274.13786250000135,
          "velocity": 0.7244094488188977,
          "duration": 0.20689650000002757
        },
        {
          "name": "B4",
          "midi": 71,
          "time": 274.3447590000014,
          "velocity": 0.7244094488188977,
          "duration": 0.20689650000002757
        },
        {
          "name": "C5",
          "midi": 72,
          "time": 274.5516555000014,
          "velocity": 0.7244094488188977,
          "duration": 0.20689650000002757
        },
        {
          "name": "F4",
          "midi": 65,
          "time": 274.75855200000143,
          "velocity": 0.7244094488188977,
          "duration": 0.20689650000002757
        },
        {
          "name": "A4",
          "midi": 69,
          "time": 274.75855200000143,
          "velocity": 0.7244094488188977,
          "duration": 0.20689650000002757
        },
        {
          "name": "C5",
          "midi": 72,
          "time": 274.96544850000146,
          "velocity": 0.7244094488188977,
          "duration": 0.20689650000002757
        },
        {
          "name": "B4",
          "midi": 71,
          "time": 275.1723450000015,
          "velocity": 0.7244094488188977,
          "duration": 0.20689650000002757
        },
        {
          "name": "C5",
          "midi": 72,
          "time": 275.3792415000015,
          "velocity": 0.7244094488188977,
          "duration": 0.20689650000002757
        },
        {
          "name": "F4",
          "midi": 65,
          "time": 275.58613800000154,
          "velocity": 0.7244094488188977,
          "duration": 0.20689650000002757
        },
        {
          "name": "A4",
          "midi": 69,
          "time": 275.58613800000154,
          "velocity": 0.7244094488188977,
          "duration": 0.20689650000002757
        },
        {
          "name": "C5",
          "midi": 72,
          "time": 275.79303450000157,
          "velocity": 0.7244094488188977,
          "duration": 0.20689650000002757
        },
        {
          "name": "B4",
          "midi": 71,
          "time": 275.9999310000016,
          "velocity": 0.7244094488188977,
          "duration": 0.20689650000002757
        },
        {
          "name": "C5",
          "midi": 72,
          "time": 276.2068275000016,
          "velocity": 0.7244094488188977,
          "duration": 0.20689650000002757
        },
        {
          "name": "B4",
          "midi": 71,
          "time": 276.41372400000165,
          "velocity": 0.7244094488188977,
          "duration": 0.20689650000002757
        },
        {
          "name": "G4",
          "midi": 67,
          "time": 276.6206205000017,
          "velocity": 0.7244094488188977,
          "duration": 0.20689650000002757
        },
        {
          "name": "D4",
          "midi": 62,
          "time": 276.8275170000017,
          "velocity": 0.7244094488188977,
          "duration": 0.20689650000002757
        },
        {
          "name": "D4",
          "midi": 62,
          "time": 277.03441350000173,
          "velocity": 0.7244094488188977,
          "duration": 0.4137929999999983
        },
        {
          "name": "C5",
          "midi": 72,
          "time": 277.03441350000173,
          "velocity": 0.7244094488188977,
          "duration": 0.4137929999999983
        },
        {
          "name": "D4",
          "midi": 62,
          "time": 277.44820650000173,
          "velocity": 0.7244094488188977,
          "duration": 0.20689650000002757
        },
        {
          "name": "G4",
          "midi": 67,
          "time": 277.65510300000176,
          "velocity": 0.7244094488188977,
          "duration": 0.4137929999999983
        },
        {
          "name": "D5",
          "midi": 74,
          "time": 277.65510300000176,
          "velocity": 0.7244094488188977,
          "duration": 0.4137929999999983
        },
        {
          "name": "E5",
          "midi": 76,
          "time": 278.06889600000176,
          "velocity": 0.5905511811023622,
          "duration": 0.10344824999998536
        },
        {
          "name": "E5",
          "midi": 76,
          "time": 278.17234425000174,
          "velocity": 0.5905511811023622,
          "duration": 0.10344824999998536
        },
        {
          "name": "E5",
          "midi": 76,
          "time": 278.2757925000017,
          "velocity": 0.5905511811023622,
          "duration": 0.10344824999998536
        },
        {
          "name": "E5",
          "midi": 76,
          "time": 278.3792407500017,
          "velocity": 0.5905511811023622,
          "duration": 0.10344824999998536
        },
        {
          "name": "E5",
          "midi": 76,
          "time": 278.4826890000017,
          "velocity": 0.5905511811023622,
          "duration": 0.10344824999998536
        },
        {
          "name": "E5",
          "midi": 76,
          "time": 278.5861372500017,
          "velocity": 0.5905511811023622,
          "duration": 0.10344824999998536
        },
        {
          "name": "E5",
          "midi": 76,
          "time": 278.68958550000167,
          "velocity": 0.5905511811023622,
          "duration": 0.10344824999998536
        },
        {
          "name": "E5",
          "midi": 76,
          "time": 278.79303375000165,
          "velocity": 0.5905511811023622,
          "duration": 0.10344824999998536
        },
        {
          "name": "E5",
          "midi": 76,
          "time": 278.89648200000164,
          "velocity": 0.5905511811023622,
          "duration": 0.10344824999998536
        },
        {
          "name": "E5",
          "midi": 76,
          "time": 278.9999302500016,
          "velocity": 0.5905511811023622,
          "duration": 0.10344824999998536
        },
        {
          "name": "E5",
          "midi": 76,
          "time": 279.1033785000016,
          "velocity": 0.5905511811023622,
          "duration": 0.10344824999998536
        },
        {
          "name": "E5",
          "midi": 76,
          "time": 279.2068267500016,
          "velocity": 0.5905511811023622,
          "duration": 0.10344824999998536
        },
        {
          "name": "E5",
          "midi": 76,
          "time": 279.3102750000016,
          "velocity": 0.5905511811023622,
          "duration": 0.10344824999998536
        },
        {
          "name": "E5",
          "midi": 76,
          "time": 279.41372325000157,
          "velocity": 0.5905511811023622,
          "duration": 0.10344824999998536
        },
        {
          "name": "E5",
          "midi": 76,
          "time": 279.51717150000155,
          "velocity": 0.5905511811023622,
          "duration": 0.10344824999998536
        },
        {
          "name": "E5",
          "midi": 76,
          "time": 279.62061975000154,
          "velocity": 0.5905511811023622,
          "duration": 0.10344824999998536
        },
        {
          "name": "D5",
          "midi": 74,
          "time": 279.7240680000015,
          "velocity": 0.5905511811023622,
          "duration": 0.10344824999998536
        },
        {
          "name": "D5",
          "midi": 74,
          "time": 279.8275162500015,
          "velocity": 0.5905511811023622,
          "duration": 0.10344824999998536
        },
        {
          "name": "D5",
          "midi": 74,
          "time": 279.9309645000015,
          "velocity": 0.5905511811023622,
          "duration": 0.10344824999998536
        },
        {
          "name": "D5",
          "midi": 74,
          "time": 280.0344127500015,
          "velocity": 0.5905511811023622,
          "duration": 0.10344824999998536
        },
        {
          "name": "D5",
          "midi": 74,
          "time": 280.13786100000146,
          "velocity": 0.5905511811023622,
          "duration": 0.10344824999998536
        },
        {
          "name": "D5",
          "midi": 74,
          "time": 280.24130925000145,
          "velocity": 0.5905511811023622,
          "duration": 0.10344824999998536
        },
        {
          "name": "D5",
          "midi": 74,
          "time": 280.34475750000144,
          "velocity": 0.5905511811023622,
          "duration": 0.10344824999998536
        },
        {
          "name": "D5",
          "midi": 74,
          "time": 280.4482057500014,
          "velocity": 0.5905511811023622,
          "duration": 0.10344824999998536
        },
        {
          "name": "D5",
          "midi": 74,
          "time": 280.5516540000014,
          "velocity": 0.5905511811023622,
          "duration": 0.10344824999998536
        },
        {
          "name": "D5",
          "midi": 74,
          "time": 280.6551022500014,
          "velocity": 0.5905511811023622,
          "duration": 0.10344824999998536
        },
        {
          "name": "D5",
          "midi": 74,
          "time": 280.7585505000014,
          "velocity": 0.5905511811023622,
          "duration": 0.10344824999998536
        },
        {
          "name": "D5",
          "midi": 74,
          "time": 280.86199875000136,
          "velocity": 0.5905511811023622,
          "duration": 0.10344824999998536
        },
        {
          "name": "D5",
          "midi": 74,
          "time": 280.96544700000135,
          "velocity": 0.5905511811023622,
          "duration": 0.10344824999998536
        },
        {
          "name": "D5",
          "midi": 74,
          "time": 281.06889525000133,
          "velocity": 0.5905511811023622,
          "duration": 0.10344824999998536
        },
        {
          "name": "D5",
          "midi": 74,
          "time": 281.1723435000013,
          "velocity": 0.5905511811023622,
          "duration": 0.10344824999998536
        },
        {
          "name": "D5",
          "midi": 74,
          "time": 281.2757917500013,
          "velocity": 0.5905511811023622,
          "duration": 0.10344824999998536
        },
        {
          "name": "C5",
          "midi": 72,
          "time": 281.3792400000013,
          "velocity": 0.5905511811023622,
          "duration": 0.10344824999998536
        },
        {
          "name": "C5",
          "midi": 72,
          "time": 281.4826882500013,
          "velocity": 0.5905511811023622,
          "duration": 0.10344824999998536
        },
        {
          "name": "C5",
          "midi": 72,
          "time": 281.58613650000126,
          "velocity": 0.5905511811023622,
          "duration": 0.10344824999998536
        },
        {
          "name": "C5",
          "midi": 72,
          "time": 281.68958475000125,
          "velocity": 0.5905511811023622,
          "duration": 0.10344824999998536
        },
        {
          "name": "C5",
          "midi": 72,
          "time": 281.79303300000123,
          "velocity": 0.5905511811023622,
          "duration": 0.10344824999998536
        },
        {
          "name": "C5",
          "midi": 72,
          "time": 281.8964812500012,
          "velocity": 0.5905511811023622,
          "duration": 0.10344824999998536
        },
        {
          "name": "C5",
          "midi": 72,
          "time": 281.9999295000012,
          "velocity": 0.5905511811023622,
          "duration": 0.10344824999998536
        },
        {
          "name": "C5",
          "midi": 72,
          "time": 282.1033777500012,
          "velocity": 0.5905511811023622,
          "duration": 0.10344824999998536
        },
        {
          "name": "C5",
          "midi": 72,
          "time": 282.2068260000012,
          "velocity": 0.5905511811023622,
          "duration": 0.10344824999998536
        },
        {
          "name": "C5",
          "midi": 72,
          "time": 282.31027425000116,
          "velocity": 0.5905511811023622,
          "duration": 0.10344824999998536
        },
        {
          "name": "C5",
          "midi": 72,
          "time": 282.41372250000114,
          "velocity": 0.5905511811023622,
          "duration": 0.10344824999998536
        },
        {
          "name": "C5",
          "midi": 72,
          "time": 282.5171707500011,
          "velocity": 0.5905511811023622,
          "duration": 0.10344824999998536
        },
        {
          "name": "C5",
          "midi": 72,
          "time": 282.6206190000011,
          "velocity": 0.5905511811023622,
          "duration": 0.10344824999998536
        },
        {
          "name": "C5",
          "midi": 72,
          "time": 282.7240672500011,
          "velocity": 0.5905511811023622,
          "duration": 0.10344824999998536
        },
        {
          "name": "C5",
          "midi": 72,
          "time": 282.8275155000011,
          "velocity": 0.5905511811023622,
          "duration": 0.10344824999998536
        },
        {
          "name": "C5",
          "midi": 72,
          "time": 282.93096375000107,
          "velocity": 0.5905511811023622,
          "duration": 0.10344824999998536
        },
        {
          "name": "B4",
          "midi": 71,
          "time": 283.03441200000105,
          "velocity": 0.5905511811023622,
          "duration": 0.10344824999998536
        },
        {
          "name": "B4",
          "midi": 71,
          "time": 283.13786025000104,
          "velocity": 0.5905511811023622,
          "duration": 0.10344824999998536
        },
        {
          "name": "B4",
          "midi": 71,
          "time": 283.241308500001,
          "velocity": 0.5905511811023622,
          "duration": 0.10344824999998536
        },
        {
          "name": "B4",
          "midi": 71,
          "time": 283.344756750001,
          "velocity": 0.5905511811023622,
          "duration": 0.10344824999998536
        },
        {
          "name": "B4",
          "midi": 71,
          "time": 283.448205000001,
          "velocity": 0.5905511811023622,
          "duration": 0.10344824999998536
        },
        {
          "name": "B4",
          "midi": 71,
          "time": 283.551653250001,
          "velocity": 0.5905511811023622,
          "duration": 0.10344824999998536
        },
        {
          "name": "B4",
          "midi": 71,
          "time": 283.65510150000097,
          "velocity": 0.5905511811023622,
          "duration": 0.10344824999998536
        },
        {
          "name": "B4",
          "midi": 71,
          "time": 283.75854975000095,
          "velocity": 0.5905511811023622,
          "duration": 0.10344824999998536
        },
        {
          "name": "B4",
          "midi": 71,
          "time": 283.86199800000094,
          "velocity": 0.5905511811023622,
          "duration": 0.10344824999998536
        },
        {
          "name": "B4",
          "midi": 71,
          "time": 283.9654462500009,
          "velocity": 0.5905511811023622,
          "duration": 0.10344824999998536
        },
        {
          "name": "B4",
          "midi": 71,
          "time": 284.0688945000009,
          "velocity": 0.5905511811023622,
          "duration": 0.10344824999998536
        },
        {
          "name": "B4",
          "midi": 71,
          "time": 284.1723427500009,
          "velocity": 0.5905511811023622,
          "duration": 0.10344824999998536
        },
        {
          "name": "B4",
          "midi": 71,
          "time": 284.2757910000009,
          "velocity": 0.5905511811023622,
          "duration": 0.10344824999998536
        },
        {
          "name": "B4",
          "midi": 71,
          "time": 284.37923925000086,
          "velocity": 0.5905511811023622,
          "duration": 0.10344824999998536
        },
        {
          "name": "B4",
          "midi": 71,
          "time": 284.48268750000085,
          "velocity": 0.5905511811023622,
          "duration": 0.10344824999998536
        },
        {
          "name": "B4",
          "midi": 71,
          "time": 284.58613575000084,
          "velocity": 0.5905511811023622,
          "duration": 0.10344824999998536
        },
        {
          "name": "A4",
          "midi": 69,
          "time": 284.6895840000008,
          "velocity": 0.5905511811023622,
          "duration": 0.10344824999998536
        },
        {
          "name": "A4",
          "midi": 69,
          "time": 284.7930322500008,
          "velocity": 0.5905511811023622,
          "duration": 0.10344824999998536
        },
        {
          "name": "A4",
          "midi": 69,
          "time": 284.8964805000008,
          "velocity": 0.5905511811023622,
          "duration": 0.10344824999998536
        },
        {
          "name": "A4",
          "midi": 69,
          "time": 284.9999287500008,
          "velocity": 0.5905511811023622,
          "duration": 0.10344824999998536
        },
        {
          "name": "A4",
          "midi": 69,
          "time": 285.10337700000076,
          "velocity": 0.5905511811023622,
          "duration": 0.10344824999998536
        },
        {
          "name": "A4",
          "midi": 69,
          "time": 285.20682525000075,
          "velocity": 0.5905511811023622,
          "duration": 0.10344824999998536
        },
        {
          "name": "A4",
          "midi": 69,
          "time": 285.31027350000073,
          "velocity": 0.5905511811023622,
          "duration": 0.10344824999998536
        },
        {
          "name": "A4",
          "midi": 69,
          "time": 285.4137217500007,
          "velocity": 0.5905511811023622,
          "duration": 0.10344824999998536
        },
        {
          "name": "A4",
          "midi": 69,
          "time": 285.5171700000007,
          "velocity": 0.5905511811023622,
          "duration": 0.10344824999998536
        },
        {
          "name": "A4",
          "midi": 69,
          "time": 285.6206182500007,
          "velocity": 0.5905511811023622,
          "duration": 0.10344824999998536
        },
        {
          "name": "A4",
          "midi": 69,
          "time": 285.7240665000007,
          "velocity": 0.5905511811023622,
          "duration": 0.10344824999998536
        },
        {
          "name": "A4",
          "midi": 69,
          "time": 285.82751475000066,
          "velocity": 0.5905511811023622,
          "duration": 0.10344824999998536
        },
        {
          "name": "A4",
          "midi": 69,
          "time": 285.93096300000065,
          "velocity": 0.5905511811023622,
          "duration": 0.10344824999998536
        },
        {
          "name": "A4",
          "midi": 69,
          "time": 286.03441125000063,
          "velocity": 0.5905511811023622,
          "duration": 0.10344824999998536
        },
        {
          "name": "A4",
          "midi": 69,
          "time": 286.1378595000006,
          "velocity": 0.5905511811023622,
          "duration": 0.10344824999998536
        },
        {
          "name": "A4",
          "midi": 69,
          "time": 286.2413077500006,
          "velocity": 0.5905511811023622,
          "duration": 0.10344824999998536
        },
        {
          "name": "G4",
          "midi": 67,
          "time": 286.3447560000006,
          "velocity": 0.5905511811023622,
          "duration": 0.10344824999998536
        },
        {
          "name": "G4",
          "midi": 67,
          "time": 286.4482042500006,
          "velocity": 0.5905511811023622,
          "duration": 0.10344824999998536
        },
        {
          "name": "G4",
          "midi": 67,
          "time": 286.55165250000056,
          "velocity": 0.5905511811023622,
          "duration": 0.10344824999998536
        },
        {
          "name": "G4",
          "midi": 67,
          "time": 286.65510075000054,
          "velocity": 0.5905511811023622,
          "duration": 0.10344824999998536
        },
        {
          "name": "G4",
          "midi": 67,
          "time": 286.7585490000005,
          "velocity": 0.5905511811023622,
          "duration": 0.10344824999998536
        },
        {
          "name": "G4",
          "midi": 67,
          "time": 286.8619972500005,
          "velocity": 0.5905511811023622,
          "duration": 0.10344824999998536
        },
        {
          "name": "G4",
          "midi": 67,
          "time": 286.9654455000005,
          "velocity": 0.5905511811023622,
          "duration": 0.10344824999998536
        },
        {
          "name": "G4",
          "midi": 67,
          "time": 287.0688937500005,
          "velocity": 0.5905511811023622,
          "duration": 0.10344824999998536
        },
        {
          "name": "G4",
          "midi": 67,
          "time": 287.17234200000047,
          "velocity": 0.5905511811023622,
          "duration": 0.10344824999998536
        },
        {
          "name": "G4",
          "midi": 67,
          "time": 287.27579025000045,
          "velocity": 0.5905511811023622,
          "duration": 0.10344824999998536
        },
        {
          "name": "G4",
          "midi": 67,
          "time": 287.37923850000044,
          "velocity": 0.5905511811023622,
          "duration": 0.10344824999998536
        },
        {
          "name": "G4",
          "midi": 67,
          "time": 287.4826867500004,
          "velocity": 0.5905511811023622,
          "duration": 0.10344824999998536
        },
        {
          "name": "G4",
          "midi": 67,
          "time": 287.5861350000004,
          "velocity": 0.5905511811023622,
          "duration": 0.10344824999998536
        },
        {
          "name": "G4",
          "midi": 67,
          "time": 287.6895832500004,
          "velocity": 0.5905511811023622,
          "duration": 0.10344824999998536
        },
        {
          "name": "G4",
          "midi": 67,
          "time": 287.7930315000004,
          "velocity": 0.5905511811023622,
          "duration": 0.10344824999998536
        },
        {
          "name": "G4",
          "midi": 67,
          "time": 287.89647975000037,
          "velocity": 0.5905511811023622,
          "duration": 0.10344824999998536
        },
        {
          "name": "A4",
          "midi": 69,
          "time": 287.99992800000035,
          "velocity": 0.5905511811023622,
          "duration": 0.10344824999998536
        },
        {
          "name": "A4",
          "midi": 69,
          "time": 288.10337625000034,
          "velocity": 0.5905511811023622,
          "duration": 0.10344824999998536
        },
        {
          "name": "A4",
          "midi": 69,
          "time": 288.2068245000003,
          "velocity": 0.5905511811023622,
          "duration": 0.10344824999998536
        },
        {
          "name": "A4",
          "midi": 69,
          "time": 288.3102727500003,
          "velocity": 0.5905511811023622,
          "duration": 0.10344824999998536
        },
        {
          "name": "A4",
          "midi": 69,
          "time": 288.4137210000003,
          "velocity": 0.5905511811023622,
          "duration": 0.10344824999998536
        },
        {
          "name": "A4",
          "midi": 69,
          "time": 288.5171692500003,
          "velocity": 0.5905511811023622,
          "duration": 0.10344824999998536
        },
        {
          "name": "A4",
          "midi": 69,
          "time": 288.62061750000026,
          "velocity": 0.5905511811023622,
          "duration": 0.10344824999998536
        },
        {
          "name": "A4",
          "midi": 69,
          "time": 288.72406575000025,
          "velocity": 0.5905511811023622,
          "duration": 0.10344824999998536
        },
        {
          "name": "A4",
          "midi": 69,
          "time": 288.82751400000024,
          "velocity": 0.5905511811023622,
          "duration": 0.10344824999998536
        },
        {
          "name": "A4",
          "midi": 69,
          "time": 288.9309622500002,
          "velocity": 0.5905511811023622,
          "duration": 0.10344824999998536
        },
        {
          "name": "A4",
          "midi": 69,
          "time": 289.0344105000002,
          "velocity": 0.5905511811023622,
          "duration": 0.10344824999998536
        },
        {
          "name": "A4",
          "midi": 69,
          "time": 289.1378587500002,
          "velocity": 0.5905511811023622,
          "duration": 0.10344824999998536
        },
        {
          "name": "A4",
          "midi": 69,
          "time": 289.2413070000002,
          "velocity": 0.5905511811023622,
          "duration": 0.10344824999998536
        },
        {
          "name": "A4",
          "midi": 69,
          "time": 289.34475525000016,
          "velocity": 0.5905511811023622,
          "duration": 0.10344824999998536
        },
        {
          "name": "A4",
          "midi": 69,
          "time": 289.44820350000015,
          "velocity": 0.5905511811023622,
          "duration": 0.10344824999998536
        },
        {
          "name": "A4",
          "midi": 69,
          "time": 289.55165175000013,
          "velocity": 0.5905511811023622,
          "duration": 0.10344824999998536
        },
        {
          "name": "B4",
          "midi": 71,
          "time": 289.6551000000001,
          "velocity": 0.5905511811023622,
          "duration": 0.10344824999998536
        },
        {
          "name": "B4",
          "midi": 71,
          "time": 289.7585482500001,
          "velocity": 0.5905511811023622,
          "duration": 0.10344824999998536
        },
        {
          "name": "B4",
          "midi": 71,
          "time": 289.8619965000001,
          "velocity": 0.5905511811023622,
          "duration": 0.10344824999998536
        },
        {
          "name": "B4",
          "midi": 71,
          "time": 289.9654447500001,
          "velocity": 0.5905511811023622,
          "duration": 0.10344824999998536
        },
        {
          "name": "B4",
          "midi": 71,
          "time": 290.06889300000006,
          "velocity": 0.5905511811023622,
          "duration": 0.10344824999998536
        },
        {
          "name": "B4",
          "midi": 71,
          "time": 290.17234125000004,
          "velocity": 0.5905511811023622,
          "duration": 0.10344824999998536
        },
        {
          "name": "B4",
          "midi": 71,
          "time": 290.27578950000003,
          "velocity": 0.5905511811023622,
          "duration": 0.10344824999998536
        },
        {
          "name": "B4",
          "midi": 71,
          "time": 290.37923775,
          "velocity": 0.5905511811023622,
          "duration": 0.10344824999998536
        },
        {
          "name": "B4",
          "midi": 71,
          "time": 290.482686,
          "velocity": 0.5905511811023622,
          "duration": 0.10344824999998536
        },
        {
          "name": "B4",
          "midi": 71,
          "time": 290.58613425,
          "velocity": 0.5905511811023622,
          "duration": 0.10344824999998536
        },
        {
          "name": "B4",
          "midi": 71,
          "time": 290.6895825,
          "velocity": 0.5905511811023622,
          "duration": 0.10344824999998536
        },
        {
          "name": "B4",
          "midi": 71,
          "time": 290.79303074999996,
          "velocity": 0.5905511811023622,
          "duration": 0.10344824999998536
        },
        {
          "name": "B4",
          "midi": 71,
          "time": 290.89647899999994,
          "velocity": 0.5905511811023622,
          "duration": 0.10344824999998536
        },
        {
          "name": "B4",
          "midi": 71,
          "time": 290.9999272499999,
          "velocity": 0.5905511811023622,
          "duration": 0.10344824999998536
        },
        {
          "name": "B4",
          "midi": 71,
          "time": 291.1033754999999,
          "velocity": 0.5905511811023622,
          "duration": 0.10344824999998536
        },
        {
          "name": "B4",
          "midi": 71,
          "time": 291.2068237499999,
          "velocity": 0.5905511811023622,
          "duration": 0.10344824999998536
        },
        {
          "name": "E5",
          "midi": 76,
          "time": 291.3102719999999,
          "velocity": 0.5905511811023622,
          "duration": 0.10344824999998536
        },
        {
          "name": "E5",
          "midi": 76,
          "time": 291.41372024999987,
          "velocity": 0.5905511811023622,
          "duration": 0.10344824999998536
        },
        {
          "name": "E5",
          "midi": 76,
          "time": 291.51716849999985,
          "velocity": 0.5905511811023622,
          "duration": 0.10344824999998536
        },
        {
          "name": "E5",
          "midi": 76,
          "time": 291.62061674999984,
          "velocity": 0.5905511811023622,
          "duration": 0.10344824999998536
        },
        {
          "name": "E5",
          "midi": 76,
          "time": 291.7240649999998,
          "velocity": 0.5905511811023622,
          "duration": 0.10344824999998536
        },
        {
          "name": "E5",
          "midi": 76,
          "time": 291.8275132499998,
          "velocity": 0.5905511811023622,
          "duration": 0.10344824999998536
        },
        {
          "name": "E5",
          "midi": 76,
          "time": 291.9309614999998,
          "velocity": 0.5905511811023622,
          "duration": 0.10344824999998536
        },
        {
          "name": "E5",
          "midi": 76,
          "time": 292.0344097499998,
          "velocity": 0.5905511811023622,
          "duration": 0.10344824999998536
        },
        {
          "name": "E5",
          "midi": 76,
          "time": 292.13785799999977,
          "velocity": 0.5905511811023622,
          "duration": 0.10344824999998536
        },
        {
          "name": "E5",
          "midi": 76,
          "time": 292.24130624999975,
          "velocity": 0.5905511811023622,
          "duration": 0.10344824999998536
        },
        {
          "name": "E5",
          "midi": 76,
          "time": 292.34475449999974,
          "velocity": 0.5905511811023622,
          "duration": 0.10344824999998536
        },
        {
          "name": "E5",
          "midi": 76,
          "time": 292.4482027499997,
          "velocity": 0.5905511811023622,
          "duration": 0.10344824999998536
        },
        {
          "name": "E5",
          "midi": 76,
          "time": 292.5516509999997,
          "velocity": 0.5905511811023622,
          "duration": 0.10344824999998536
        },
        {
          "name": "E5",
          "midi": 76,
          "time": 292.6550992499997,
          "velocity": 0.5905511811023622,
          "duration": 0.10344824999998536
        },
        {
          "name": "E5",
          "midi": 76,
          "time": 292.7585474999997,
          "velocity": 0.5905511811023622,
          "duration": 0.10344824999998536
        },
        {
          "name": "E5",
          "midi": 76,
          "time": 292.86199574999966,
          "velocity": 0.5905511811023622,
          "duration": 0.10344824999998536
        },
        {
          "name": "D5",
          "midi": 74,
          "time": 292.96544399999965,
          "velocity": 0.5905511811023622,
          "duration": 0.10344824999998536
        },
        {
          "name": "D5",
          "midi": 74,
          "time": 293.06889224999964,
          "velocity": 0.5905511811023622,
          "duration": 0.10344824999998536
        },
        {
          "name": "D5",
          "midi": 74,
          "time": 293.1723404999996,
          "velocity": 0.5905511811023622,
          "duration": 0.10344824999998536
        },
        {
          "name": "D5",
          "midi": 74,
          "time": 293.2757887499996,
          "velocity": 0.5905511811023622,
          "duration": 0.10344824999998536
        },
        {
          "name": "D5",
          "midi": 74,
          "time": 293.3792369999996,
          "velocity": 0.5905511811023622,
          "duration": 0.10344824999998536
        },
        {
          "name": "D5",
          "midi": 74,
          "time": 293.4826852499996,
          "velocity": 0.5905511811023622,
          "duration": 0.10344824999998536
        },
        {
          "name": "D5",
          "midi": 74,
          "time": 293.58613349999956,
          "velocity": 0.5905511811023622,
          "duration": 0.10344824999998536
        },
        {
          "name": "D5",
          "midi": 74,
          "time": 293.68958174999955,
          "velocity": 0.5905511811023622,
          "duration": 0.10344824999998536
        },
        {
          "name": "D5",
          "midi": 74,
          "time": 293.79302999999953,
          "velocity": 0.5905511811023622,
          "duration": 0.10344824999998536
        },
        {
          "name": "D5",
          "midi": 74,
          "time": 293.8964782499995,
          "velocity": 0.5905511811023622,
          "duration": 0.10344824999998536
        },
        {
          "name": "D5",
          "midi": 74,
          "time": 293.9999264999995,
          "velocity": 0.5905511811023622,
          "duration": 0.10344824999998536
        },
        {
          "name": "D5",
          "midi": 74,
          "time": 294.1033747499995,
          "velocity": 0.5905511811023622,
          "duration": 0.10344824999998536
        },
        {
          "name": "D5",
          "midi": 74,
          "time": 294.2068229999995,
          "velocity": 0.5905511811023622,
          "duration": 0.10344824999998536
        },
        {
          "name": "D5",
          "midi": 74,
          "time": 294.31027124999946,
          "velocity": 0.5905511811023622,
          "duration": 0.10344824999998536
        },
        {
          "name": "D5",
          "midi": 74,
          "time": 294.41371949999944,
          "velocity": 0.5905511811023622,
          "duration": 0.10344824999998536
        },
        {
          "name": "D5",
          "midi": 74,
          "time": 294.51716774999943,
          "velocity": 0.5905511811023622,
          "duration": 0.10344824999998536
        },
        {
          "name": "C5",
          "midi": 72,
          "time": 294.6206159999994,
          "velocity": 0.5905511811023622,
          "duration": 0.10344824999998536
        },
        {
          "name": "C5",
          "midi": 72,
          "time": 294.7240642499994,
          "velocity": 0.5905511811023622,
          "duration": 0.10344824999998536
        },
        {
          "name": "C5",
          "midi": 72,
          "time": 294.8275124999994,
          "velocity": 0.5905511811023622,
          "duration": 0.10344824999998536
        },
        {
          "name": "C5",
          "midi": 72,
          "time": 294.9309607499994,
          "velocity": 0.5905511811023622,
          "duration": 0.10344824999998536
        },
        {
          "name": "C5",
          "midi": 72,
          "time": 295.03440899999936,
          "velocity": 0.5905511811023622,
          "duration": 0.10344824999998536
        },
        {
          "name": "C5",
          "midi": 72,
          "time": 295.13785724999934,
          "velocity": 0.5905511811023622,
          "duration": 0.10344824999998536
        },
        {
          "name": "C5",
          "midi": 72,
          "time": 295.2413054999993,
          "velocity": 0.5905511811023622,
          "duration": 0.10344824999998536
        },
        {
          "name": "C5",
          "midi": 72,
          "time": 295.3447537499993,
          "velocity": 0.5905511811023622,
          "duration": 0.10344824999998536
        },
        {
          "name": "C5",
          "midi": 72,
          "time": 295.4482019999993,
          "velocity": 0.5905511811023622,
          "duration": 0.10344824999998536
        },
        {
          "name": "C5",
          "midi": 72,
          "time": 295.5516502499993,
          "velocity": 0.5905511811023622,
          "duration": 0.10344824999998536
        },
        {
          "name": "C5",
          "midi": 72,
          "time": 295.65509849999927,
          "velocity": 0.5905511811023622,
          "duration": 0.10344824999998536
        },
        {
          "name": "C5",
          "midi": 72,
          "time": 295.75854674999925,
          "velocity": 0.5905511811023622,
          "duration": 0.10344824999998536
        },
        {
          "name": "C5",
          "midi": 72,
          "time": 295.86199499999924,
          "velocity": 0.5905511811023622,
          "duration": 0.10344824999998536
        },
        {
          "name": "C5",
          "midi": 72,
          "time": 295.9654432499992,
          "velocity": 0.5905511811023622,
          "duration": 0.10344824999998536
        },
        {
          "name": "C5",
          "midi": 72,
          "time": 296.0688914999992,
          "velocity": 0.5905511811023622,
          "duration": 0.10344824999998536
        },
        {
          "name": "C5",
          "midi": 72,
          "time": 296.1723397499992,
          "velocity": 0.5905511811023622,
          "duration": 0.10344824999998536
        },
        {
          "name": "B4",
          "midi": 71,
          "time": 296.2757879999992,
          "velocity": 0.5905511811023622,
          "duration": 0.10344824999998536
        },
        {
          "name": "B4",
          "midi": 71,
          "time": 296.37923624999917,
          "velocity": 0.5905511811023622,
          "duration": 0.10344824999998536
        },
        {
          "name": "B4",
          "midi": 71,
          "time": 296.48268449999915,
          "velocity": 0.5905511811023622,
          "duration": 0.10344824999998536
        },
        {
          "name": "B4",
          "midi": 71,
          "time": 296.58613274999914,
          "velocity": 0.5905511811023622,
          "duration": 0.10344824999998536
        },
        {
          "name": "B4",
          "midi": 71,
          "time": 296.6895809999991,
          "velocity": 0.5905511811023622,
          "duration": 0.10344824999998536
        },
        {
          "name": "B4",
          "midi": 71,
          "time": 296.7930292499991,
          "velocity": 0.5905511811023622,
          "duration": 0.10344824999998536
        },
        {
          "name": "B4",
          "midi": 71,
          "time": 296.8964774999991,
          "velocity": 0.5905511811023622,
          "duration": 0.10344824999998536
        },
        {
          "name": "B4",
          "midi": 71,
          "time": 296.9999257499991,
          "velocity": 0.5905511811023622,
          "duration": 0.10344824999998536
        },
        {
          "name": "B4",
          "midi": 71,
          "time": 297.10337399999906,
          "velocity": 0.5905511811023622,
          "duration": 0.10344824999998536
        },
        {
          "name": "B4",
          "midi": 71,
          "time": 297.20682224999905,
          "velocity": 0.5905511811023622,
          "duration": 0.10344824999998536
        },
        {
          "name": "B4",
          "midi": 71,
          "time": 297.31027049999904,
          "velocity": 0.5905511811023622,
          "duration": 0.10344824999998536
        },
        {
          "name": "B4",
          "midi": 71,
          "time": 297.413718749999,
          "velocity": 0.5905511811023622,
          "duration": 0.10344824999998536
        },
        {
          "name": "B4",
          "midi": 71,
          "time": 297.517166999999,
          "velocity": 0.5905511811023622,
          "duration": 0.10344824999998536
        },
        {
          "name": "B4",
          "midi": 71,
          "time": 297.620615249999,
          "velocity": 0.5905511811023622,
          "duration": 0.10344824999998536
        },
        {
          "name": "B4",
          "midi": 71,
          "time": 297.724063499999,
          "velocity": 0.5905511811023622,
          "duration": 0.10344824999998536
        },
        {
          "name": "B4",
          "midi": 71,
          "time": 297.82751174999896,
          "velocity": 0.5905511811023622,
          "duration": 0.10344824999998536
        },
        {
          "name": "A4",
          "midi": 69,
          "time": 297.93095999999895,
          "velocity": 0.5905511811023622,
          "duration": 0.10344824999998536
        },
        {
          "name": "A4",
          "midi": 69,
          "time": 298.03440824999893,
          "velocity": 0.5905511811023622,
          "duration": 0.10344824999998536
        },
        {
          "name": "A4",
          "midi": 69,
          "time": 298.1378564999989,
          "velocity": 0.5905511811023622,
          "duration": 0.10344824999998536
        },
        {
          "name": "A4",
          "midi": 69,
          "time": 298.2413047499989,
          "velocity": 0.5905511811023622,
          "duration": 0.10344824999998536
        },
        {
          "name": "A4",
          "midi": 69,
          "time": 298.3447529999989,
          "velocity": 0.5905511811023622,
          "duration": 0.10344824999998536
        },
        {
          "name": "A4",
          "midi": 69,
          "time": 298.4482012499989,
          "velocity": 0.5905511811023622,
          "duration": 0.10344824999998536
        },
        {
          "name": "A4",
          "midi": 69,
          "time": 298.55164949999886,
          "velocity": 0.5905511811023622,
          "duration": 0.10344824999998536
        },
        {
          "name": "A4",
          "midi": 69,
          "time": 298.65509774999884,
          "velocity": 0.5905511811023622,
          "duration": 0.10344824999998536
        },
        {
          "name": "A4",
          "midi": 69,
          "time": 298.75854599999883,
          "velocity": 0.5905511811023622,
          "duration": 0.10344824999998536
        },
        {
          "name": "A4",
          "midi": 69,
          "time": 298.8619942499988,
          "velocity": 0.5905511811023622,
          "duration": 0.10344824999998536
        },
        {
          "name": "A4",
          "midi": 69,
          "time": 298.9654424999988,
          "velocity": 0.5905511811023622,
          "duration": 0.10344824999998536
        },
        {
          "name": "A4",
          "midi": 69,
          "time": 299.0688907499988,
          "velocity": 0.5905511811023622,
          "duration": 0.10344824999998536
        },
        {
          "name": "A4",
          "midi": 69,
          "time": 299.1723389999988,
          "velocity": 0.5905511811023622,
          "duration": 0.10344824999998536
        },
        {
          "name": "A4",
          "midi": 69,
          "time": 299.27578724999876,
          "velocity": 0.5905511811023622,
          "duration": 0.10344824999998536
        },
        {
          "name": "A4",
          "midi": 69,
          "time": 299.37923549999874,
          "velocity": 0.5905511811023622,
          "duration": 0.10344824999998536
        },
        {
          "name": "A4",
          "midi": 69,
          "time": 299.4826837499987,
          "velocity": 0.5905511811023622,
          "duration": 0.10344824999998536
        },
        {
          "name": "G4",
          "midi": 67,
          "time": 299.5861319999987,
          "velocity": 0.5905511811023622,
          "duration": 0.10344824999998536
        },
        {
          "name": "G4",
          "midi": 67,
          "time": 299.6895802499987,
          "velocity": 0.5905511811023622,
          "duration": 0.10344824999998536
        },
        {
          "name": "G4",
          "midi": 67,
          "time": 299.7930284999987,
          "velocity": 0.5905511811023622,
          "duration": 0.10344824999998536
        },
        {
          "name": "G4",
          "midi": 67,
          "time": 299.89647674999867,
          "velocity": 0.5905511811023622,
          "duration": 0.10344824999998536
        },
        {
          "name": "G4",
          "midi": 67,
          "time": 299.99992499999865,
          "velocity": 0.5905511811023622,
          "duration": 0.10344824999998536
        },
        {
          "name": "G4",
          "midi": 67,
          "time": 300.10337324999864,
          "velocity": 0.5905511811023622,
          "duration": 0.10344824999998536
        },
        {
          "name": "G4",
          "midi": 67,
          "time": 300.2068214999986,
          "velocity": 0.5905511811023622,
          "duration": 0.10344824999998536
        },
        {
          "name": "G4",
          "midi": 67,
          "time": 300.3102697499986,
          "velocity": 0.5905511811023622,
          "duration": 0.10344824999998536
        },
        {
          "name": "G4",
          "midi": 67,
          "time": 300.4137179999986,
          "velocity": 0.5905511811023622,
          "duration": 0.10344824999998536
        },
        {
          "name": "G4",
          "midi": 67,
          "time": 300.5171662499986,
          "velocity": 0.5905511811023622,
          "duration": 0.10344824999998536
        },
        {
          "name": "G4",
          "midi": 67,
          "time": 300.62061449999857,
          "velocity": 0.5905511811023622,
          "duration": 0.10344824999998536
        },
        {
          "name": "G4",
          "midi": 67,
          "time": 300.72406274999855,
          "velocity": 0.5905511811023622,
          "duration": 0.10344824999998536
        },
        {
          "name": "G4",
          "midi": 67,
          "time": 300.82751099999854,
          "velocity": 0.5905511811023622,
          "duration": 0.10344824999998536
        },
        {
          "name": "G4",
          "midi": 67,
          "time": 300.9309592499985,
          "velocity": 0.5905511811023622,
          "duration": 0.10344824999998536
        },
        {
          "name": "G4",
          "midi": 67,
          "time": 301.0344074999985,
          "velocity": 0.5905511811023622,
          "duration": 0.10344824999998536
        },
        {
          "name": "G4",
          "midi": 67,
          "time": 301.1378557499985,
          "velocity": 0.5905511811023622,
          "duration": 0.10344824999998536
        },
        {
          "name": "A4",
          "midi": 69,
          "time": 301.2413039999985,
          "velocity": 0.5905511811023622,
          "duration": 0.10344824999998536
        },
        {
          "name": "A4",
          "midi": 69,
          "time": 301.34475224999846,
          "velocity": 0.5905511811023622,
          "duration": 0.10344824999998536
        },
        {
          "name": "A4",
          "midi": 69,
          "time": 301.44820049999845,
          "velocity": 0.5905511811023622,
          "duration": 0.10344824999998536
        },
        {
          "name": "A4",
          "midi": 69,
          "time": 301.55164874999844,
          "velocity": 0.5905511811023622,
          "duration": 0.10344824999998536
        },
        {
          "name": "A4",
          "midi": 69,
          "time": 301.6550969999984,
          "velocity": 0.5905511811023622,
          "duration": 0.10344824999998536
        },
        {
          "name": "A4",
          "midi": 69,
          "time": 301.7585452499984,
          "velocity": 0.5905511811023622,
          "duration": 0.10344824999998536
        },
        {
          "name": "A4",
          "midi": 69,
          "time": 301.8619934999984,
          "velocity": 0.5905511811023622,
          "duration": 0.10344824999998536
        },
        {
          "name": "A4",
          "midi": 69,
          "time": 301.9654417499984,
          "velocity": 0.5905511811023622,
          "duration": 0.10344824999998536
        },
        {
          "name": "A4",
          "midi": 69,
          "time": 302.06888999999836,
          "velocity": 0.5905511811023622,
          "duration": 0.10344824999998536
        },
        {
          "name": "A4",
          "midi": 69,
          "time": 302.17233824999835,
          "velocity": 0.5905511811023622,
          "duration": 0.10344824999998536
        },
        {
          "name": "A4",
          "midi": 69,
          "time": 302.27578649999833,
          "velocity": 0.5905511811023622,
          "duration": 0.10344824999998536
        },
        {
          "name": "A4",
          "midi": 69,
          "time": 302.3792347499983,
          "velocity": 0.5905511811023622,
          "duration": 0.10344824999998536
        },
        {
          "name": "A4",
          "midi": 69,
          "time": 302.4826829999983,
          "velocity": 0.5905511811023622,
          "duration": 0.10344824999998536
        },
        {
          "name": "A4",
          "midi": 69,
          "time": 302.5861312499983,
          "velocity": 0.5905511811023622,
          "duration": 0.10344824999998536
        },
        {
          "name": "A4",
          "midi": 69,
          "time": 302.6895794999983,
          "velocity": 0.5905511811023622,
          "duration": 0.10344824999998536
        },
        {
          "name": "A4",
          "midi": 69,
          "time": 302.79302774999826,
          "velocity": 0.5905511811023622,
          "duration": 0.10344824999998536
        },
        {
          "name": "B4",
          "midi": 71,
          "time": 302.89647599999824,
          "velocity": 0.5905511811023622,
          "duration": 0.10344824999998536
        },
        {
          "name": "B4",
          "midi": 71,
          "time": 302.99992424999823,
          "velocity": 0.5905511811023622,
          "duration": 0.10344824999998536
        },
        {
          "name": "B4",
          "midi": 71,
          "time": 303.1033724999982,
          "velocity": 0.5905511811023622,
          "duration": 0.10344824999998536
        },
        {
          "name": "B4",
          "midi": 71,
          "time": 303.2068207499982,
          "velocity": 0.5905511811023622,
          "duration": 0.10344824999998536
        },
        {
          "name": "B4",
          "midi": 71,
          "time": 303.3102689999982,
          "velocity": 0.5905511811023622,
          "duration": 0.10344824999998536
        },
        {
          "name": "B4",
          "midi": 71,
          "time": 303.4137172499982,
          "velocity": 0.5905511811023622,
          "duration": 0.10344824999998536
        },
        {
          "name": "B4",
          "midi": 71,
          "time": 303.51716549999816,
          "velocity": 0.5905511811023622,
          "duration": 0.10344824999998536
        },
        {
          "name": "B4",
          "midi": 71,
          "time": 303.62061374999814,
          "velocity": 0.5905511811023622,
          "duration": 0.10344824999998536
        },
        {
          "name": "B4",
          "midi": 71,
          "time": 303.7240619999981,
          "velocity": 0.5905511811023622,
          "duration": 0.10344824999998536
        },
        {
          "name": "B4",
          "midi": 71,
          "time": 303.8275102499981,
          "velocity": 0.5905511811023622,
          "duration": 0.10344824999998536
        },
        {
          "name": "B4",
          "midi": 71,
          "time": 303.9309584999981,
          "velocity": 0.5905511811023622,
          "duration": 0.10344824999998536
        },
        {
          "name": "B4",
          "midi": 71,
          "time": 304.0344067499981,
          "velocity": 0.5905511811023622,
          "duration": 0.10344824999998536
        },
        {
          "name": "B4",
          "midi": 71,
          "time": 304.13785499999807,
          "velocity": 0.5905511811023622,
          "duration": 0.10344824999998536
        },
        {
          "name": "B4",
          "midi": 71,
          "time": 304.24130324999805,
          "velocity": 0.5905511811023622,
          "duration": 0.10344824999998536
        },
        {
          "name": "B4",
          "midi": 71,
          "time": 304.34475149999804,
          "velocity": 0.5905511811023622,
          "duration": 0.10344824999998536
        },
        {
          "name": "B4",
          "midi": 71,
          "time": 304.448199749998,
          "velocity": 0.5905511811023622,
          "duration": 0.09913790625000729
        },
        {
          "name": "E4",
          "midi": 64,
          "time": 306.20681999999806,
          "velocity": 0.8503937007874016,
          "duration": 3.206895750000001
        },
        {
          "name": "C5",
          "midi": 72,
          "time": 306.20681999999806,
          "velocity": 0.8503937007874016,
          "duration": 3.206895750000001
        }
      ],
      "controlChanges": {
        "7": [
          {
            "number": 7,
            "time": 0,
            "value": 1
          }
        ],
        "10": [
          {
            "number": 10,
            "time": 0,
            "value": 0.5039370078740157
          }
        ],
        "64": [
          {
            "number": 64,
            "time": 0,
            "value": 1
          },
          {
            "number": 64,
            "time": 1.655172,
            "value": 0
          },
          {
            "number": 64,
            "time": 1.655172,
            "value": 1
          },
          {
            "number": 64,
            "time": 3.310344,
            "value": 0
          },
          {
            "number": 64,
            "time": 3.310344,
            "value": 1
          },
          {
            "number": 64,
            "time": 4.965516,
            "value": 0
          },
          {
            "number": 64,
            "time": 4.965516,
            "value": 1
          },
          {
            "number": 64,
            "time": 6.620688,
            "value": 0
          },
          {
            "number": 64,
            "time": 6.620688,
            "value": 1
          },
          {
            "number": 64,
            "time": 8.27586,
            "value": 0
          },
          {
            "number": 64,
            "time": 8.27586,
            "value": 1
          },
          {
            "number": 64,
            "time": 9.931032,
            "value": 0
          },
          {
            "number": 64,
            "time": 9.931032,
            "value": 1
          },
          {
            "number": 64,
            "time": 11.586204,
            "value": 0
          },
          {
            "number": 64,
            "time": 11.586204,
            "value": 1
          },
          {
            "number": 64,
            "time": 13.241376,
            "value": 0
          },
          {
            "number": 64,
            "time": 13.241376,
            "value": 1
          },
          {
            "number": 64,
            "time": 14.896548000000001,
            "value": 0
          },
          {
            "number": 64,
            "time": 14.896548000000001,
            "value": 1
          },
          {
            "number": 64,
            "time": 16.55172,
            "value": 0
          },
          {
            "number": 64,
            "time": 16.55172,
            "value": 1
          },
          {
            "number": 64,
            "time": 18.206892,
            "value": 0
          },
          {
            "number": 64,
            "time": 18.206892,
            "value": 1
          },
          {
            "number": 64,
            "time": 19.862064,
            "value": 0
          },
          {
            "number": 64,
            "time": 19.862064,
            "value": 1
          },
          {
            "number": 64,
            "time": 21.517236,
            "value": 0
          },
          {
            "number": 64,
            "time": 21.517236,
            "value": 1
          },
          {
            "number": 64,
            "time": 23.172408,
            "value": 0
          },
          {
            "number": 64,
            "time": 23.172408,
            "value": 1
          },
          {
            "number": 64,
            "time": 24.82758,
            "value": 0
          },
          {
            "number": 64,
            "time": 24.82758,
            "value": 1
          },
          {
            "number": 64,
            "time": 26.482752,
            "value": 0
          },
          {
            "number": 64,
            "time": 26.482752,
            "value": 1
          },
          {
            "number": 64,
            "time": 28.137924,
            "value": 0
          },
          {
            "number": 64,
            "time": 28.137924,
            "value": 1
          },
          {
            "number": 64,
            "time": 29.793096000000002,
            "value": 0
          },
          {
            "number": 64,
            "time": 29.793096000000002,
            "value": 1
          },
          {
            "number": 64,
            "time": 31.448268000000002,
            "value": 0
          },
          {
            "number": 64,
            "time": 31.448268000000002,
            "value": 1
          },
          {
            "number": 64,
            "time": 33.10344,
            "value": 0
          },
          {
            "number": 64,
            "time": 33.10344,
            "value": 1
          },
          {
            "number": 64,
            "time": 34.758612,
            "value": 0
          },
          {
            "number": 64,
            "time": 34.758612,
            "value": 1
          },
          {
            "number": 64,
            "time": 36.41378399999999,
            "value": 0
          },
          {
            "number": 64,
            "time": 36.41378399999999,
            "value": 1
          },
          {
            "number": 64,
            "time": 38.06895599999999,
            "value": 0
          },
          {
            "number": 64,
            "time": 38.06895599999999,
            "value": 1
          },
          {
            "number": 64,
            "time": 39.724127999999986,
            "value": 0
          },
          {
            "number": 64,
            "time": 39.724127999999986,
            "value": 1
          },
          {
            "number": 64,
            "time": 41.379299999999986,
            "value": 0
          },
          {
            "number": 64,
            "time": 41.379299999999986,
            "value": 1
          },
          {
            "number": 64,
            "time": 43.03447199999998,
            "value": 0
          },
          {
            "number": 64,
            "time": 43.03447199999998,
            "value": 1
          },
          {
            "number": 64,
            "time": 44.68964399999997,
            "value": 0
          },
          {
            "number": 64,
            "time": 44.68964399999997,
            "value": 1
          },
          {
            "number": 64,
            "time": 46.344815999999966,
            "value": 0
          },
          {
            "number": 64,
            "time": 46.344815999999966,
            "value": 1
          },
          {
            "number": 64,
            "time": 47.99998799999996,
            "value": 0
          },
          {
            "number": 64,
            "time": 47.99998799999996,
            "value": 1
          },
          {
            "number": 64,
            "time": 49.65515999999995,
            "value": 0
          },
          {
            "number": 64,
            "time": 49.65515999999995,
            "value": 1
          },
          {
            "number": 64,
            "time": 51.310331999999946,
            "value": 0
          },
          {
            "number": 64,
            "time": 51.310331999999946,
            "value": 1
          },
          {
            "number": 64,
            "time": 52.96550399999994,
            "value": 0
          },
          {
            "number": 64,
            "time": 52.96550399999994,
            "value": 1
          },
          {
            "number": 64,
            "time": 54.62067599999993,
            "value": 0
          },
          {
            "number": 64,
            "time": 54.62067599999993,
            "value": 1
          },
          {
            "number": 64,
            "time": 56.275847999999925,
            "value": 0
          },
          {
            "number": 64,
            "time": 56.275847999999925,
            "value": 1
          },
          {
            "number": 64,
            "time": 57.93101999999992,
            "value": 0
          },
          {
            "number": 64,
            "time": 57.93101999999992,
            "value": 1
          },
          {
            "number": 64,
            "time": 59.58619199999991,
            "value": 0
          },
          {
            "number": 64,
            "time": 59.58619199999991,
            "value": 1
          },
          {
            "number": 64,
            "time": 61.241363999999905,
            "value": 0
          },
          {
            "number": 64,
            "time": 61.241363999999905,
            "value": 1
          },
          {
            "number": 64,
            "time": 62.8965359999999,
            "value": 0
          },
          {
            "number": 64,
            "time": 62.8965359999999,
            "value": 1
          },
          {
            "number": 64,
            "time": 64.55170799999989,
            "value": 0
          },
          {
            "number": 64,
            "time": 64.55170799999989,
            "value": 1
          },
          {
            "number": 64,
            "time": 66.20687999999988,
            "value": 0
          },
          {
            "number": 64,
            "time": 66.20687999999988,
            "value": 1
          },
          {
            "number": 64,
            "time": 67.86205199999988,
            "value": 0
          },
          {
            "number": 64,
            "time": 67.86205199999988,
            "value": 1
          },
          {
            "number": 64,
            "time": 69.51722399999987,
            "value": 0
          },
          {
            "number": 64,
            "time": 69.51722399999987,
            "value": 1
          },
          {
            "number": 64,
            "time": 71.17239599999986,
            "value": 0
          },
          {
            "number": 64,
            "time": 71.17239599999986,
            "value": 1
          },
          {
            "number": 64,
            "time": 72.82756799999986,
            "value": 0
          },
          {
            "number": 64,
            "time": 72.82756799999986,
            "value": 1
          },
          {
            "number": 64,
            "time": 74.48273999999985,
            "value": 0
          },
          {
            "number": 64,
            "time": 74.48273999999985,
            "value": 1
          },
          {
            "number": 64,
            "time": 76.13791199999984,
            "value": 0
          },
          {
            "number": 64,
            "time": 76.13791199999984,
            "value": 1
          },
          {
            "number": 64,
            "time": 77.79308399999984,
            "value": 0
          },
          {
            "number": 64,
            "time": 77.79308399999984,
            "value": 1
          },
          {
            "number": 64,
            "time": 79.44825599999983,
            "value": 0
          },
          {
            "number": 64,
            "time": 79.44825599999983,
            "value": 1
          },
          {
            "number": 64,
            "time": 81.10342799999982,
            "value": 0
          },
          {
            "number": 64,
            "time": 81.10342799999982,
            "value": 1
          },
          {
            "number": 64,
            "time": 82.75859999999982,
            "value": 0
          },
          {
            "number": 64,
            "time": 82.75859999999982,
            "value": 1
          },
          {
            "number": 64,
            "time": 84.41377199999981,
            "value": 0
          },
          {
            "number": 64,
            "time": 84.41377199999981,
            "value": 1
          },
          {
            "number": 64,
            "time": 86.0689439999998,
            "value": 0
          },
          {
            "number": 64,
            "time": 86.0689439999998,
            "value": 1
          },
          {
            "number": 64,
            "time": 87.7241159999998,
            "value": 0
          },
          {
            "number": 64,
            "time": 87.7241159999998,
            "value": 1
          },
          {
            "number": 64,
            "time": 89.37928799999979,
            "value": 0
          },
          {
            "number": 64,
            "time": 89.37928799999979,
            "value": 1
          },
          {
            "number": 64,
            "time": 91.03445999999978,
            "value": 0
          },
          {
            "number": 64,
            "time": 91.03445999999978,
            "value": 1
          },
          {
            "number": 64,
            "time": 92.68963199999978,
            "value": 0
          },
          {
            "number": 64,
            "time": 92.68963199999978,
            "value": 1
          },
          {
            "number": 64,
            "time": 94.34480399999977,
            "value": 0
          },
          {
            "number": 64,
            "time": 94.34480399999977,
            "value": 1
          },
          {
            "number": 64,
            "time": 95.99997599999976,
            "value": 0
          },
          {
            "number": 64,
            "time": 95.99997599999976,
            "value": 1
          },
          {
            "number": 64,
            "time": 97.65514799999976,
            "value": 0
          },
          {
            "number": 64,
            "time": 97.65514799999976,
            "value": 1
          },
          {
            "number": 64,
            "time": 99.31031999999975,
            "value": 0
          },
          {
            "number": 64,
            "time": 99.31031999999975,
            "value": 1
          },
          {
            "number": 64,
            "time": 100.96549199999974,
            "value": 0
          },
          {
            "number": 64,
            "time": 100.96549199999974,
            "value": 1
          },
          {
            "number": 64,
            "time": 102.62066399999973,
            "value": 0
          },
          {
            "number": 64,
            "time": 102.62066399999973,
            "value": 1
          },
          {
            "number": 64,
            "time": 104.27583599999973,
            "value": 0
          },
          {
            "number": 64,
            "time": 104.27583599999973,
            "value": 1
          },
          {
            "number": 64,
            "time": 105.93100799999972,
            "value": 0
          },
          {
            "number": 64,
            "time": 105.93100799999972,
            "value": 1
          },
          {
            "number": 64,
            "time": 107.58617999999971,
            "value": 0
          },
          {
            "number": 64,
            "time": 107.58617999999971,
            "value": 1
          },
          {
            "number": 64,
            "time": 109.24135199999971,
            "value": 0
          },
          {
            "number": 64,
            "time": 109.24135199999971,
            "value": 1
          },
          {
            "number": 64,
            "time": 110.8965239999997,
            "value": 0
          },
          {
            "number": 64,
            "time": 110.8965239999997,
            "value": 1
          },
          {
            "number": 64,
            "time": 112.5516959999997,
            "value": 0
          },
          {
            "number": 64,
            "time": 112.5516959999997,
            "value": 1
          },
          {
            "number": 64,
            "time": 114.20686799999969,
            "value": 0
          },
          {
            "number": 64,
            "time": 114.20686799999969,
            "value": 1
          },
          {
            "number": 64,
            "time": 115.86203999999968,
            "value": 0
          },
          {
            "number": 64,
            "time": 115.86203999999968,
            "value": 1
          },
          {
            "number": 64,
            "time": 117.51721199999967,
            "value": 0
          },
          {
            "number": 64,
            "time": 117.51721199999967,
            "value": 1
          },
          {
            "number": 64,
            "time": 119.17238399999967,
            "value": 0
          },
          {
            "number": 64,
            "time": 119.17238399999967,
            "value": 1
          },
          {
            "number": 64,
            "time": 120.82755599999966,
            "value": 0
          },
          {
            "number": 64,
            "time": 120.82755599999966,
            "value": 1
          },
          {
            "number": 64,
            "time": 122.48272799999965,
            "value": 0
          },
          {
            "number": 64,
            "time": 122.48272799999965,
            "value": 1
          },
          {
            "number": 64,
            "time": 124.13789999999965,
            "value": 0
          },
          {
            "number": 64,
            "time": 124.13789999999965,
            "value": 1
          },
          {
            "number": 64,
            "time": 125.79307199999964,
            "value": 0
          },
          {
            "number": 64,
            "time": 125.79307199999964,
            "value": 1
          },
          {
            "number": 64,
            "time": 127.44824399999963,
            "value": 0
          },
          {
            "number": 64,
            "time": 127.44824399999963,
            "value": 1
          },
          {
            "number": 64,
            "time": 129.10341599999964,
            "value": 0
          },
          {
            "number": 64,
            "time": 129.10341599999964,
            "value": 1
          },
          {
            "number": 64,
            "time": 130.75858799999963,
            "value": 0
          },
          {
            "number": 64,
            "time": 130.75858799999963,
            "value": 1
          },
          {
            "number": 64,
            "time": 132.41375999999963,
            "value": 0
          },
          {
            "number": 64,
            "time": 132.41375999999963,
            "value": 1
          },
          {
            "number": 64,
            "time": 134.06893199999962,
            "value": 0
          },
          {
            "number": 64,
            "time": 134.06893199999962,
            "value": 1
          },
          {
            "number": 64,
            "time": 135.7241039999996,
            "value": 0
          },
          {
            "number": 64,
            "time": 135.7241039999996,
            "value": 1
          },
          {
            "number": 64,
            "time": 137.3792759999996,
            "value": 0
          },
          {
            "number": 64,
            "time": 137.3792759999996,
            "value": 1
          },
          {
            "number": 64,
            "time": 139.0344479999996,
            "value": 0
          },
          {
            "number": 64,
            "time": 139.0344479999996,
            "value": 1
          },
          {
            "number": 64,
            "time": 140.6896199999996,
            "value": 0
          },
          {
            "number": 64,
            "time": 140.6896199999996,
            "value": 1
          },
          {
            "number": 64,
            "time": 142.3447919999996,
            "value": 0
          },
          {
            "number": 64,
            "time": 142.3447919999996,
            "value": 1
          },
          {
            "number": 64,
            "time": 143.99996399999958,
            "value": 0
          },
          {
            "number": 64,
            "time": 143.99996399999958,
            "value": 1
          },
          {
            "number": 64,
            "time": 145.65513599999957,
            "value": 0
          },
          {
            "number": 64,
            "time": 145.65513599999957,
            "value": 1
          },
          {
            "number": 64,
            "time": 147.31030799999957,
            "value": 0
          },
          {
            "number": 64,
            "time": 147.31030799999957,
            "value": 1
          },
          {
            "number": 64,
            "time": 148.96547999999956,
            "value": 0
          },
          {
            "number": 64,
            "time": 148.96547999999956,
            "value": 1
          },
          {
            "number": 64,
            "time": 150.62065199999955,
            "value": 0
          },
          {
            "number": 64,
            "time": 150.62065199999955,
            "value": 1
          },
          {
            "number": 64,
            "time": 152.27582399999955,
            "value": 0
          },
          {
            "number": 64,
            "time": 152.27582399999955,
            "value": 1
          },
          {
            "number": 64,
            "time": 153.93099599999954,
            "value": 0
          },
          {
            "number": 64,
            "time": 153.93099599999954,
            "value": 1
          },
          {
            "number": 64,
            "time": 155.58616799999953,
            "value": 0
          },
          {
            "number": 64,
            "time": 155.58616799999953,
            "value": 1
          },
          {
            "number": 64,
            "time": 157.24133999999952,
            "value": 0
          },
          {
            "number": 64,
            "time": 157.24133999999952,
            "value": 1
          },
          {
            "number": 64,
            "time": 158.89651199999952,
            "value": 0
          },
          {
            "number": 64,
            "time": 158.89651199999952,
            "value": 1
          },
          {
            "number": 64,
            "time": 160.5516839999995,
            "value": 0
          },
          {
            "number": 64,
            "time": 160.5516839999995,
            "value": 1
          },
          {
            "number": 64,
            "time": 162.2068559999995,
            "value": 0
          },
          {
            "number": 64,
            "time": 162.2068559999995,
            "value": 1
          },
          {
            "number": 64,
            "time": 163.8620279999995,
            "value": 0
          },
          {
            "number": 64,
            "time": 163.8620279999995,
            "value": 1
          },
          {
            "number": 64,
            "time": 165.5171999999995,
            "value": 0
          },
          {
            "number": 64,
            "time": 165.5171999999995,
            "value": 1
          },
          {
            "number": 64,
            "time": 167.17237199999948,
            "value": 0
          },
          {
            "number": 64,
            "time": 167.17237199999948,
            "value": 1
          },
          {
            "number": 64,
            "time": 168.82754399999948,
            "value": 0
          },
          {
            "number": 64,
            "time": 168.82754399999948,
            "value": 1
          },
          {
            "number": 64,
            "time": 170.48271599999947,
            "value": 0
          },
          {
            "number": 64,
            "time": 170.48271599999947,
            "value": 1
          },
          {
            "number": 64,
            "time": 172.13788799999946,
            "value": 0
          },
          {
            "number": 64,
            "time": 172.13788799999946,
            "value": 1
          },
          {
            "number": 64,
            "time": 173.79305999999946,
            "value": 0
          },
          {
            "number": 64,
            "time": 173.79305999999946,
            "value": 1
          },
          {
            "number": 64,
            "time": 175.44823199999945,
            "value": 0
          },
          {
            "number": 64,
            "time": 175.44823199999945,
            "value": 1
          },
          {
            "number": 64,
            "time": 177.10340399999944,
            "value": 0
          },
          {
            "number": 64,
            "time": 177.10340399999944,
            "value": 1
          },
          {
            "number": 64,
            "time": 178.75857599999944,
            "value": 0
          },
          {
            "number": 64,
            "time": 178.75857599999944,
            "value": 1
          },
          {
            "number": 64,
            "time": 180.41374799999943,
            "value": 0
          },
          {
            "number": 64,
            "time": 180.41374799999943,
            "value": 1
          },
          {
            "number": 64,
            "time": 182.06891999999945,
            "value": 0
          },
          {
            "number": 64,
            "time": 182.06891999999945,
            "value": 1
          },
          {
            "number": 64,
            "time": 183.72409199999944,
            "value": 0
          },
          {
            "number": 64,
            "time": 183.72409199999944,
            "value": 1
          },
          {
            "number": 64,
            "time": 185.37926399999944,
            "value": 0
          },
          {
            "number": 64,
            "time": 185.37926399999944,
            "value": 1
          },
          {
            "number": 64,
            "time": 187.03443599999943,
            "value": 0
          },
          {
            "number": 64,
            "time": 187.03443599999943,
            "value": 1
          },
          {
            "number": 64,
            "time": 188.68960799999942,
            "value": 0
          },
          {
            "number": 64,
            "time": 188.68960799999942,
            "value": 1
          },
          {
            "number": 64,
            "time": 190.34477999999942,
            "value": 0
          },
          {
            "number": 64,
            "time": 190.34477999999942,
            "value": 1
          },
          {
            "number": 64,
            "time": 191.9999519999994,
            "value": 0
          },
          {
            "number": 64,
            "time": 191.9999519999994,
            "value": 1
          },
          {
            "number": 64,
            "time": 193.6551239999994,
            "value": 0
          },
          {
            "number": 64,
            "time": 193.6551239999994,
            "value": 1
          },
          {
            "number": 64,
            "time": 195.3102959999994,
            "value": 0
          },
          {
            "number": 64,
            "time": 195.3102959999994,
            "value": 1
          },
          {
            "number": 64,
            "time": 196.9654679999994,
            "value": 0
          },
          {
            "number": 64,
            "time": 196.9654679999994,
            "value": 1
          },
          {
            "number": 64,
            "time": 198.62063999999938,
            "value": 0
          },
          {
            "number": 64,
            "time": 198.62063999999938,
            "value": 1
          },
          {
            "number": 64,
            "time": 200.27581199999938,
            "value": 0
          },
          {
            "number": 64,
            "time": 200.27581199999938,
            "value": 1
          },
          {
            "number": 64,
            "time": 201.93098399999937,
            "value": 0
          },
          {
            "number": 64,
            "time": 201.93098399999937,
            "value": 1
          },
          {
            "number": 64,
            "time": 203.58615599999936,
            "value": 0
          },
          {
            "number": 64,
            "time": 203.58615599999936,
            "value": 1
          },
          {
            "number": 64,
            "time": 205.24132799999936,
            "value": 0
          },
          {
            "number": 64,
            "time": 205.24132799999936,
            "value": 1
          },
          {
            "number": 64,
            "time": 206.89649999999935,
            "value": 0
          },
          {
            "number": 64,
            "time": 206.89649999999935,
            "value": 1
          },
          {
            "number": 64,
            "time": 208.55167199999934,
            "value": 0
          },
          {
            "number": 64,
            "time": 208.55167199999934,
            "value": 1
          },
          {
            "number": 64,
            "time": 210.20684399999934,
            "value": 0
          },
          {
            "number": 64,
            "time": 210.20684399999934,
            "value": 1
          },
          {
            "number": 64,
            "time": 211.86201599999933,
            "value": 0
          },
          {
            "number": 64,
            "time": 211.86201599999933,
            "value": 1
          },
          {
            "number": 64,
            "time": 213.51718799999932,
            "value": 0
          },
          {
            "number": 64,
            "time": 213.51718799999932,
            "value": 1
          },
          {
            "number": 64,
            "time": 215.17235999999932,
            "value": 0
          },
          {
            "number": 64,
            "time": 215.17235999999932,
            "value": 1
          },
          {
            "number": 64,
            "time": 216.8275319999993,
            "value": 0
          },
          {
            "number": 64,
            "time": 216.8275319999993,
            "value": 1
          },
          {
            "number": 64,
            "time": 218.4827039999993,
            "value": 0
          },
          {
            "number": 64,
            "time": 218.4827039999993,
            "value": 1
          },
          {
            "number": 64,
            "time": 220.1378759999993,
            "value": 0
          },
          {
            "number": 64,
            "time": 220.1378759999993,
            "value": 1
          },
          {
            "number": 64,
            "time": 221.7930479999993,
            "value": 0
          },
          {
            "number": 64,
            "time": 221.7930479999993,
            "value": 1
          },
          {
            "number": 64,
            "time": 223.44821999999928,
            "value": 0
          },
          {
            "number": 64,
            "time": 223.44821999999928,
            "value": 1
          },
          {
            "number": 64,
            "time": 225.10339199999927,
            "value": 0
          },
          {
            "number": 64,
            "time": 225.10339199999927,
            "value": 1
          },
          {
            "number": 64,
            "time": 226.75856399999927,
            "value": 0
          },
          {
            "number": 64,
            "time": 226.75856399999927,
            "value": 1
          },
          {
            "number": 64,
            "time": 228.41373599999926,
            "value": 0
          },
          {
            "number": 64,
            "time": 228.41373599999926,
            "value": 1
          },
          {
            "number": 64,
            "time": 230.06890799999925,
            "value": 0
          },
          {
            "number": 64,
            "time": 230.06890799999925,
            "value": 1
          },
          {
            "number": 64,
            "time": 231.72407999999925,
            "value": 0
          },
          {
            "number": 64,
            "time": 231.72407999999925,
            "value": 1
          },
          {
            "number": 64,
            "time": 233.37925199999924,
            "value": 0
          },
          {
            "number": 64,
            "time": 233.37925199999924,
            "value": 1
          },
          {
            "number": 64,
            "time": 235.03442399999923,
            "value": 0
          },
          {
            "number": 64,
            "time": 235.03442399999923,
            "value": 1
          },
          {
            "number": 64,
            "time": 236.68959599999923,
            "value": 0
          },
          {
            "number": 64,
            "time": 236.68959599999923,
            "value": 1
          },
          {
            "number": 64,
            "time": 238.34476799999922,
            "value": 0
          },
          {
            "number": 64,
            "time": 238.34476799999922,
            "value": 1
          },
          {
            "number": 64,
            "time": 239.9999399999992,
            "value": 0
          },
          {
            "number": 64,
            "time": 239.9999399999992,
            "value": 1
          },
          {
            "number": 64,
            "time": 241.6551119999992,
            "value": 0
          },
          {
            "number": 64,
            "time": 241.6551119999992,
            "value": 1
          },
          {
            "number": 64,
            "time": 243.3102839999992,
            "value": 0
          },
          {
            "number": 64,
            "time": 243.3102839999992,
            "value": 1
          },
          {
            "number": 64,
            "time": 244.9654559999992,
            "value": 0
          },
          {
            "number": 64,
            "time": 244.9654559999992,
            "value": 1
          },
          {
            "number": 64,
            "time": 246.6206279999992,
            "value": 0
          },
          {
            "number": 64,
            "time": 246.6206279999992,
            "value": 1
          },
          {
            "number": 64,
            "time": 248.27579999999918,
            "value": 0
          },
          {
            "number": 64,
            "time": 248.27579999999918,
            "value": 1
          },
          {
            "number": 64,
            "time": 249.93097199999917,
            "value": 0
          },
          {
            "number": 64,
            "time": 249.93097199999917,
            "value": 1
          },
          {
            "number": 64,
            "time": 251.58614399999917,
            "value": 0
          },
          {
            "number": 64,
            "time": 251.58614399999917,
            "value": 1
          },
          {
            "number": 64,
            "time": 253.24131599999916,
            "value": 0
          },
          {
            "number": 64,
            "time": 253.24131599999916,
            "value": 1
          },
          {
            "number": 64,
            "time": 254.89648799999915,
            "value": 0
          },
          {
            "number": 64,
            "time": 254.89648799999915,
            "value": 1
          },
          {
            "number": 64,
            "time": 256.55165999999923,
            "value": 0
          },
          {
            "number": 64,
            "time": 256.55165999999923,
            "value": 1
          },
          {
            "number": 64,
            "time": 258.20683199999945,
            "value": 0
          },
          {
            "number": 64,
            "time": 258.20683199999945,
            "value": 1
          },
          {
            "number": 64,
            "time": 259.8620039999996,
            "value": 0
          },
          {
            "number": 64,
            "time": 259.8620039999996,
            "value": 1
          },
          {
            "number": 64,
            "time": 261.51717599999984,
            "value": 0
          },
          {
            "number": 64,
            "time": 261.51717599999984,
            "value": 1
          },
          {
            "number": 64,
            "time": 263.17234800000006,
            "value": 0
          },
          {
            "number": 64,
            "time": 263.17234800000006,
            "value": 1
          },
          {
            "number": 64,
            "time": 264.8275200000002,
            "value": 0
          },
          {
            "number": 64,
            "time": 264.8275200000002,
            "value": 1
          },
          {
            "number": 64,
            "time": 266.48269200000044,
            "value": 0
          },
          {
            "number": 64,
            "time": 266.48269200000044,
            "value": 1
          },
          {
            "number": 64,
            "time": 268.13786400000066,
            "value": 0
          },
          {
            "number": 64,
            "time": 268.13786400000066,
            "value": 1
          },
          {
            "number": 64,
            "time": 269.7930360000008,
            "value": 0
          },
          {
            "number": 64,
            "time": 269.7930360000008,
            "value": 1
          },
          {
            "number": 64,
            "time": 271.44820800000105,
            "value": 0
          },
          {
            "number": 64,
            "time": 271.44820800000105,
            "value": 1
          },
          {
            "number": 64,
            "time": 273.1033800000012,
            "value": 0
          },
          {
            "number": 64,
            "time": 273.1033800000012,
            "value": 1
          },
          {
            "number": 64,
            "time": 274.75855200000143,
            "value": 0
          },
          {
            "number": 64,
            "time": 274.75855200000143,
            "value": 1
          },
          {
            "number": 64,
            "time": 276.41372400000165,
            "value": 0
          },
          {
            "number": 64,
            "time": 276.41372400000165,
            "value": 1
          },
          {
            "number": 64,
            "time": 278.06889600000176,
            "value": 0
          },
          {
            "number": 64,
            "time": 278.06889600000176,
            "value": 1
          },
          {
            "number": 64,
            "time": 279.7240680000015,
            "value": 0
          },
          {
            "number": 64,
            "time": 279.7240680000015,
            "value": 1
          },
          {
            "number": 64,
            "time": 281.3792400000013,
            "value": 0
          },
          {
            "number": 64,
            "time": 281.3792400000013,
            "value": 1
          },
          {
            "number": 64,
            "time": 283.03441200000105,
            "value": 0
          },
          {
            "number": 64,
            "time": 283.03441200000105,
            "value": 1
          },
          {
            "number": 64,
            "time": 284.6895840000008,
            "value": 0
          },
          {
            "number": 64,
            "time": 284.6895840000008,
            "value": 1
          },
          {
            "number": 64,
            "time": 286.3447560000006,
            "value": 0
          },
          {
            "number": 64,
            "time": 286.3447560000006,
            "value": 1
          },
          {
            "number": 64,
            "time": 287.99992800000035,
            "value": 0
          },
          {
            "number": 64,
            "time": 287.99992800000035,
            "value": 1
          },
          {
            "number": 64,
            "time": 289.6551000000001,
            "value": 0
          },
          {
            "number": 64,
            "time": 289.6551000000001,
            "value": 1
          },
          {
            "number": 64,
            "time": 291.3102719999999,
            "value": 0
          },
          {
            "number": 64,
            "time": 291.3102719999999,
            "value": 1
          },
          {
            "number": 64,
            "time": 292.96544399999965,
            "value": 0
          },
          {
            "number": 64,
            "time": 292.96544399999965,
            "value": 1
          },
          {
            "number": 64,
            "time": 294.6206159999994,
            "value": 0
          },
          {
            "number": 64,
            "time": 294.6206159999994,
            "value": 1
          },
          {
            "number": 64,
            "time": 296.2757879999992,
            "value": 0
          },
          {
            "number": 64,
            "time": 296.2757879999992,
            "value": 1
          },
          {
            "number": 64,
            "time": 297.93095999999895,
            "value": 0
          },
          {
            "number": 64,
            "time": 297.93095999999895,
            "value": 1
          },
          {
            "number": 64,
            "time": 299.5861319999987,
            "value": 0
          },
          {
            "number": 64,
            "time": 299.5861319999987,
            "value": 1
          },
          {
            "number": 64,
            "time": 301.2413039999985,
            "value": 0
          },
          {
            "number": 64,
            "time": 301.2413039999985,
            "value": 1
          },
          {
            "number": 64,
            "time": 302.89647599999824,
            "value": 0
          },
          {
            "number": 64,
            "time": 302.89647599999824,
            "value": 1
          },
          {
            "number": 64,
            "time": 306.20681999999806,
            "value": 0
          },
          {
            "number": 64,
            "time": 306.20681999999806,
            "value": 1
          },
          {
            "number": 64,
            "time": 307.86199199999805,
            "value": 0
          },
          {
            "number": 64,
            "time": 307.86199199999805,
            "value": 1
          },
          {
            "number": 64,
            "time": 309.51716399999805,
            "value": 0
          }
        ]
      },
      "id": 1,
      "name": "Staff",
      "instrumentNumber": 1,
      "instrument": "bright acoustic piano",
      "instrumentFamily": "piano",
      "channelNumber": 0,
      "isPercussion": false
    }
  ]
}