{
  "header": {
    "PPQ": 192,
    "bpm": 145.00003625000906,
    "timeSignature": [
      4,
      4
    ],
    "name": "Kánon D-dur"
  },
  "tempo": [
    {
      "absoluteTime": 0,
      "seconds": 0,
      "bpm": 145.00003625000906
    },
    {
      "absoluteTime": 136704,
      "seconds": 294.62061600000004,
      "bpm": 142.0000710000355
    },
    {
      "absoluteTime": 136857,
      "seconds": 294.95035729687504,
      "bpm": 141.00030315065177
    },
    {
      "absoluteTime": 137011,
      "seconds": 295.28225376562506,
      "bpm": 140.00014000014
    },
    {
      "absoluteTime": 137164,
      "seconds": 295.61199506250006,
      "bpm": 139.00021776700783
    },
    {
      "absoluteTime": 137318,
      "seconds": 295.9438915312501,
      "bpm": 138.00019320027047
    },
    {
      "absoluteTime": 137472,
      "seconds": 296.2757880000001,
      "bpm": 137.00006393336318
    },
    {
      "absoluteTime": 137625,
      "seconds": 296.6055292968751,
      "bpm": 136.0001450668214
    },
    {
      "absoluteTime": 137779,
      "seconds": 296.9374257656251,
      "bpm": 135.000135000135
    },
    {
      "absoluteTime": 137932,
      "seconds": 297.2671670625001,
      "bpm": 134.00005806669182
    },
    {
      "absoluteTime": 138086,
      "seconds": 297.5990635312501,
      "bpm": 133.00024161710562
    },
    {
      "absoluteTime": 138240,
      "seconds": 297.93096000000014,
      "bpm": 132.000132000132
    },
    {
      "absoluteTime": 138393,
      "seconds": 298.26070129687514,
      "bpm": 131.00007641671124
    },
    {
      "absoluteTime": 138547,
      "seconds": 298.59259776562516,
      "bpm": 130.00013000013
    },
    {
      "absoluteTime": 138700,
      "seconds": 298.92233906250016,
      "bpm": 129.00007740004645
    },
    {
      "absoluteTime": 138854,
      "seconds": 299.2542355312502,
      "bpm": 128
    },
    {
      "absoluteTime": 139008,
      "seconds": 299.5861320000002,
      "bpm": 127.00025400050801
    },
    {
      "absoluteTime": 139161,
      "seconds": 299.9158732968752,
      "bpm": 126.000126000126
    },
    {
      "absoluteTime": 139315,
      "seconds": 300.2477697656252,
      "bpm": 125
    },
    {
      "absoluteTime": 139468,
      "seconds": 300.5775110625002,
      "bpm": 124.000248000496
    },
    {
      "absoluteTime": 139622,
      "seconds": 300.9094075312502,
      "bpm": 123.00022140039852
    },
    {
      "absoluteTime": 139776,
      "seconds": 301.24130400000024,
      "bpm": 122.0000691333725
    },
    {
      "absoluteTime": 139929,
      "seconds": 301.57104529687524,
      "bpm": 121.0001875502907
    },
    {
      "absoluteTime": 140083,
      "seconds": 301.90294176562526,
      "bpm": 120
    },
    {
      "absoluteTime": 140236,
      "seconds": 302.23268306250026,
      "bpm": 119.00016065021688
    },
    {
      "absoluteTime": 140390,
      "seconds": 302.5645795312503,
      "bpm": 118.0001337334849
    },
    {
      "absoluteTime": 140544,
      "seconds": 302.8964760000003,
      "bpm": 117.000117000117
    },
    {
      "absoluteTime": 140697,
      "seconds": 303.2262172968753,
      "bpm": 116.00008506672904
    },
    {
      "absoluteTime": 140851,
      "seconds": 303.5581137656253,
      "bpm": 115.00002875000719
    },
    {
      "absoluteTime": 141004,
      "seconds": 303.8878550625003,
      "bpm": 114.0001710002565
    },
    {
      "absoluteTime": 141158,
      "seconds": 304.2197515312503,
      "bpm": 113.00009605008164
    },
    {
      "absoluteTime": 141312,
      "seconds": 304.55164800000034,
      "bpm": 112.00005973336519
    }
  ],
  "timeSignature": [
    {
      "absoluteTime": 0,
      "seconds": 0,
      "numerator": 4,
      "denominator": 2,
      "click": 24,
      "notesQ": 8
    }
  ],
  "startTime": 0,
  "duration": 309.4137157499989,
  "tracks": [
    {
      "startTime": 0,
      "duration": 309.41371574999806,
      "length": 1487,
      "notes": [
        {
          "name": "G3",
          "midi": 55,
          "time": 0,
          "velocity": 0.5905511811023622,
          "duration": 1.655172
        },
        {
          "name": "E4",
          "midi": 64,
          "time": 0,
          "velocity": 0.5905511811023622,
          "duration": 1.655172
        },
        {
          "name": "D3",
          "midi": 50,
          "time": 1.655172,
          "velocity": 0.5905511811023622,
          "duration": 1.655172
        },
        {
          "name": "B3",
          "midi": 59,
          "time": 1.655172,
          "velocity": 0.5905511811023622,
          "duration": 1.655172
        },
        {
          "name": "E3",
          "midi": 52,
          "time": 3.310344,
          "velocity": 0.5905511811023622,
          "duration": 1.6551719999999999
        },
        {
          "name": "C4",
          "midi": 60,
          "time": 3.310344,
          "velocity": 0.5905511811023622,
          "duration": 1.6551719999999999
        },
        {
          "name": "B2",
          "midi": 47,
          "time": 4.965516,
          "velocity": 0.5905511811023622,
          "duration": 1.6551720000000003
        },
        {
          "name": "G3",
          "midi": 55,
          "time": 4.965516,
          "velocity": 0.5905511811023622,
          "duration": 1.6551720000000003
        },
        {
          "name": "C3",
          "midi": 48,
          "time": 6.620688,
          "velocity": 0.5905511811023622,
          "duration": 1.6551719999999994
        },
        {
          "name": "F3",
          "midi": 53,
          "time": 6.620688,
          "velocity": 0.5905511811023622,
          "duration": 1.6551719999999994
        },
        {
          "name": "A3",
          "midi": 57,
          "time": 6.620688,
          "velocity": 0.5905511811023622,
          "duration": 1.6551719999999994
        },
        {
          "name": "C3",
          "midi": 48,
          "time": 8.27586,
          "velocity": 0.5905511811023622,
          "duration": 1.6551720000000003
        },
        {
          "name": "E3",
          "midi": 52,
          "time": 8.27586,
          "velocity": 0.5905511811023622,
          "duration": 1.6551720000000003
        },
        {
          "name": "C4",
          "midi": 60,
          "time": 8.27586,
          "velocity": 0.5905511811023622,
          "duration": 1.6551720000000003
        },
        {
          "name": "C3",
          "midi": 48,
          "time": 9.931032,
          "velocity": 0.5905511811023622,
          "duration": 1.6551720000000003
        },
        {
          "name": "F3",
          "midi": 53,
          "time": 9.931032,
          "velocity": 0.5905511811023622,
          "duration": 1.6551720000000003
        },
        {
          "name": "A3",
          "midi": 57,
          "time": 9.931032,
          "velocity": 0.5905511811023622,
          "duration": 1.6551720000000003
        },
        {
          "name": "D3",
          "midi": 50,
          "time": 11.586204,
          "velocity": 0.5905511811023622,
          "duration": 1.6551720000000003
        },
        {
          "name": "G3",
          "midi": 55,
          "time": 11.586204,
          "velocity": 0.5905511811023622,
          "duration": 1.6551720000000003
        },
        {
          "name": "B3",
          "midi": 59,
          "time": 11.586204,
          "velocity": 0.5905511811023622,
          "duration": 1.6551720000000003
        },
        {
          "name": "E4",
          "midi": 64,
          "time": 13.241376,
          "velocity": 0.5905511811023622,
          "duration": 1.6551720000000003
        },
        {
          "name": "C5",
          "midi": 72,
          "time": 13.241376,
          "velocity": 0.5905511811023622,
          "duration": 1.6551720000000003
        },
        {
          "name": "E5",
          "midi": 76,
          "time": 13.241376,
          "velocity": 0.5905511811023622,
          "duration": 1.6551720000000003
        },
        {
          "name": "D4",
          "midi": 62,
          "time": 14.896548000000001,
          "velocity": 0.5905511811023622,
          "duration": 1.6551719999999985
        },
        {
          "name": "B4",
          "midi": 71,
          "time": 14.896548000000001,
          "velocity": 0.5905511811023622,
          "duration": 1.6551719999999985
        },
        {
          "name": "D5",
          "midi": 74,
          "time": 14.896548000000001,
          "velocity": 0.5905511811023622,
          "duration": 1.6551719999999985
        },
        {
          "name": "C4",
          "midi": 60,
          "time": 16.55172,
          "velocity": 0.5905511811023622,
          "duration": 1.6551720000000003
        },
        {
          "name": "A4",
          "midi": 69,
          "time": 16.55172,
          "velocity": 0.5905511811023622,
          "duration": 1.6551720000000003
        },
        {
          "name": "C5",
          "midi": 72,
          "time": 16.55172,
          "velocity": 0.5905511811023622,
          "duration": 1.6551720000000003
        },
        {
          "name": "B3",
          "midi": 59,
          "time": 18.206892,
          "velocity": 0.5905511811023622,
          "duration": 1.6551720000000003
        },
        {
          "name": "G4",
          "midi": 67,
          "time": 18.206892,
          "velocity": 0.5905511811023622,
          "duration": 1.6551720000000003
        },
        {
          "name": "B4",
          "midi": 71,
          "time": 18.206892,
          "velocity": 0.5905511811023622,
          "duration": 1.6551720000000003
        },
        {
          "name": "A3",
          "midi": 57,
          "time": 19.862064,
          "velocity": 0.5905511811023622,
          "duration": 1.6551720000000003
        },
        {
          "name": "F4",
          "midi": 65,
          "time": 19.862064,
          "velocity": 0.5905511811023622,
          "duration": 1.6551720000000003
        },
        {
          "name": "A4",
          "midi": 69,
          "time": 19.862064,
          "velocity": 0.5905511811023622,
          "duration": 1.6551720000000003
        },
        {
          "name": "G3",
          "midi": 55,
          "time": 21.517236,
          "velocity": 0.5905511811023622,
          "duration": 1.6551720000000003
        },
        {
          "name": "C4",
          "midi": 60,
          "time": 21.517236,
          "velocity": 0.5905511811023622,
          "duration": 1.6551720000000003
        },
        {
          "name": "G4",
          "midi": 67,
          "time": 21.517236,
          "velocity": 0.5905511811023622,
          "duration": 1.6551720000000003
        },
        {
          "name": "A3",
          "midi": 57,
          "time": 23.172408,
          "velocity": 0.5905511811023622,
          "duration": 1.6551720000000003
        },
        {
          "name": "F4",
          "midi": 65,
          "time": 23.172408,
          "velocity": 0.5905511811023622,
          "duration": 1.6551720000000003
        },
        {
          "name": "A4",
          "midi": 69,
          "time": 23.172408,
          "velocity": 0.5905511811023622,
          "duration": 1.6551720000000003
        },
        {
          "name": "B3",
          "midi": 59,
          "time": 24.82758,
          "velocity": 0.5905511811023622,
          "duration": 1.6551720000000003
        },
        {
          "name": "G4",
          "midi": 67,
          "time": 24.82758,
          "velocity": 0.5905511811023622,
          "duration": 1.6551720000000003
        },
        {
          "name": "B4",
          "midi": 71,
          "time": 24.82758,
          "velocity": 0.5905511811023622,
          "duration": 1.6551720000000003
        },
        {
          "name": "E4",
          "midi": 64,
          "time": 26.482752,
          "velocity": 0.5905511811023622,
          "duration": 1.6551720000000003
        },
        {
          "name": "C5",
          "midi": 72,
          "time": 26.482752,
          "velocity": 0.5905511811023622,
          "duration": 1.6551720000000003
        },
        {
          "name": "E5",
          "midi": 76,
          "time": 26.482752,
          "velocity": 0.5905511811023622,
          "duration": 1.6551720000000003
        },
        {
          "name": "G4",
          "midi": 67,
          "time": 28.137924,
          "velocity": 0.5905511811023622,
          "duration": 1.5517237500000007
        },
        {
          "name": "B4",
          "midi": 71,
          "time": 28.137924,
          "velocity": 0.5905511811023622,
          "duration": 1.5517237500000007
        },
        {
          "name": "D5",
          "midi": 74,
          "time": 28.137924,
          "velocity": 0.5905511811023622,
          "duration": 1.5517237500000007
        },
        {
          "name": "F4",
          "midi": 65,
          "time": 28.965510000000002,
          "velocity": 0.5905511811023622,
          "duration": 0.8275860000000002
        },
        {
          "name": "E4",
          "midi": 64,
          "time": 29.793096000000002,
          "velocity": 0.5905511811023622,
          "duration": 1.6551720000000003
        },
        {
          "name": "A4",
          "midi": 69,
          "time": 29.793096000000002,
          "velocity": 0.5905511811023622,
          "duration": 1.6551720000000003
        },
        {
          "name": "C5",
          "midi": 72,
          "time": 29.793096000000002,
          "velocity": 0.5905511811023622,
          "duration": 1.6551720000000003
        },
        {
          "name": "E4",
          "midi": 64,
          "time": 31.448268000000002,
          "velocity": 0.5905511811023622,
          "duration": 1.5517237499999972
        },
        {
          "name": "G4",
          "midi": 67,
          "time": 31.448268000000002,
          "velocity": 0.5905511811023622,
          "duration": 1.5517237499999972
        },
        {
          "name": "B4",
          "midi": 71,
          "time": 31.448268000000002,
          "velocity": 0.5905511811023622,
          "duration": 1.5517237499999972
        },
        {
          "name": "D4",
          "midi": 62,
          "time": 32.275854,
          "velocity": 0.5905511811023622,
          "duration": 0.8275859999999966
        },
        {
          "name": "A3",
          "midi": 57,
          "time": 33.10344,
          "velocity": 0.5905511811023622,
          "duration": 1.6551720000000003
        },
        {
          "name": "C4",
          "midi": 60,
          "time": 33.10344,
          "velocity": 0.5905511811023622,
          "duration": 1.6551720000000003
        },
        {
          "name": "A4",
          "midi": 69,
          "time": 33.10344,
          "velocity": 0.5905511811023622,
          "duration": 1.6551720000000003
        },
        {
          "name": "G3",
          "midi": 55,
          "time": 34.758612,
          "velocity": 0.5905511811023622,
          "duration": 1.5517237499999936
        },
        {
          "name": "C4",
          "midi": 60,
          "time": 34.758612,
          "velocity": 0.5905511811023622,
          "duration": 1.5517237499999936
        },
        {
          "name": "G4",
          "midi": 67,
          "time": 34.758612,
          "velocity": 0.5905511811023622,
          "duration": 1.5517237499999936
        },
        {
          "name": "E4",
          "midi": 64,
          "time": 35.586197999999996,
          "velocity": 0.5905511811023622,
          "duration": 0.8275859999999966
        },
        {
          "name": "A3",
          "midi": 57,
          "time": 36.41378399999999,
          "velocity": 0.5905511811023622,
          "duration": 1.6551720000000003
        },
        {
          "name": "D4",
          "midi": 62,
          "time": 36.41378399999999,
          "velocity": 0.5905511811023622,
          "duration": 1.6551720000000003
        },
        {
          "name": "A4",
          "midi": 69,
          "time": 36.41378399999999,
          "velocity": 0.5905511811023622,
          "duration": 1.6551720000000003
        },
        {
          "name": "B3",
          "midi": 59,
          "time": 38.06895599999999,
          "velocity": 0.5905511811023622,
          "duration": 1.5517237499999936
        },
        {
          "name": "G4",
          "midi": 67,
          "time": 38.06895599999999,
          "velocity": 0.5905511811023622,
          "duration": 1.5517237499999936
        },
        {
          "name": "B4",
          "midi": 71,
          "time": 38.06895599999999,
          "velocity": 0.5905511811023622,
          "duration": 1.5517237499999936
        },
        {
          "name": "F4",
          "midi": 65,
          "time": 38.89654199999999,
          "velocity": 0.5905511811023622,
          "duration": 0.8275859999999966
        },
        {
          "name": "E4",
          "midi": 64,
          "time": 39.724127999999986,
          "velocity": 0.5905511811023622,
          "duration": 1.6551720000000003
        },
        {
          "name": "C5",
          "midi": 72,
          "time": 39.724127999999986,
          "velocity": 0.5905511811023622,
          "duration": 1.6551720000000003
        },
        {
          "name": "G4",
          "midi": 67,
          "time": 41.379299999999986,
          "velocity": 0.5905511811023622,
          "duration": 0.8275859999999966
        },
        {
          "name": "B4",
          "midi": 71,
          "time": 41.379299999999986,
          "velocity": 0.5905511811023622,
          "duration": 0.8275859999999966
        },
        {
          "name": "F4",
          "midi": 65,
          "time": 42.20688599999998,
          "velocity": 0.5905511811023622,
          "duration": 0.8275859999999966
        },
        {
          "name": "E4",
          "midi": 64,
          "time": 43.03447199999998,
          "velocity": 0.5905511811023622,
          "duration": 0.8275859999999966
        },
        {
          "name": "C5",
          "midi": 72,
          "time": 43.03447199999998,
          "velocity": 0.5905511811023622,
          "duration": 0.8275859999999966
        },
        {
          "name": "A4",
          "midi": 69,
          "time": 43.862057999999976,
          "velocity": 0.5905511811023622,
          "duration": 0.8275859999999966
        },
        {
          "name": "E5",
          "midi": 76,
          "time": 43.862057999999976,
          "velocity": 0.5905511811023622,
          "duration": 0.8275859999999966
        },
        {
          "name": "E5",
          "midi": 76,
          "time": 44.68964399999997,
          "velocity": 0.5905511811023622,
          "duration": 0.8275859999999966
        },
        {
          "name": "G5",
          "midi": 79,
          "time": 44.68964399999997,
          "velocity": 0.5905511811023622,
          "duration": 0.8275859999999966
        },
        {
          "name": "D5",
          "midi": 74,
          "time": 45.51722999999997,
          "velocity": 0.5905511811023622,
          "duration": 0.8275859999999966
        },
        {
          "name": "A5",
          "midi": 81,
          "time": 45.51722999999997,
          "velocity": 0.5905511811023622,
          "duration": 0.8275859999999966
        },
        {
          "name": "A4",
          "midi": 69,
          "time": 46.344815999999966,
          "velocity": 0.5905511811023622,
          "duration": 0.8275859999999966
        },
        {
          "name": "F5",
          "midi": 77,
          "time": 46.344815999999966,
          "velocity": 0.5905511811023622,
          "duration": 0.8275859999999966
        },
        {
          "name": "C5",
          "midi": 72,
          "time": 47.17240199999996,
          "velocity": 0.5905511811023622,
          "duration": 0.8275859999999966
        },
        {
          "name": "G4",
          "midi": 67,
          "time": 47.99998799999996,
          "velocity": 0.5905511811023622,
          "duration": 0.8275859999999966
        },
        {
          "name": "E5",
          "midi": 76,
          "time": 47.99998799999996,
          "velocity": 0.5905511811023622,
          "duration": 0.8275859999999966
        },
        {
          "name": "G4",
          "midi": 67,
          "time": 48.827573999999956,
          "velocity": 0.5905511811023622,
          "duration": 0.8275859999999966
        },
        {
          "name": "D4",
          "midi": 62,
          "time": 49.65515999999995,
          "velocity": 0.5905511811023622,
          "duration": 0.8275859999999966
        },
        {
          "name": "F4",
          "midi": 65,
          "time": 49.65515999999995,
          "velocity": 0.5905511811023622,
          "duration": 0.8275859999999966
        },
        {
          "name": "A4",
          "midi": 69,
          "time": 50.48274599999995,
          "velocity": 0.5905511811023622,
          "duration": 0.8275859999999966
        },
        {
          "name": "C5",
          "midi": 72,
          "time": 50.48274599999995,
          "velocity": 0.5905511811023622,
          "duration": 0.8275859999999966
        },
        {
          "name": "G4",
          "midi": 67,
          "time": 51.310331999999946,
          "velocity": 0.5905511811023622,
          "duration": 0.8275859999999966
        },
        {
          "name": "C5",
          "midi": 72,
          "time": 51.310331999999946,
          "velocity": 0.5905511811023622,
          "duration": 0.8275859999999966
        },
        {
          "name": "F4",
          "midi": 65,
          "time": 52.13791799999994,
          "velocity": 0.5905511811023622,
          "duration": 0.4137929999999983
        },
        {
          "name": "C5",
          "midi": 72,
          "time": 52.13791799999994,
          "velocity": 0.5905511811023622,
          "duration": 0.4137929999999983
        },
        {
          "name": "B4",
          "midi": 71,
          "time": 52.55171099999994,
          "velocity": 0.5905511811023622,
          "duration": 0.4137929999999983
        },
        {
          "name": "E4",
          "midi": 64,
          "time": 52.96550399999994,
          "velocity": 0.5905511811023622,
          "duration": 0.4137929999999983
        },
        {
          "name": "C5",
          "midi": 72,
          "time": 52.96550399999994,
          "velocity": 0.5905511811023622,
          "duration": 0.4137929999999983
        },
        {
          "name": "B4",
          "midi": 71,
          "time": 53.37929699999994,
          "velocity": 0.5905511811023622,
          "duration": 0.4137929999999983
        },
        {
          "name": "C5",
          "midi": 72,
          "time": 53.793089999999935,
          "velocity": 0.5905511811023622,
          "duration": 0.4137929999999983
        },
        {
          "name": "E4",
          "midi": 64,
          "time": 54.206882999999934,
          "velocity": 0.5905511811023622,
          "duration": 0.4137929999999983
        },
        {
          "name": "B3",
          "midi": 59,
          "time": 54.62067599999993,
          "velocity": 0.5905511811023622,
          "duration": 0.8275859999999966
        },
        {
          "name": "G4",
          "midi": 67,
          "time": 54.62067599999993,
          "velocity": 0.5905511811023622,
          "duration": 0.8275859999999966
        },
        {
          "name": "F4",
          "midi": 65,
          "time": 55.44826199999993,
          "velocity": 0.5905511811023622,
          "duration": 0.8275859999999966
        },
        {
          "name": "B4",
          "midi": 71,
          "time": 55.44826199999993,
          "velocity": 0.5905511811023622,
          "duration": 0.8275859999999966
        },
        {
          "name": "E4",
          "midi": 64,
          "time": 56.275847999999925,
          "velocity": 0.5905511811023622,
          "duration": 0.8275859999999966
        },
        {
          "name": "C5",
          "midi": 72,
          "time": 56.275847999999925,
          "velocity": 0.5905511811023622,
          "duration": 0.8275859999999966
        },
        {
          "name": "A4",
          "midi": 69,
          "time": 57.10343399999992,
          "velocity": 0.5905511811023622,
          "duration": 0.8275859999999966
        },
        {
          "name": "E5",
          "midi": 76,
          "time": 57.10343399999992,
          "velocity": 0.5905511811023622,
          "duration": 0.8275859999999966
        },
        {
          "name": "B4",
          "midi": 71,
          "time": 57.93101999999992,
          "velocity": 0.5905511811023622,
          "duration": 0.4137929999999983
        },
        {
          "name": "G5",
          "midi": 79,
          "time": 57.93101999999992,
          "velocity": 0.5905511811023622,
          "duration": 0.4137929999999983
        },
        {
          "name": "E5",
          "midi": 76,
          "time": 58.34481299999992,
          "velocity": 0.5905511811023622,
          "duration": 0.4137929999999983
        },
        {
          "name": "D5",
          "midi": 74,
          "time": 58.758605999999915,
          "velocity": 0.5905511811023622,
          "duration": 0.4137929999999983
        },
        {
          "name": "G5",
          "midi": 79,
          "time": 58.758605999999915,
          "velocity": 0.5905511811023622,
          "duration": 0.4137929999999983
        },
        {
          "name": "A5",
          "midi": 81,
          "time": 59.17239899999991,
          "velocity": 0.5905511811023622,
          "duration": 0.4137929999999983
        },
        {
          "name": "A4",
          "midi": 69,
          "time": 59.58619199999991,
          "velocity": 0.5905511811023622,
          "duration": 0.4137929999999983
        },
        {
          "name": "F5",
          "midi": 77,
          "time": 59.58619199999991,
          "velocity": 0.5905511811023622,
          "duration": 0.4137929999999983
        },
        {
          "name": "E5",
          "midi": 76,
          "time": 59.99998499999991,
          "velocity": 0.5905511811023622,
          "duration": 0.4137929999999983
        },
        {
          "name": "D5",
          "midi": 74,
          "time": 60.41377799999991,
          "velocity": 0.5905511811023622,
          "duration": 0.4137929999999983
        }
      ],
      "controlChanges": {
        "7": [
          {
            "number": 7,
            "time": 0,
            "value": 1
          }
        ],
        "10": [
          {
            "number": 10,
            "time": 0,
            "value": 0.5039370078740157
          }
        ],
        "64": [
          {
            "number": 64,
            "time": 0,
            "value": 1
          },
          {
            "number": 64,
            "time": 1.655172,
            "value": 0
          },
          {
            "number": 64,
            "time": 1.655172,
            "value": 1
          },
          {
            "number": 64,
            "time": 3.310344,
            "value": 0
          },
          {
            "number": 64,
            "time": 3.310344,
            "value": 1
          },
          {
            "number": 64,
            "time": 4.965516,
            "value": 0
          },
          {
            "number": 64,
            "time": 4.965516,
            "value": 1
          },
          {
            "number": 64,
            "time": 6.620688,
            "value": 0
          },
          {
            "number": 64,
            "time": 6.620688,
            "value": 1
          },
          {
            "number": 64,
            "time": 8.27586,
            "value": 0
          },
          {
            "number": 64,
            "time": 8.27586,
            "value": 1
          },
          {
            "number": 64,
            "time": 9.931032,
            "value": 0
          },
          {
            "number": 64,
            "time": 9.931032,
            "value": 1
          },
          {
            "number": 64,
            "time": 11.586204,
            "value": 0
          },
          {
            "number": 64,
            "time": 11.586204,
            "value": 1
          },
          {
            "number": 64,
            "time": 13.241376,
            "value": 0
          },
          {
            "number": 64,
            "time": 13.241376,
            "value": 1
          },
          {
            "number": 64,
            "time": 14.896548000000001,
            "value": 0
          },
          {
            "number": 64,
            "time": 14.896548000000001,
            "value": 1
          },
          {
            "number": 64,
            "time": 16.55172,
            "value": 0
          },
          {
            "number": 64,
            "time": 16.55172,
            "value": 1
          },
          {
            "number": 64,
            "time": 18.206892,
            "value": 0
          },
          {
            "number": 64,
            "time": 18.206892,
            "value": 1
          },
          {
            "number": 64,
            "time": 19.862064,
            "value": 0
          },
          {
            "number": 64,
            "time": 19.862064,
            "value": 1
          },
          {
            "number": 64,
            "time": 21.517236,
            "value": 0
          },
          {
            "number": 64,
            "time": 21.517236,
            "value": 1
          },
          {
            "number": 64,
            "time": 23.172408,
            "value": 0
          },
          {
            "number": 64,
            "time": 23.172408,
            "value": 1
          },
          {
            "number": 64,
            "time": 24.82758,
            "value": 0
          },
          {
            "number": 64,
            "time": 24.82758,
            "value": 1
          },
          {
            "number": 64,
            "time": 26.482752,
            "value": 0
          },
          {
            "number": 64,
            "time": 26.482752,
            "value": 1
          },
          {
            "number": 64,
            "time": 28.137924,
            "value": 0
          },
          {
            "number": 64,
            "time": 28.137924,
            "value": 1
          },
          {
            "number": 64,
            "time": 29.793096000000002,
            "value": 0
          },
          {
            "number": 64,
            "time": 29.793096000000002,
            "value": 1
          },
          {
            "number": 64,
            "time": 31.448268000000002,
            "value": 0
          },
          {
            "number": 64,
            "time": 31.448268000000002,
            "value": 1
          },
          {
            "number": 64,
            "time": 33.10344,
            "value": 0
          },
          {
            "number": 64,
            "time": 33.10344,
            "value": 1
          },
          {
            "number": 64,
            "time": 34.758612,
            "value": 0
          },
          {
            "number": 64,
            "time": 34.758612,
            "value": 1
          },
          {
            "number": 64,
            "time": 36.41378399999999,
            "value": 0
          },
          {
            "number": 64,
            "time": 36.41378399999999,
            "value": 1
          },
          {
            "number": 64,
            "time": 38.06895599999999,
            "value": 0
          },
          {
            "number": 64,
            "time": 38.06895599999999,
            "value": 1
          },
          {
            "number": 64,
            "time": 39.724127999999986,
            "value": 0
          },
          {
            "number": 64,
            "time": 39.724127999999986,
            "value": 1
          },
          {
            "number": 64,
            "time": 41.379299999999986,
            "value": 0
          },
          {
            "number": 64,
            "time": 41.379299999999986,
            "value": 1
          },
          {
            "number": 64,
            "time": 43.03447199999998,
            "value": 0
          },
          {
            "number": 64,
            "time": 43.03447199999998,
            "value": 1
          },
          {
            "number": 64,
            "time": 44.68964399999997,
            "value": 0
          },
          {
            "number": 64,
            "time": 44.68964399999997,
            "value": 1
          },
          {
            "number": 64,
            "time": 46.344815999999966,
            "value": 0
          },
          {
            "number": 64,
            "time": 46.344815999999966,
            "value": 1
          },
          {
            "number": 64,
            "time": 47.99998799999996,
            "value": 0
          },
          {
            "number": 64,
            "time": 47.99998799999996,
            "value": 1
          },
          {
            "number": 64,
            "time": 49.65515999999995,
            "value": 0
          },
          {
            "number": 64,
            "time": 49.65515999999995,
            "value": 1
          },
          {
            "number": 64,
            "time": 51.310331999999946,
            "value": 0
          },
          {
            "number": 64,
            "time": 51.310331999999946,
            "value": 1
          },
          {
            "number": 64,
            "time": 52.96550399999994,
            "value": 0
          },
          {
            "number": 64,
            "time": 52.96550399999994,
            "value": 1
          },
          {
            "number": 64,
            "time": 54.62067599999993,
            "value": 0
          },
          {
            "number": 64,
            "time": 54.62067599999993,
            "value": 1
          },
          {
            "number": 64,
            "time": 56.275847999999925,
            "value": 0
          },
          {
            "number": 64,
            "time": 56.275847999999925,
            "value": 1
          },
          {
            "number": 64,
            "time": 57.93101999999992,
            "value": 0
          },
          {
            "number": 64,
            "time": 57.93101999999992,
            "value": 1
          },
          {
            "number": 64,
            "time": 59.58619199999991,
            "value": 0
          },
          {
            "number": 64,
            "time": 59.58619199999991,
            "value": 1
          },
          {
            "number": 64,
            "time": 61.241363999999905,
            "value": 0
          },
          {
            "number": 64,
            "time": 61.241363999999905,
            "value": 1
          },
          {
            "number": 64,
            "time": 62.8965359999999,
            "value": 0
          },
          {
            "number": 64,
            "time": 62.8965359999999,
            "value": 1
          },
          {
            "number": 64,
            "time": 64.55170799999989,
            "value": 0
          },
          {
            "number": 64,
            "time": 64.55170799999989,
            "value": 1
          },
          {
            "number": 64,
            "time": 66.20687999999988,
            "value": 0
          },
          {
            "number": 64,
            "time": 66.20687999999988,
            "value": 1
          },
          {
            "number": 64,
            "time": 67.86205199999988,
            "value": 0
          },
          {
            "number": 64,
            "time": 67.86205199999988,
            "value": 1
          },
          {
            "number": 64,
            "time": 69.51722399999987,
            "value": 0
          },
          {
            "number": 64,
            "time": 69.51722399999987,
            "value": 1
          },
          {
            "number": 64,
            "time": 71.17239599999986,
            "value": 0
          },
          {
            "number": 64,
            "time": 71.17239599999986,
            "value": 1
          },
          {
            "number": 64,
            "time": 72.82756799999986,
            "value": 0
          },
          {
            "number": 64,
            "time": 72.82756799999986,
            "value": 1
          },
          {
            "number": 64,
            "time": 74.48273999999985,
            "value": 0
          },
          {
            "number": 64,
            "time": 74.48273999999985,
            "value": 1
          },
          {
            "number": 64,
            "time": 76.13791199999984,
            "value": 0
          },
          {
            "number": 64,
            "time": 76.13791199999984,
            "value": 1
          },
          {
            "number": 64,
            "time": 77.79308399999984,
            "value": 0
          },
          {
            "number": 64,
            "time": 77.79308399999984,
            "value": 1
          },
          {
            "number": 64,
            "time": 79.44825599999983,
            "value": 0
          },
          {
            "number": 64,
            "time": 79.44825599999983,
            "value": 1
          },
          {
            "number": 64,
            "time": 81.10342799999982,
            "value": 0
          },
          {
            "number": 64,
            "time": 81.10342799999982,
            "value": 1
          },
          {
            "number": 64,
            "time": 82.75859999999982,
            "value": 0
          },
          {
            "number": 64,
            "time": 82.75859999999982,
            "value": 1
          },
          {
            "number": 64,
            "time": 84.41377199999981,
            "value": 0
          },
          {
            "number": 64,
            "time": 84.41377199999981,
            "value": 1
          },
          {
            "number": 64,
            "time": 86.0689439999998,
            "value": 0
          },
          {
            "number": 64,
            "time": 86.0689439999998,
            "value": 1
          },
          {
            "number": 64,
            "time": 87.7241159999998,
            "value": 0
          },
          {
            "number": 64,
            "time": 87.7241159999998,
            "value": 1
          },
          {
            "number": 64,
            "time": 89.37928799999979,
            "value": 0
          },
          {
            "number": 64,
            "time": 89.37928799999979,
            "value": 1
          },
          {
            "number": 64,
            "time": 91.03445999999978,
            "value": 0
          },
          {
            "number": 64,
            "time": 91.03445999999978,
            "value": 1
          },
          {
            "number": 64,
            "time": 92.68963199999978,
            "value": 0
          },
          {
            "number": 64,
            "time": 92.68963199999978,
            "value": 1
          },
          {
            "number": 64,
            "time": 94.34480399999977,
            "value": 0
          },
          {
            "number": 64,
            "time": 94.34480399999977,
            "value": 1
          },
          {
            "number": 64,
            "time": 95.99997599999976,
            "value": 0
          },
          {
            "number": 64,
            "time": 95.99997599999976,
            "value": 1
          },
          {
            "number": 64,
            "time": 97.65514799999976,
            "value": 0
          },
          {
            "number": 64,
            "time": 97.65514799999976,
            "value": 1
          },
          {
            "number": 64,
            "time": 99.31031999999975,
            "value": 0
          },
          {
            "number": 64,
            "time": 99.31031999999975,
            "value": 1
          },
          {
            "number": 64,
            "time": 100.96549199999974,
            "value": 0
          },
          {
            "number": 64,
            "time": 100.96549199999974,
            "value": 1
          },
          {
            "number": 64,
            "time": 102.62066399999973,
            "value": 0
          },
          {
            "number": 64,
            "time": 102.62066399999973,
            "value": 1
          },
          {
            "number": 64,
            "time": 104.27583599999973,
            "value": 0
          },
          {
            "number": 64,
            "time": 104.27583599999973,
            "value": 1
          },
          {
            "number": 64,
            "time": 105.93100799999972,
            "value": 0
          },
          {
            "number": 64,
            "time": 105.93100799999972,
            "value": 1
          },
          {
            "number": 64,
            "time": 107.58617999999971,
            "value": 0
          },
          {
            "number": 64,
            "time": 107.58617999999971,
            "value": 1
          },
          {
            "number": 64,
            "time": 109.24135199999971,
            "value": 0
          },
          {
            "number": 64,
            "time": 109.24135199999971,
            "value": 1
          },
          {
            "number": 64,
            "time": 110.8965239999997,
            "value": 0
          },
          {
            "number": 64,
            "time": 110.8965239999997,
            "value": 1
          },
          {
            "number": 64,
            "time": 112.5516959999997,
            "value": 0
          },
          {
            "number": 64,
            "time": 112.5516959999997,
            "value": 1
          },
          {
            "number": 64,
            "time": 114.20686799999969,
            "value": 0
          },
          {
            "number": 64,
            "time": 114.20686799999969,
            "value": 1
          },
          {
            "number": 64,
            "time": 115.86203999999968,
            "value": 0
          },
          {
            "number": 64,
            "time": 115.86203999999968,
            "value": 1
          },
          {
            "number": 64,
            "time": 117.51721199999967,
            "value": 0
          },
          {
            "number": 64,
            "time": 117.51721199999967,
            "value": 1
          },
          {
            "number": 64,
            "time": 119.17238399999967,
            "value": 0
          },
          {
            "number": 64,
            "time": 119.17238399999967,
            "value": 1
          },
          {
            "number": 64,
            "time": 120.82755599999966,
            "value": 0
          },
          {
            "number": 64,
            "time": 120.82755599999966,
            "value": 1
          },
          {
            "number": 64,
            "time": 122.48272799999965,
            "value": 0
          },
          {
            "number": 64,
            "time": 122.48272799999965,
            "value": 1
          },
          {
            "number": 64,
            "time": 124.13789999999965,
            "value": 0
          },
          {
            "number": 64,
            "time": 124.13789999999965,
            "value": 1
          },
          {
            "number": 64,
            "time": 125.79307199999964,
            "value": 0
          },
          {
            "number": 64,
            "time": 125.79307199999964,
            "value": 1
          },
          {
            "number": 64,
            "time": 127.44824399999963,
            "value": 0
          },
          {
            "number": 64,
            "time": 127.44824399999963,
            "value": 1
          },
          {
            "number": 64,
            "time": 129.10341599999964,
            "value": 0
          },
          {
            "number": 64,
            "time": 129.10341599999964,
            "value": 1
          },
          {
            "number": 64,
            "time": 130.75858799999963,
            "value": 0
          },
          {
            "number": 64,
            "time": 130.75858799999963,
            "value": 1
          },
          {
            "number": 64,
            "time": 132.41375999999963,
            "value": 0
          },
          {
            "number": 64,
            "time": 132.41375999999963,
            "value": 1
          },
          {
            "number": 64,
            "time": 134.06893199999962,
            "value": 0
          },
          {
            "number": 64,
            "time": 134.06893199999962,
            "value": 1
          },
          {
            "number": 64,
            "time": 135.7241039999996,
            "value": 0
          },
          {
            "number": 64,
            "time": 135.7241039999996,
            "value": 1
          },
          {
            "number": 64,
            "time": 137.3792759999996,
            "value": 0
          },
          {
            "number": 64,
            "time": 137.3792759999996,
            "value": 1
          },
          {
            "number": 64,
            "time": 139.0344479999996,
            "value": 0
          },
          {
            "number": 64,
            "time": 139.0344479999996,
            "value": 1
          },
          {
            "number": 64,
            "time": 140.6896199999996,
            "value": 0
          },
          {
            "number": 64,
            "time": 140.6896199999996,
            "value": 1
          },
          {
            "number": 64,
            "time": 142.3447919999996,
            "value": 0
          },
          {
            "number": 64,
            "time": 142.3447919999996,
            "value": 1
          },
          {
            "number": 64,
            "time": 143.99996399999958,
            "value": 0
          },
          {
            "number": 64,
            "time": 143.99996399999958,
            "value": 1
          },
          {
            "number": 64,
            "time": 145.65513599999957,
            "value": 0
          },
          {
            "number": 64,
            "time": 145.65513599999957,
            "value": 1
          },
          {
            "number": 64,
            "time": 147.31030799999957,
            "value": 0
          },
          {
            "number": 64,
            "time": 147.31030799999957,
            "value": 1
          },
          {
            "number": 64,
            "time": 148.96547999999956,
            "value": 0
          },
          {
            "number": 64,
            "time": 148.96547999999956,
            "value": 1
          },
          {
            "number": 64,
            "time": 150.62065199999955,
            "value": 0
          },
          {
            "number": 64,
            "time": 150.62065199999955,
            "value": 1
          },
          {
            "number": 64,
            "time": 152.27582399999955,
            "value": 0
          },
          {
            "number": 64,
            "time": 152.27582399999955,
            "value": 1
          },
          {
            "number": 64,
            "time": 153.93099599999954,
            "value": 0
          },
          {
            "number": 64,
            "time": 153.93099599999954,
            "value": 1
          },
          {
            "number": 64,
            "time": 155.58616799999953,
            "value": 0
          },
          {
            "number": 64,
            "time": 155.58616799999953,
            "value": 1
          },
          {
            "number": 64,
            "time": 157.24133999999952,
            "value": 0
          },
          {
            "number": 64,
            "time": 157.24133999999952,
            "value": 1
          },
          {
            "number": 64,
            "time": 158.89651199999952,
            "value": 0
          },
          {
            "number": 64,
            "time": 158.89651199999952,
            "value": 1
          },
          {
            "number": 64,
            "time": 160.5516839999995,
            "value": 0
          },
          {
            "number": 64,
            "time": 160.5516839999995,
            "value": 1
          },
          {
            "number": 64,
            "time": 162.2068559999995,
            "value": 0
          },
          {
            "number": 64,
            "time": 162.2068559999995,
            "value": 1
          },
          {
            "number": 64,
            "time": 163.8620279999995,
            "value": 0
          },
          {
            "number": 64,
            "time": 163.8620279999995,
            "value": 1
          },
          {
            "number": 64,
            "time": 165.5171999999995,
            "value": 0
          },
          {
            "number": 64,
            "time": 165.5171999999995,
            "value": 1
          },
          {
            "number": 64,
            "time": 167.17237199999948,
            "value": 0
          },
          {
            "number": 64,
            "time": 167.17237199999948,
            "value": 1
          },
          {
            "number": 64,
            "time": 168.82754399999948,
            "value": 0
          },
          {
            "number": 64,
            "time": 168.82754399999948,
            "value": 1
          },
          {
            "number": 64,
            "time": 170.48271599999947,
            "value": 0
          },
          {
            "number": 64,
            "time": 170.48271599999947,
            "value": 1
          },
          {
            "number": 64,
            "time": 172.13788799999946,
            "value": 0
          },
          {
            "number": 64,
            "time": 172.13788799999946,
            "value": 1
          },
          {
            "number": 64,
            "time": 173.79305999999946,
            "value": 0
          },
          {
            "number": 64,
            "time": 173.79305999999946,
            "value": 1
          },
          {
            "number": 64,
            "time": 175.44823199999945,
            "value": 0
          },
          {
            "number": 64,
            "time": 175.44823199999945,
            "value": 1
          },
          {
            "number": 64,
            "time": 177.10340399999944,
            "value": 0
          },
          {
            "number": 64,
            "time": 177.10340399999944,
            "value": 1
          },
          {
            "number": 64,
            "time": 178.75857599999944,
            "value": 0
          },
          {
            "number": 64,
            "time": 178.75857599999944,
            "value": 1
          },
          {
            "number": 64,
            "time": 180.41374799999943,
            "value": 0
          },
          {
            "number": 64,
            "time": 180.41374799999943,
            "value": 1
          },
          {
            "number": 64,
            "time": 182.06891999999945,
            "value": 0
          },
          {
            "number": 64,
            "time": 182.06891999999945,
            "value": 1
          },
          {
            "number": 64,
            "time": 183.72409199999944,
            "value": 0
          },
          {
            "number": 64,
            "time": 183.72409199999944,
            "value": 1
          },
          {
            "number": 64,
            "time": 185.37926399999944,
            "value": 0
          },
          {
            "number": 64,
            "time": 185.37926399999944,
            "value": 1
          },
          {
            "number": 64,
            "time": 187.03443599999943,
            "value": 0
          },
          {
            "number": 64,
            "time": 187.03443599999943,
            "value": 1
          },
          {
            "number": 64,
            "time": 188.68960799999942,
            "value": 0
          },
          {
            "number": 64,
            "time": 188.68960799999942,
            "value": 1
          },
          {
            "number": 64,
            "time": 190.34477999999942,
            "value": 0
          },
          {
            "number": 64,
            "time": 190.34477999999942,
            "value": 1
          },
          {
            "number": 64,
            "time": 191.9999519999994,
            "value": 0
          },
          {
            "number": 64,
            "time": 191.9999519999994,
            "value": 1
          },
          {
            "number": 64,
            "time": 193.6551239999994,
            "value": 0
          },
          {
            "number": 64,
            "time": 193.6551239999994,
            "value": 1
          },
          {
            "number": 64,
            "time": 195.3102959999994,
            "value": 0
          },
          {
            "number": 64,
            "time": 195.3102959999994,
            "value": 1
          },
          {
            "number": 64,
            "time": 196.9654679999994,
            "value": 0
          },
          {
            "number": 64,
            "time": 196.9654679999994,
            "value": 1
          },
          {
            "number": 64,
            "time": 198.62063999999938,
            "value": 0
          },
          {
            "number": 64,
            "time": 198.62063999999938,
            "value": 1
          },
          {
            "number": 64,
            "time": 200.27581199999938,
            "value": 0
          },
          {
            "number": 64,
            "time": 200.27581199999938,
            "value": 1
          },
          {
            "number": 64,
            "time": 201.93098399999937,
            "value": 0
          },
          {
            "number": 64,
            "time": 201.93098399999937,
            "value": 1
          },
          {
            "number": 64,
            "time": 203.58615599999936,
            "value": 0
          },
          {
            "number": 64,
            "time": 203.58615599999936,
            "value": 1
          },
          {
            "number": 64,
            "time": 205.24132799999936,
            "value": 0
          },
          {
            "number": 64,
            "time": 205.24132799999936,
            "value": 1
          },
          {
            "number": 64,
            "time": 206.89649999999935,
            "value": 0
          },
          {
            "number": 64,
            "time": 206.89649999999935,
            "value": 1
          },
          {
            "number": 64,
            "time": 208.55167199999934,
            "value": 0
          },
          {
            "number": 64,
            "time": 208.55167199999934,
            "value": 1
          },
          {
            "number": 64,
            "time": 210.20684399999934,
            "value": 0
          },
          {
            "number": 64,
            "time": 210.20684399999934,
            "value": 1
          },
          {
            "number": 64,
            "time": 211.86201599999933,
            "value": 0
          },
          {
            "number": 64,
            "time": 211.86201599999933,
            "value": 1
          },
          {
            "number": 64,
            "time": 213.51718799999932,
            "value": 0
          },
          {
            "number": 64,
            "time": 213.51718799999932,
            "value": 1
          },
          {
            "number": 64,
            "time": 215.17235999999932,
            "value": 0
          },
          {
            "number": 64,
            "time": 215.17235999999932,
            "value": 1
          },
          {
            "number": 64,
            "time": 216.8275319999993,
            "value": 0
          },
          {
            "number": 64,
            "time": 216.8275319999993,
            "value": 1
          },
          {
            "number": 64,
            "time": 218.4827039999993,
            "value": 0
          },
          {
            "number": 64,
            "time": 218.4827039999993,
            "value": 1
          },
          {
            "number": 64,
            "time": 220.1378759999993,
            "value": 0
          },
          {
            "number": 64,
            "time": 220.1378759999993,
            "value": 1
          },
          {
            "number": 64,
            "time": 221.7930479999993,
            "value": 0
          },
          {
            "number": 64,
            "time": 221.7930479999993,
            "value": 1
          },
          {
            "number": 64,
            "time": 223.44821999999928,
            "value": 0
          },
          {
            "number": 64,
            "time": 223.44821999999928,
            "value": 1
          },
          {
            "number": 64,
            "time": 225.10339199999927,
            "value": 0
          },
          {
            "number": 64,
            "time": 225.10339199999927,
            "value": 1
          },
          {
            "number": 64,
            "time": 226.75856399999927,
            "value": 0
          },
          {
            "number": 64,
            "time": 226.75856399999927,
            "value": 1
          },
          {
            "number": 64,
            "time": 228.41373599999926,
            "value": 0
          },
          {
            "number": 64,
            "time": 228.41373599999926,
            "value": 1
          },
          {
            "number": 64,
            "time": 230.06890799999925,
            "value": 0
          },
          {
            "number": 64,
            "time": 230.06890799999925,
            "value": 1
          },
          {
            "number": 64,
            "time": 231.72407999999925,
            "value": 0
          },
          {
            "number": 64,
            "time": 231.72407999999925,
            "value": 1
          },
          {
            "number": 64,
            "time": 233.37925199999924,
            "value": 0
          },
          {
            "number": 64,
            "time": 233.37925199999924,
            "value": 1
          },
          {
            "number": 64,
            "time": 235.03442399999923,
            "value": 0
          },
          {
            "number": 64,
            "time": 235.03442399999923,
            "value": 1
          },
          {
            "number": 64,
            "time": 236.68959599999923,
            "value": 0
          },
          {
            "number": 64,
            "time": 236.68959599999923,
            "value": 1
          },
          {
            "number": 64,
            "time": 238.34476799999922,
            "value": 0
          },
          {
            "number": 64,
            "time": 238.34476799999922,
            "value": 1
          },
          {
            "number": 64,
            "time": 239.9999399999992,
            "value": 0
          },
          {
            "number": 64,
            "time": 239.9999399999992,
            "value": 1
          },
          {
            "number": 64,
            "time": 241.6551119999992,
            "value": 0
          },
          {
            "number": 64,
            "time": 241.6551119999992,
            "value": 1
          },
          {
            "number": 64,
            "time": 243.3102839999992,
            "value": 0
          },
          {
            "number": 64,
            "time": 243.3102839999992,
            "value": 1
          },
          {
            "number": 64,
            "time": 244.9654559999992,
            "value": 0
          },
          {
            "number": 64,
            "time": 244.9654559999992,
            "value": 1
          },
          {
            "number": 64,
            "time": 246.6206279999992,
            "value": 0
          },
          {
            "number": 64,
            "time": 246.6206279999992,
            "value": 1
          },
          {
            "number": 64,
            "time": 248.27579999999918,
            "value": 0
          },
          {
            "number": 64,
            "time": 248.27579999999918,
            "value": 1
          },
          {
            "number": 64,
            "time": 249.93097199999917,
            "value": 0
          },
          {
            "number": 64,
            "time": 249.93097199999917,
            "value": 1
          },
          {
            "number": 64,
            "time": 251.58614399999917,
            "value": 0
          },
          {
            "number": 64,
            "time": 251.58614399999917,
            "value": 1
          },
          {
            "number": 64,
            "time": 253.24131599999916,
            "value": 0
          },
          {
            "number": 64,
            "time": 253.24131599999916,
            "value": 1
          },
          {
            "number": 64,
            "time": 254.89648799999915,
            "value": 0
          },
          {
            "number": 64,
            "time": 254.89648799999915,
            "value": 1
          },
          {
            "number": 64,
            "time": 256.55165999999923,
            "value": 0
          },
          {
            "number": 64,
            "time": 256.55165999999923,
            "value": 1
          },
          {
            "number": 64,
            "time": 258.20683199999945,
            "value": 0
          },
          {
            "number": 64,
            "time": 258.20683199999945,
            "value": 1
          },
          {
            "number": 64,
            "time": 259.8620039999996,
            "value": 0
          },
          {
            "number": 64,
            "time": 259.8620039999996,
            "value": 1
          },
          {
            "number": 64,
            "time": 261.51717599999984,
            "value": 0
          },
          {
            "number": 64,
            "time": 261.51717599999984,
            "value": 1
          },
          {
            "number": 64,
            "time": 263.17234800000006,
            "value": 0
          },
          {
            "number": 64,
            "time": 263.17234800000006,
            "value": 1
          },
          {
            "number": 64,
            "time": 264.8275200000002,
            "value": 0
          },
          {
            "number": 64,
            "time": 264.8275200000002,
            "value": 1
          },
          {
            "number": 64,
            "time": 266.48269200000044,
            "value": 0
          },
          {
            "number": 64,
            "time": 266.48269200000044,
            "value": 1
          },
          {
            "number": 64,
            "time": 268.13786400000066,
            "value": 0
          },
          {
            "number": 64,
            "time": 268.13786400000066,
            "value": 1
          },
          {
            "number": 64,
            "time": 269.7930360000008,
            "value": 0
          },
          {
            "number": 64,
            "time": 269.7930360000008,
            "value": 1
          },
          {
            "number": 64,
            "time": 271.44820800000105,
            "value": 0
          },
          {
            "number": 64,
            "time": 271.44820800000105,
            "value": 1
          },
          {
            "number": 64,
            "time": 273.1033800000012,
            "value": 0
          },
          {
            "number": 64,
            "time": 273.1033800000012,
            "value": 1
          },
          {
            "number": 64,
            "time": 274.75855200000143,
            "value": 0
          },
          {
            "number": 64,
            "time": 274.75855200000143,
            "value": 1
          },
          {
            "number": 64,
            "time": 276.41372400000165,
            "value": 0
          },
          {
            "number": 64,
            "time": 276.41372400000165,
            "value": 1
          },
          {
            "number": 64,
            "time": 278.06889600000176,
            "value": 0
          },
          {
            "number": 64,
            "time": 278.06889600000176,
            "value": 1
          },
          {
            "number": 64,
            "time": 279.7240680000015,
            "value": 0
          },
          {
            "number": 64,
            "time": 279.7240680000015,
            "value": 1
          },
          {
            "number": 64,
            "time": 281.3792400000013,
            "value": 0
          },
          {
            "number": 64,
            "time": 281.3792400000013,
            "value": 1
          },
          {
            "number": 64,
            "time": 283.03441200000105,
            "value": 0
          },
          {
            "number": 64,
            "time": 283.03441200000105,
            "value": 1
          },
          {
            "number": 64,
            "time": 284.6895840000008,
            "value": 0
          },
          {
            "number": 64,
            "time": 284.6895840000008,
            "value": 1
          },
          {
            "number": 64,
            "time": 286.3447560000006,
            "value": 0
          },
          {
            "number": 64,
            "time": 286.3447560000006,
            "value": 1
          },
          {
            "number": 64,
            "time": 287.99992800000035,
            "value": 0
          },
          {
            "number": 64,
            "time": 287.99992800000035,
            "value": 1
          },
          {
            "number": 64,
            "time": 289.6551000000001,
            "value": 0
          },
          {
            "number": 64,
            "time": 289.6551000000001,
            "value": 1
          },
          {
            "number": 64,
            "time": 291.3102719999999,
            "value": 0
          },
          {
            "number": 64,
            "time": 291.3102719999999,
            "value": 1
          },
          {
            "number": 64,
            "time": 292.96544399999965,
            "value": 0
          },
          {
            "number": 64,
            "time": 292.96544399999965,
            "value": 1
          },
          {
            "number": 64,
            "time": 294.6206159999994,
            "value": 0
          },
          {
            "number": 64,
            "time": 294.6206159999994,
            "value": 1
          },
          {
            "number": 64,
            "time": 296.2757879999992,
            "value": 0
          },
          {
            "number": 64,
            "time": 296.2757879999992,
            "value": 1
          },
          {
            "number": 64,
            "time": 297.93095999999895,
            "value": 0
          },
          {
            "number": 64,
            "time": 297.93095999999895,
            "value": 1
          },
          {
            "number": 64,
            "time": 299.5861319999987,
            "value": 0
          },
          {
            "number": 64,
            "time": 299.5861319999987,
            "value": 1
          },
          {
            "number": 64,
            "time": 301.2413039999985,
            "value": 0
          },
          {
            "number": 64,
            "time": 301.2413039999985,
            "value": 1
          },
          {
            "number": 64,
            "time": 302.89647599999824,
            "value": 0
          },
          {
            "number": 64,
            "time": 302.89647599999824,
            "value": 1
          },
          {
            "number": 64,
            "time": 306.20681999999806,
            "value": 0
          },
          {
            "number": 64,
            "time": 306.20681999999806,
            "value": 1
          },
          {
            "number": 64,
            "time": 307.86199199999805,
            "value": 0
          },
          {
            "number": 64,
            "time": 307.86199199999805,
            "value": 1
          },
          {
            "number": 64,
            "time": 309.51716399999805,
            "value": 0
          }
        ]
      },
      "id": 1,
      "name": "Staff",
      "instrumentNumber": 1,
      "instrument": "bright acoustic piano",
      "instrumentFamily": "piano",
      "channelNumber": 0,
      "isPercussion": false
    }
  ]
}